<svg version="1.1" xmlns="http://www.w3.org/2000/svg" xmlns:xlink="http://www.w3.org/1999/xlink" width="988.00299" height="565.57907" viewBox="0,0,988.00299,565.57907"><g transform="translate(175.50299,103.07907)"><g fill="none" stroke="#000000" stroke-miterlimit="10"><path d="M-154.06418,450c-4.93677,0 -8.93881,-3.37568 -8.93881,-7.53981v-525.49945c0,-4.16412 4.00204,-7.53981 8.93881,-7.53981h945.12537c4.93677,0 8.93881,3.37568 8.93881,7.53981v525.49945c0,4.16412 -4.00204,7.53981 -8.93881,7.53981z" stroke-width="25" stroke-linecap="butt"/><path d="M647.32733,442.76277v-93.09309" stroke-width="10" stroke-linecap="round"/><path d="M-37.35733,53.87388h138.13814" stroke-width="10" stroke-linecap="round"/><path d="M710.39044,50.87088h-169.66967" stroke-width="10" stroke-linecap="round"/><path d="M562.96084,50.87088v-51.05105" stroke-width="10" stroke-linecap="round"/><path d="M561.45935,25.34536h27.02703v22.52252" stroke-width="10" stroke-linecap="round"/><path d="M654.08414,50.87088v-27.02703" stroke-width="10" stroke-linecap="round"/><path d="M640.57058,25.34535v25.52553" stroke-width="10" stroke-linecap="round"/><path d="M625.55561,25.34534h37.53754" stroke-width="10" stroke-linecap="round"/><path d="M465.79366,281.3715h-56.27126" stroke-width="10" stroke-linecap="round"/><path d="M175.85589,119.93995h60.06006" stroke-width="10" stroke-linecap="round"/><path d="M303.48348,201.02103h-12.01201" stroke-width="10" stroke-linecap="round"/><path d="M377.46191,132.77696l120.39224,0" stroke-width="10" stroke-linecap="round"/><path d="M174.78122,286.60662h-84.93775" stroke-width="10" stroke-linecap="round"/><path d="M240.00001,338.66067h55.55556" stroke-width="10" stroke-linecap="round"/><path d="M31.71175,193.93995h-60.06006" stroke-width="10" stroke-linecap="round"/><path d="M540.61785,196.60662h84.93775" stroke-width="10" stroke-linecap="round"/></g></g></svg>