<svg version="1.1" xmlns="http://www.w3.org/2000/svg" xmlns:xlink="http://www.w3.org/1999/xlink" width="339" height="339" viewBox="0,0,339,339"><g transform="translate(-150.5,-10.5)"><g stroke-miterlimit="10"><path d="M311.14568,194.74189c0,0 -13.47229,5.86769 -16.47408,13.06781c-3.76485,9.0304 5.75727,14.14156 1.16639,18.08604c-4.95245,4.25514 -11.53846,-8.69232 -11.53846,-8.69232c-2.68441,0.3795 -4.65493,4.93387 -10.34623,4.90844c-8.78363,-0.03925 -7.11411,-9.83261 0.46008,-11.48282c2.74007,-0.59698 7.43835,1.67018 7.76526,1.0689c4.13724,-7.60953 2.36228,-15.57242 14.89666,-29.3715c7.1826,-7.90732 16.16049,-8.28125 16.16049,-8.28125" fill="#ffde00" stroke="#1c1600" stroke-width="3.5" stroke-linecap="round" stroke-linejoin="round"/><path d="M313.31671,266.96682l-0.3,-52.4l24.06464,2.18047l0.80489,33.15192c0,0 10.13244,2.42493 13.36964,4.62747c2.65805,1.80849 4.66083,7.64014 4.66083,7.64014c0,0 -8.84209,4.95575 -25.00006,-5.5975c-4.73338,-3.09151 -6.19994,-27.2025 -6.19994,-27.2025l-3.79279,26.51897c0,0 26.15957,21.29119 0.18092,19.37023c-3.97924,-0.29424 -7.78813,-8.28919 -7.78813,-8.28919z" fill="#9a3b00" stroke="#000000" stroke-width="0" stroke-linecap="butt" stroke-linejoin="miter"/><path d="M324.71742,222.85168c1.56525,-0.78262 2.34787,0.78262 2.34787,0.78262l0.35142,1.11596c-0.00512,6.5258 0.95356,13.32802 1.97903,19.72988c0.49167,3.06942 -0.016,6.46358 1.08227,9.33873c0,0 0.05336,0.14672 0.08436,0.36844c7.10721,7.99793 30.26078,12.58962 20.14621,2.40363c-3.33038,-2.32577 -7.60636,-4.63532 -11.68721,-4.93004l-1.94774,-0.16231c-0.59425,-0.02185 -0.97537,-0.2529 -1.2198,-0.54029c-0.26619,-0.26755 -0.46485,-0.66674 -0.43709,-1.26111c0.00448,-3.92556 0.5047,-7.76369 0.66815,-11.68631c0.279,-6.69565 -0.33485,-13.4006 -0.33485,-20.09394v-0.5c0,0 0,-1.75 1.75,-1.75v-0.00001c1.75,0 1.75,1.75 1.75,1.75v0.5c0,6.74211 0.61285,13.49434 0.33182,20.2394c-0.13972,3.35359 -0.53274,6.64778 -0.63861,9.98592l0.36878,0.03073c4.86914,0.44756 9.6694,2.94797 13.64612,5.73664c14.10755,14.02792 -13.40371,15.81461 -25.10846,2.49304c0,0 -0.36646,-0.41881 -0.4499,-0.99074c-0.14607,-0.21821 -0.21106,-0.39695 -0.21106,-0.39695c-1.93511,-5.52317 -1.20014,-12.25109 -1.92558,-18.05089c-0.07587,-0.60653 -0.15828,-1.20628 -0.2437,-1.8015c-0.36399,2.40993 -0.6677,4.82074 -0.94732,7.11903c-0.32508,2.67186 0.26807,5.40165 -0.17892,8.0878c-0.29897,1.79662 -0.95286,3.31656 -1.22304,5.06182c4.34452,2.94412 8.68618,6.34882 10.75445,11.25743c5.77442,11.90937 -22.05773,20.39151 -22.33911,-7.51051c-0.44218,-0.5992 -0.31167,-1.38224 -0.31167,-1.38224c1.99922,-11.93996 -0.3484,-23.73052 -0.35714,-35.7123c0,-2 0,-4 0,-6v-0.66667c0,0 0,-1.75 1.75,-1.75h0.00001c1.75,0 1.75,1.75 1.75,1.75c0,2 0,4.66667 0,6.66667c-0.00941,11.999 2.25393,23.74554 0.40265,35.70687c0.26401,0.46386 0.26401,0.9598 0.26401,0.9598c0,22.67386 19.08627,15.99173 15.65874,9.39495c-1.86702,-4.53814 -6.21741,-7.6141 -10.2128,-10.2722l-0.41051,-0.4739c-0.08032,-0.07453 -0.14864,-0.15505 -0.20674,-0.23865l-0.31203,-0.3602c0,0 -0.97663,-1.30218 0.20976,-2.33671c0.32155,-1.57592 0.85546,-3.0192 1.13043,-4.66579c0.43673,-2.61532 -0.15559,-5.29829 0.1544,-7.9122c0.62586,-5.27734 1.43611,-11.08336 2.70768,-16.22642l0.12793,-1.12596c0,0 0.09587,-0.76692 0.66985,-1.21771c0.14642,-0.1699 0.34682,-0.32855 0.61735,-0.46381z" fill="#000000" stroke="none" stroke-width="0.5" stroke-linecap="butt" stroke-linejoin="miter"/><path d="M336.46436,175.32064c0,0 13.10911,-7.22291 19,0.57143c9.97796,13.20202 5.54515,28.11574 7.46186,30.02756c2.49811,2.49174 5.30109,-0.98333 7.77535,0.60965c3.16524,2.03784 2.29443,11.06193 -3.32012,9.88725c-3.93702,-0.82371 -7.06002,-3.86462 -8.68332,-3.87512c-2.55784,-0.01655 -6.33893,6.99587 -9.27273,3.54545c-4.14492,-4.87481 8.00555,-14.5295 3.42946,-23.3585c-2.79424,-5.39115 -15.61127,-4.36877 -15.61127,-4.36877" fill="#ffde00" stroke="#1c1600" stroke-width="3.5" stroke-linecap="round" stroke-linejoin="miter"/><path d="M305.65538,136.37554c0,0 -6.04467,-5.81771 -7.46941,-17.12145c-1.53092,-12.14617 6.1962,-22.13056 6.1962,-22.13056c0,0 10.52811,8.36625 9.1799,22.29645c-1.39016,14.36372 -7.9067,16.95556 -7.9067,16.95556z" fill="#04ff00" stroke="#131b00" stroke-width="3.5" stroke-linecap="round" stroke-linejoin="round"/><path d="M299.49311,137.90132c0,0 -27.91631,2.18094 -39.58348,-10.21531c-12.5882,-13.37484 -9.69758,-38.74477 -9.69758,-38.74477c0,0 21.44949,-3.11232 37.8867,13.09882c19.40952,19.14257 11.39436,35.86126 11.39436,35.86126z" fill="#04ff00" stroke="#131b00" stroke-width="3.5" stroke-linecap="round" stroke-linejoin="round"/><path d="M259.11922,98.80011c10.38048,8.25218 24.22425,19.9265 29.45385,28.12308c0,0 -3.73344,1.41152 -13.76539,-1.38462" fill="none" stroke="#039a00" stroke-width="3.5" stroke-linecap="round" stroke-linejoin="round"/><path d="M278.1923,103.30778c0.76291,5.5183 -0.15385,10.69231 -0.15385,10.69231" fill="none" stroke="#039a00" stroke-width="3" stroke-linecap="round" stroke-linejoin="miter"/><path d="M268.84756,107.58078c0,0 -5.76238,0.46595 -11.74249,-0.77126" fill="none" stroke="#039a00" stroke-width="3" stroke-linecap="round" stroke-linejoin="miter"/><path d="M336.38499,173.63078c-0.42699,10.05808 2.09164,35.7545 3.25641,40.44444c0,0 -3.66007,4.76165 -13.3449,3.77907c-10.87625,-1.10345 -15.46705,-4.55684 -15.46705,-4.55684c-0.19516,-29.31 2.44444,-39.77778 2.44444,-39.77778" fill="#ffde00" stroke="#1c1600" stroke-width="3.5" stroke-linecap="round" stroke-linejoin="round"/><path d="M336.56819,135.13637c9.58679,8.98459 14.85515,22.15308 6.12121,32.54546c-7.76586,9.24047 -21.32473,9.94061 -32.81818,4.07576c-9.47824,-4.83654 -23.17035,-27.198 -14.36364,-37.5c9.82672,-11.49519 30.52529,-8.99476 41.06061,0.87878z" fill="#ff6e00" stroke="#1c1600" stroke-width="3.5" stroke-linecap="round" stroke-linejoin="miter"/><path d="M321.60649,155.86363c-1.75,0 -1.75,-1.75 -1.75,-1.75v-1.74972c0,-4.20574 0.04345,-8.53345 -0.42673,-12.71095c0,0 -0.19326,-1.7393 1.54604,-1.93255c1.7393,-0.19325 1.93255,1.54604 1.93255,1.54604c0.47313,4.30875 0.44814,8.76157 0.44814,13.09747v1.74972c0,0 0,1.75 -1.75,1.75z" fill="#000000" stroke="none" stroke-width="0.5" stroke-linecap="butt" stroke-linejoin="miter"/><path d="M337.3403,152.8861c1.56525,0.78262 0.78262,2.34788 0.78262,2.34788l-0.98221,1.9351c-0.75412,0.88902 -2.42647,2.97779 -3.38117,3.58265c-8.64538,5.47739 -17.99431,0.51495 -23.90156,-6.25507c0,0 -1.13889,-1.3287 0.18982,-2.46759c1.3287,-1.13888 2.46758,0.18982 2.46758,0.18982c5.63274,6.72635 15.06019,10.66564 21.70953,3.01417l0.76751,-1.56434c0,0 0.78262,-1.56525 2.34787,-0.78263z" fill="#000000" stroke="none" stroke-width="0.5" stroke-linecap="butt" stroke-linejoin="miter"/><path d="M329.26151,154.1139c-1.75,0 -1.75,-1.75 -1.75,-1.75v-2.18715c0,-4.1498 0.16496,-8.14869 0.66966,-12.24641c0,0 0.21706,-1.73649 1.95355,-1.51943c1.73649,0.21706 1.51943,1.95355 1.51943,1.95355c-0.50284,3.95696 -0.64263,7.80589 -0.64263,11.81229v2.18715c0,0 0,1.75 -1.75,1.75z" fill="#000000" stroke="none" stroke-width="0.5" stroke-linecap="butt" stroke-linejoin="miter"/><path d="M150.5,349.5v-339h339v339z" fill="none" stroke="#131b00" stroke-width="0" stroke-linecap="butt" stroke-linejoin="miter"/></g></g></svg>