<svg version="1.1" xmlns="http://www.w3.org/2000/svg" xmlns:xlink="http://www.w3.org/1999/xlink" width="196.33496" height="281.62931" viewBox="0,0,196.33496,281.62931"><g transform="translate(-218.50469,-0.00002)"><g stroke="none" stroke-miterlimit="10"><path d="M331.28881,46.42406c-8.205,-0.15842 -16.54224,-0.65921 -24.78343,-1.5066c9.46417,-20.55335 26.24585,-33.46118 48.01332,-38.44531c2.43948,-0.01728 6.74901,-1.89872 9.0009,-1.49572c17.83575,3.19193 35.80381,10.43997 43.0288,28.65297c0.97195,1.7064 3.1954,2.95421 3.25065,4.91723c0.01472,0.52312 -0.76981,0.7173 -1.09097,1.13049c-1.12871,1.45216 -9.29031,11.99374 -10.98436,11.88608c-0.61025,-0.03879 -5.85971,-11.24892 -6.90882,-12.87843c-4.60919,-7.15917 -12.79965,-10.09362 -21.11488,-10.14914c-4.2827,0 -9.1944,-0.65662 -13.39973,0.04212c-2.72093,0.45209 -6.86543,1.86041 -9.26144,3.28364c-0.8421,0.50022 -1.36933,1.4703 -2.26186,1.87372c-0.91231,0.41236 -2.04247,0.09371 -2.96352,0.48617c-4.14458,1.766 -8.69479,7.42359 -10.34273,11.35986z" fill="#ffb3df" stroke-width="0.25"/><path d="M348.39614,82.8666c-18.61006,-3.81725 -37.27765,-2.6457 -56.86985,-0.8671c-7.25368,0.91744 -13.67854,1.82799 -19.55081,3.12712c0.21045,-11.50386 1.97816,-23.0625 1.97816,-34.52517c0,-1.33662 -1.99361,-3.71135 -0.67943,-3.95523c4.82599,-0.89558 11.92491,1.06363 16.97088,1.09886c15.25405,2.57099 31.51338,3.69016 46.96524,3.6841c1.12783,-0.00044 13.44845,-0.15444 13.61525,0.26482c0.52566,1.32126 -0.44379,2.82528 -0.44379,4.24727c0,8.57567 -0.26503,17.11918 -1.95391,25.54152z" fill="#c184ff" stroke-width="0.25"/><path d="M320.07364,276.67417c-0.18289,-0.10767 -0.3102,-0.15853 -0.3102,-0.15853c-13.24516,-5.27463 -27.41529,-4.38503 -39.27947,-14.20932c-4.58338,-3.79532 -9.18137,-8.00966 -13.68559,-12.01406c-15.20794,-13.51072 -35.88228,-41.46359 -39.56249,-61.98689c-4.79807,-22.3966 -7.93848,-57.26261 8.76678,-75.56296c17.04504,-19.90694 31.17832,-22.7807 56.08626,-25.8517c24.32628,-2.21457 47.09298,-3.54254 70.36135,5.1099c19.10073,11.17123 37.18289,27.20827 41.29909,49.86155c3.65076,21.66481 8.74514,42.11101 4.68161,64.44314c-4.77986,21.71292 -18.03361,37.02502 -31.98955,53.40805c-4.66802,3.86118 -9.10252,9.2928 -14.64832,11.85528c-12.22819,5.65013 -26.41494,5.10148 -39.6236,5.10148l-2.00104,0.00005c0,0 -0.03433,0.00001 -0.09487,0.00402z" fill="#8000ff" stroke-width="0.25"/><path d="M318.74237,112.45763c-1.48452,-3.0521 -2.68096,-7.86692 -1.73129,-11.14768c1.70633,-5.89474 8.66036,-6.98922 13.57193,-8.4395c1.26053,-0.37221 2.49136,-0.95904 3.80315,-1.04089c1.16296,-0.07257 2.28852,0.45243 3.44577,0.58856c6.95461,0.81811 13.31021,1.35575 20.13442,3.20038c21.70274,6.9984 45.30317,45.74649 7.51725,45.19023c-14.16045,-4.12496 -22.34802,-11.74698 -33.95508,-20.01958c-2.6831,-1.91231 -5.7053,-2.92048 -8.53316,-4.47295c-1.46003,0.28199 -2.42057,-1.07352 -2.42057,-1.07352l-0.73966,-1.05348c-0.07778,-0.06554 -0.15518,-0.13207 -0.23223,-0.19963c0,0 -0.69832,-0.62181 -0.86053,-1.53195z" fill-opacity="0.41961" fill="#ffffff" stroke-width="0.5"/><path d="M228.12624,121.72074c2.48759,-0.24876 2.73635,2.23883 2.73635,2.23883c1.16995,13.21668 17.98567,29.48971 26.42968,39.14437c13.6025,16.99663 29.00815,27.07804 46.51638,39.30631c18.38371,12.90508 43.2548,16.86956 65.2168,18.58036c7.02223,1.75398 12.57324,0.17703 19.51949,-0.7604c3.65793,-0.49366 7.39749,-0.27188 11.08006,-0.27188l2.87781,0.90918c0,0 2.18483,0.81931 1.5414,2.98562c0.65242,1.03259 0.15199,2.28368 0.15199,2.28368l-0.74107,1.70827c-2.58814,3.83635 -3.65517,8.45168 -5.55556,12.65073c-1.19,2.62938 -2.94443,5.10463 -4.42736,7.57331c-9.33429,13.3118 -32.24967,32.26418 -49.2011,30.88705c-16.05677,0.01447 -42.32309,0.53378 -55.62237,-10.90548l-0.49416,0.67948l-2.72429,-1.9813c-0.45935,-0.32582 -0.80391,-0.80285 -0.96113,-1.35855c-1.7544,-0.52115 -3.47468,-1.13075 -5.0845,-2.01138c-4.3042,-2.35456 -9.93653,-6.77118 -12.98017,-10.63208c-0.88952,-1.12838 -1.68859,-3.17628 -2.79725,-4.27076c-2.73177,-2.69685 -6.04791,-4.6743 -8.62087,-7.62976c-2.38041,-2.73429 -3.96827,-6.12666 -5.70894,-9.27779c-12.52355,-16.61156 -25.34354,-29.63377 -27.1087,-51.8947c-3.54343,-11.60267 -5.04408,-42.18522 1.73184,-53.54254c0.07192,-0.69741 0.40737,-1.66894 1.6587,-2.04482c0.1036,-0.06872 0.21881,-0.13625 0.34428,-0.19686c0.08934,-0.74987 0.49945,-1.99656 2.22269,-2.16889zM224.52043,147.55252c-0.07903,-0.31745 -0.14147,-0.62708 -0.18016,-0.92444c-0.01692,-0.03686 -0.03387,-0.07369 -0.05083,-0.1105c-0.07938,1.75885 -0.11491,3.56007 -0.11201,5.37296c0.11109,-1.45112 0.23147,-2.89241 0.343,-4.33802z" fill-opacity="0.13725" fill="#000000" stroke-width="0.5"/><path d="M331.42881,45.60837c1.64794,-3.93627 6.19312,-9.60394 10.3377,-11.36994c0.92105,-0.39246 2.05191,-0.072 2.96422,-0.48436c0.89253,-0.40342 1.41847,-1.37702 2.26057,-1.87724c2.39601,-1.42323 6.63732,-2.85561 9.35825,-3.3077c4.20533,-0.69874 9.11776,-0.03228 13.40046,-0.03228c8.31523,0.05552 16.50334,3.00396 21.11253,10.16313c1.04911,1.62951 6.20786,12.79905 6.81811,12.83784c1.69405,0.10766 9.84996,-10.41956 10.97867,-11.87172c0.32116,-0.41319 1.10542,-0.60612 1.0907,-1.12924c-0.05525,-1.96302 -2.27936,-3.20658 -3.25131,-4.91298c-7.22499,-18.213 -25.15459,-25.4068 -42.99034,-28.59873c-2.25189,-0.403 -6.54196,1.47904 -8.98144,1.49632c-21.76747,4.98413 -38.50979,17.82729 -47.97396,38.38064c8.24119,0.84739 16.57226,1.33552 24.77726,1.49394zM301.46547,44.0215c10.21125,-22.82375 28.49759,-37.1175 52.50762,-42.46927c3.31887,0.02593 6.82046,-1.87693 10.01856,-1.50368c19.37995,2.26183 39.3429,12.38219 47.00966,31.40127c0.39679,0.69192 3.75486,6.38008 3.74869,7.08702c-0.02983,3.41982 -12.61255,18.45526 -16.93064,17.99904c-9.00762,-0.95169 -8.57649,-23.16542 -28.06936,-22.99904c-3.99458,0 -8.68758,-0.68688 -12.59954,-0.03228c-2.21398,0.37047 -5.70398,1.51725 -7.64175,2.6923c-0.98779,0.59899 -1.68868,1.64273 -2.73943,2.12276c-0.93361,0.42652 -2.07205,0.16241 -3.03578,0.51564c-0.61952,0.22707 -3.10091,2.85426 -3.21573,2.96935c-1.67762,1.68147 -3.04122,2.73962 -4.00532,4.64796c0.2182,0.00055 0.43627,0.00086 0.65422,0.00094c3.99614,0.00151 15.0633,-1.22823 17.72148,2.40935c0.53419,0.731 0.44519,5.68716 0.44519,7.09065c0,8.90039 -0.30447,17.74818 -2.04855,26.49029l0.04855,1.17638c0,0 0,0.14293 -0.03417,0.36043c3.75019,0.95325 7.50518,2.12406 11.27343,3.54802c20.55103,11.95778 39.63197,29.17292 44.05698,53.49577c3.67562,22.32314 8.83125,43.26739 4.6543,66.25732c-5.07677,22.66163 -18.64476,38.87438 -33.36175,55.9518c-5.1064,4.28234 -9.94092,9.9526 -16.02629,12.81632c-12.86269,6.05306 -27.80898,5.57035 -41.72916,5.57035h-2c0,0 -0.64763,0 -1.28363,-0.32962c-0.55614,-0.01371 -0.97818,-0.18252 -0.97818,-0.18252c-5.59462,-2.24874 -11.32371,-1.93909 -17.09299,-3.58443c-14.87595,-4.24248 -26.00584,-13.49181 -37.30611,-23.53491c-16.13708,-14.3517 -37.13207,-43.02832 -41.12481,-64.71628c-5.1701,-24.12104 -7.88019,-60.16105 9.91153,-79.80675c11.47306,-13.37162 21.87189,-19.54303 34.72611,-23.1194c0.21612,-7.22774 2.25215,-42.80919 2.66249,-43.10784c4.27997,-3.11499 16.0032,-0.49213 21.03571,-0.44217c3.51087,0.57901 7.0656,1.08576 10.64618,1.52272c0.05272,-0.18546 0.10251,-0.29748 0.10251,-0.29748zM348.38188,81.46322c1.68888,-8.42234 1.95145,-16.93404 1.95145,-25.50971c0,-1.42199 0.97085,-2.92142 0.44519,-4.24268c-0.1668,-0.41926 -12.48402,-0.25776 -13.61185,-0.25732c-15.45186,0.00606 -31.6294,-1.10509 -46.88345,-3.67608c-5.04597,-0.03523 -12.1383,-2.00442 -16.96429,-1.10884c-1.31418,0.24388 0.68107,2.61497 0.68107,3.95159c0,11.46267 -1.76917,22.98057 -1.97962,34.48443c5.87227,-1.29913 12.29102,-2.21923 19.5447,-3.13667c19.5922,-1.7786 38.17563,-2.93961 56.78569,0.87764zM320.07185,276.6242c0.06054,-0.00401 0.09482,-0.00402 0.09482,-0.00402h2c13.20866,0 27.37599,0.55381 39.60418,-5.09632c5.5458,-2.56248 9.97236,-7.98917 14.64038,-11.85035c13.95594,-16.38303 27.19172,-31.66861 31.97158,-53.38153c4.06353,-22.33213 -1.02827,-42.74454 -4.67903,-64.40935c-4.1162,-22.65328 -22.17563,-38.66634 -41.27636,-49.83757c-23.26837,-8.65244 -45.99955,-7.32055 -70.32583,-5.10598c-24.90794,3.071 -39.01568,5.92867 -56.06072,25.83561c-16.70526,18.30035 -13.5532,53.12998 -8.75513,75.52658c3.68021,20.5233 24.33391,48.43967 39.54185,61.95039c4.50422,4.0044 9.09333,8.21365 13.67671,12.00897c11.86418,9.82429 26.01237,8.9304 39.25753,14.20503c0,0 0.12715,0.05087 0.31004,0.15854z" fill="#000000" stroke-width="0.5"/></g></g></svg>