<svg version="1.1" xmlns="http://www.w3.org/2000/svg" xmlns:xlink="http://www.w3.org/1999/xlink" width="38.96458" height="44.29583" viewBox="0,0,38.96458,44.29583"><defs><linearGradient x1="281.50317" y1="151.80146" x2="281.50317" y2="196.09728" gradientUnits="userSpaceOnUse" id="color-1"><stop offset="0" stop-color="#89209f"/><stop offset="1" stop-color="#224e9f"/></linearGradient><linearGradient x1="281.48436" y1="166.63108" x2="281.48436" y2="192.68665" gradientUnits="userSpaceOnUse" id="color-2"><stop offset="0" stop-color="#cc52ff"/><stop offset="1" stop-color="#52a8ff"/></linearGradient><linearGradient x1="281.33107" y1="167.75" x2="281.33107" y2="181.92095" gradientUnits="userSpaceOnUse" id="color-3"><stop offset="0" stop-color="#64319f"/><stop offset="1" stop-color="#443e9f"/></linearGradient></defs><g transform="translate(-262.02089,-151.80146)"><g stroke="none" stroke-width="0.5" stroke-miterlimit="10"><path d="M291.25,154.16667c0,1.75 -1.75,1.75 -1.75,1.75h-0.33333c-2.79033,0 -5.58066,0.00059 -8.37099,0.00078c-0.1342,0.30878 -0.26362,0.6134 -0.33751,0.89916c-0.59123,2.28632 -0.92445,4.201 -0.76649,6.41294c16.28811,-1.313 30.25633,15.83614 14.1746,28.68309c-1.58287,1.05629 -2.77811,1.85841 -4.27568,2.41022c-0.04857,1.33318 -1.46956,1.57001 -1.46956,1.57001c-15.27147,2.38411 -37.45983,-16.62757 -19.25842,-28.84894c2.39457,-1.58651 4.87472,-2.64434 7.34682,-3.25037c-0.23829,-2.13169 -0.23008,-4.25602 0.2627,-6.39729c0.11587,-0.50348 0.25784,-1.01869 0.49418,-1.47892c-0.87766,-0.00013 -1.75531,-0.00034 -2.63297,-0.00067c-2.32736,-0.00088 -4.01202,0.17524 -5.63141,-0.3339c-0.17831,0.00038 -0.35673,0.00057 -0.53526,0.00057l-0.77154,-0.57865c-0.50604,-0.29292 -1.02084,-0.67471 -1.5618,-1.17135c0.26979,-0.22483 0.5309,-0.42004 0.7856,-0.5892l1.54773,-1.1608c2.63285,0 7.83809,-0.81782 10.98525,0.33248c3.33825,-0.00002 6.6765,0.00085 10.01475,0.00085h0.33333c0,0 1.75,0 1.75,1.75zM285.14518,192.63852c0.31088,-1.22185 1.68816,-1.22185 1.68816,-1.22185l0.04564,0.02381c2.12815,-0.31532 3.11509,-1.1502 4.92142,-2.35311c15.98546,-12.80839 -5.34489,-29.63959 -20.99633,-19.13128c-13.93273,9.21186 2.72136,22.62263 14.34111,22.68242z" fill="url(#color-1)"/><path d="M285.15874,192.68664c-11.61975,-0.05979 -28.32443,-13.55228 -14.3917,-22.76414c15.65144,-10.50831 37.0557,6.39024 21.07024,19.19863c-1.80633,1.20291 -2.80936,2.0495 -4.93751,2.36482l-0.04575,-0.02376c0,0 -1.38441,0.00261 -1.69529,1.22446z" fill="url(#color-2)"/><path d="M281.16667,167.75c1.75,0 1.75,1.75 1.75,1.75v1c0,3.19419 -0.03323,6.29721 0.32263,9.47341c0,0 0.19326,1.7393 -1.54604,1.93255c-1.7393,0.19326 -1.93255,-1.54604 -1.93255,-1.54604c-0.36465,-3.30776 -0.34404,-6.53507 -0.34404,-9.85992v-1c0,0 0,-1.75 1.75,-1.75z" fill="url(#color-3)"/></g></g></svg>