<svg version="1.1" xmlns="http://www.w3.org/2000/svg" xmlns:xlink="http://www.w3.org/1999/xlink" width="382" height="382" viewBox="0,0,382,382"><defs><linearGradient x1="248.54139" y1="168.97893" x2="248.54139" y2="189.96622" gradientUnits="userSpaceOnUse" id="color-1"><stop offset="0" stop-color="#e494ff"/><stop offset="1" stop-color="#97bfff"/></linearGradient><linearGradient x1="248.54139" y1="170.65939" x2="248.54139" y2="188.28576" gradientUnits="userSpaceOnUse" id="color-2"><stop offset="0" stop-color="#ee35ff"/><stop offset="1" stop-color="#00bfff"/></linearGradient><linearGradient x1="254.13496" y1="179.40421" x2="254.13496" y2="168.91056" gradientUnits="userSpaceOnUse" id="color-3"><stop offset="0" stop-color="#ffffff" stop-opacity="0.32157"/><stop offset="1" stop-color="#ffffff" stop-opacity="0"/></linearGradient><linearGradient x1="254.01648" y1="168.57478" x2="254.01649" y2="172.744" gradientUnits="userSpaceOnUse" id="color-4"><stop offset="0" stop-color="#ffffff"/><stop offset="1" stop-color="#ffffff" stop-opacity="0"/></linearGradient><linearGradient x1="248.54138" y1="168.97893" x2="248.54138" y2="189.96622" gradientUnits="userSpaceOnUse" id="color-5"><stop offset="0" stop-color="#89209f"/><stop offset="1" stop-color="#301ca8"/></linearGradient></defs><g transform="translate(-129,11)"><g stroke-miterlimit="10"><path d="" fill="#ee35ff" stroke="#0b6088" stroke-width="0"/><path d="M402.69569,189.96622h-226.14578l20.98729,-20.98728h226.14579l-20.98728,20.98727z" fill="url(#color-1)" stroke="none" stroke-width="0"/><path d="M402.12702,188.28576h-221.64754l17.62637,-17.62636h221.64753z" fill="url(#color-2)" stroke="none" stroke-width="0"/><path d="M403.26763,191.64667h-226.14579l20.98728,-20.98729h226.14579l-20.98728,20.98728z" fill-opacity="0.32157" fill="#5d00ff" stroke="none" stroke-width="0"/><path d="M423.67972,168.91057l-10.73572,10.49364h-225.72489l10.42303,-10.49364z" fill="url(#color-3)" stroke="none" stroke-width="0"/><path d="M194.41231,172.74399l3.09713,-4.16921h226.2894l-3.69273,4.16922z" fill="url(#color-4)" stroke="none" stroke-width="0"/><path d="M425.1926,168.35333l-22.23796,22.23851h-227.91471l22.23797,-22.23851zM178.05934,189.34108h224.3774l19.73699,-19.73698h-224.3774z" fill="url(#color-5)" stroke="none" stroke-width="1"/><path d="M129,371v-382h382v382z" fill="none" stroke="#000000" stroke-width="0"/></g></g></svg>