<svg version="1.1" xmlns="http://www.w3.org/2000/svg" xmlns:xlink="http://www.w3.org/1999/xlink" width="970" height="1362.16216" viewBox="0,0,970,1362.16216"><g transform="translate(165,907.16216)"><g fill="none" stroke="#000000" stroke-width="10" stroke-linecap="square" stroke-miterlimit="10"><path d="M-160,-902.16216h448"/><path d="M800,-902.16216h-448"/><path d="M32,-766.94595h64"/><path d="M352,-766.94595h192"/><path d="M736,-766.94595h-128"/><path d="M-96,-631.72973h64"/><path d="M288,-631.72973h-192"/><path d="M352,-631.72973h320"/><path d="M800,-631.72973h-64"/><path d="M-160,-496.51351h64"/><path d="M224,-496.51351h-256"/><path d="M544,-496.51351h-256"/><path d="M672,-496.51351h64"/><path d="M-96,-361.2973h192"/><path d="M352,-361.2973h128"/><path d="M544,-361.2973h128"/><path d="M-160,-226.08108h64"/><path d="M32,-226.08108h64"/><path d="M160,-226.08108h192"/><path d="M416,-226.08108h128"/><path d="M608,-226.08108h64"/><path d="M-96,-90.86486h128"/><path d="M96,-90.86486h192"/><path d="M416,-90.86486h128"/><path d="M608,-90.86486h128"/><path d="M-32,44.35135h-128"/><path d="M160,44.35135h320"/><path d="M-96,179.56757h128"/><path d="M288,179.56757h128"/><path d="M672,179.56757h-64"/><path d="M-160,314.78378h64"/><path d="M32,314.78378h128"/><path d="M352,314.78378h128"/><path d="M608,314.78378h192"/><path d="M-160,450h448"/><path d="M800,450h-448"/><path d="M-160,-902.16216v1352.16216"/><path d="M-96,-766.94595v135.21622"/><path d="M-96,-361.2973v135.21622"/><path d="M-32,-902.16216v270.43243"/><path d="M-32,-226.08108v135.21622"/><path d="M-32,179.56757v270.43243"/><path d="M32,-766.94595v270.43243"/><path d="M32,-361.2973v135.21622"/><path d="M32,-90.86486v270.43243"/><path d="M96,-90.86486v270.43243"/><path d="M160,-902.16216v270.43243"/><path d="M160,-226.08108v-270.43243"/><path d="M160,450v-135.21622"/><path d="M224,-766.94595v135.21622"/><path d="M224,-226.08108v-135.21622"/><path d="M224,314.78378v-270.43243"/><path d="M288,-902.16216v135.21622"/><path d="M288,-631.72973v270.43243"/><path d="M288,179.56757v270.43243"/><path d="M352,44.35135v-405.64865"/><path d="M416,-226.08108v135.21622"/><path d="M480,-496.51351v135.21622"/><path d="M480,44.35135v270.43243"/><path d="M544,-766.94595v135.21622"/><path d="M544,-361.2973v135.21622"/><path d="M544,-90.86486v540.86486"/><path d="M608,-902.16216v135.21622"/><path d="M608,-631.72973v270.43243"/><path d="M608,-226.08108v270.43243"/><path d="M672,-631.72973v135.21622"/><path d="M672,44.35135v270.43243"/><path d="M736,-496.51351v676.08108"/><path d="M800,-902.16216v1352.16216"/></g></g></svg>