<svg version="1.1" xmlns="http://www.w3.org/2000/svg" xmlns:xlink="http://www.w3.org/1999/xlink" width="985" height="1465" viewBox="0,0,985,1465"><g transform="translate(172.5,1002.5)"><g fill="none" stroke="#000000" stroke-miterlimit="10"><path d="M416,-894h-384" stroke-width="10" stroke-linecap="square" stroke-linejoin="miter"/><path d="M-64,-798h192" stroke-width="10" stroke-linecap="square" stroke-linejoin="miter"/><path d="M416,-798h96" stroke-width="10" stroke-linecap="square" stroke-linejoin="miter"/><path d="M800,-798h-96" stroke-width="10" stroke-linecap="square" stroke-linejoin="miter"/><path d="M32,-702h192" stroke-width="10" stroke-linecap="square" stroke-linejoin="miter"/><path d="M704,-702h-192" stroke-width="10" stroke-linecap="square" stroke-linejoin="miter"/><path d="M-64,-606h96" stroke-width="10" stroke-linecap="square" stroke-linejoin="miter"/><path d="M224,-606h384" stroke-width="10" stroke-linecap="square" stroke-linejoin="miter"/><path d="M416,-510h-192" stroke-width="10" stroke-linecap="square" stroke-linejoin="miter"/><path d="M320,-414h-192" stroke-width="10" stroke-linecap="square" stroke-linejoin="miter"/><path d="M512,-414h288" stroke-width="10" stroke-linecap="square" stroke-linejoin="miter"/><path d="M32,-318h96" stroke-width="10" stroke-linecap="square" stroke-linejoin="miter"/><path d="M224,-318h288" stroke-width="10" stroke-linecap="square" stroke-linejoin="miter"/><path d="M608,-318h96" stroke-width="10" stroke-linecap="square" stroke-linejoin="miter"/><path d="M128,-222h192" stroke-width="10" stroke-linecap="square" stroke-linejoin="miter"/><path d="M608,-222h-96" stroke-width="10" stroke-linecap="square" stroke-linejoin="miter"/><path d="M800,-222h-96" stroke-width="10" stroke-linecap="square" stroke-linejoin="miter"/><path d="M-160,-126h96" stroke-width="10" stroke-linecap="square" stroke-linejoin="miter"/><path d="M32,-126h96" stroke-width="10" stroke-linecap="square" stroke-linejoin="miter"/><path d="M608,-126h96" stroke-width="10" stroke-linecap="square" stroke-linejoin="miter"/><path d="M-64,-30h96" stroke-width="10" stroke-linecap="square" stroke-linejoin="miter"/><path d="M416,-30h-192" stroke-width="10" stroke-linecap="square" stroke-linejoin="miter"/><path d="M608,-30h96" stroke-width="10" stroke-linecap="square" stroke-linejoin="miter"/><path d="M-160,66h96" stroke-width="10" stroke-linecap="square" stroke-linejoin="miter"/><path d="M32,66h192" stroke-width="10" stroke-linecap="square" stroke-linejoin="miter"/><path d="M608,66h-192" stroke-width="10" stroke-linecap="square" stroke-linejoin="miter"/><path d="M800,66h-96" stroke-width="10" stroke-linecap="square" stroke-linejoin="miter"/><path d="M128,162h192" stroke-width="10" stroke-linecap="square" stroke-linejoin="miter"/><path d="M704,162h-192" stroke-width="10" stroke-linecap="square" stroke-linejoin="miter"/><path d="M128,258h288" stroke-width="10" stroke-linecap="square" stroke-linejoin="miter"/><path d="M608,258h-96" stroke-width="10" stroke-linecap="square" stroke-linejoin="miter"/><path d="M704,258h96" stroke-width="10" stroke-linecap="square" stroke-linejoin="miter"/><path d="M-64,354h288" stroke-width="10" stroke-linecap="square" stroke-linejoin="miter"/><path d="M512,354h-192" stroke-width="10" stroke-linecap="square" stroke-linejoin="miter"/><path d="M608,354h96" stroke-width="10" stroke-linecap="square" stroke-linejoin="miter"/><path d="M-160,450h955.97598" stroke-width="25" stroke-linecap="square" stroke-linejoin="miter"/><path d="M416,450h384" stroke-width="25" stroke-linecap="square" stroke-linejoin="miter"/><path d="M-160,450v-1440h384" stroke-width="25" stroke-linecap="round" stroke-linejoin="round"/><path d="M-64,-894v768" stroke-width="10" stroke-linecap="square" stroke-linejoin="miter"/><path d="M-64,354v-288" stroke-width="10" stroke-linecap="square" stroke-linejoin="miter"/><path d="M32,-990v96" stroke-width="10" stroke-linecap="square" stroke-linejoin="miter"/><path d="M32,-606v192" stroke-width="10" stroke-linecap="square" stroke-linejoin="miter"/><path d="M32,-318v576" stroke-width="10" stroke-linecap="square" stroke-linejoin="miter"/><path d="M128,-702v384" stroke-width="10" stroke-linecap="square" stroke-linejoin="miter"/><path d="M128,-126v96" stroke-width="10" stroke-linecap="square" stroke-linejoin="miter"/><path d="M128,162v96" stroke-width="10" stroke-linecap="square" stroke-linejoin="miter"/><path d="M224,-702v-192" stroke-width="10" stroke-linecap="square" stroke-linejoin="miter"/><path d="M224,66v-288" stroke-width="10" stroke-linecap="square" stroke-linejoin="miter"/><path d="M320,-702v-192" stroke-width="10" stroke-linecap="square" stroke-linejoin="miter"/><path d="M320,-222v96" stroke-width="10" stroke-linecap="square" stroke-linejoin="miter"/><path d="M320,66v96" stroke-width="10" stroke-linecap="square" stroke-linejoin="miter"/><path d="M320,354v96" stroke-width="10" stroke-linecap="square" stroke-linejoin="miter"/><path d="M416,-606v-192" stroke-width="10" stroke-linecap="square" stroke-linejoin="miter"/><path d="M416,-510v768" stroke-width="10" stroke-linecap="square" stroke-linejoin="miter"/><path d="M512,-894v96" stroke-width="10" stroke-linecap="square" stroke-linejoin="miter"/><path d="M512,-414v-192" stroke-width="10" stroke-linecap="square" stroke-linejoin="miter"/><path d="M512,66v-192" stroke-width="10" stroke-linecap="square" stroke-linejoin="miter"/><path d="M512,354v-96" stroke-width="10" stroke-linecap="square" stroke-linejoin="miter"/><path d="M608,-990v288" stroke-width="10" stroke-linecap="square" stroke-linejoin="miter"/><path d="M608,-510v96" stroke-width="10" stroke-linecap="square" stroke-linejoin="miter"/><path d="M608,-318v192" stroke-width="10" stroke-linecap="square" stroke-linejoin="miter"/><path d="M608,162v96" stroke-width="10" stroke-linecap="square" stroke-linejoin="miter"/><path d="M608,354v96" stroke-width="10" stroke-linecap="square" stroke-linejoin="miter"/><path d="M704,-894v96" stroke-width="10" stroke-linecap="square" stroke-linejoin="miter"/><path d="M704,-510v-192" stroke-width="10" stroke-linecap="square" stroke-linejoin="miter"/><path d="M704,66v-192" stroke-width="10" stroke-linecap="square" stroke-linejoin="miter"/><path d="M320,-990h480v1440" stroke-width="25" stroke-linecap="round" stroke-linejoin="round"/></g></g></svg>