<svg version="1.1" xmlns="http://www.w3.org/2000/svg" xmlns:xlink="http://www.w3.org/1999/xlink" width="126.7274" height="248.96176" viewBox="0,0,126.7274,248.96176"><g transform="translate(-248.12641,-28.90311)"><g stroke-miterlimit="10"><path d="M336.40559,190.96935v-17.23841h10.22278v17.23841z" fill="#ffde00" stroke="#000000" stroke-width="0"/><path d="M303.70238,190.96935v-21.64823l8.11809,5.6125l-0.30067,16.03573z" fill="#ffde00" stroke="#000000" stroke-width="0"/><path d="M311.17501,213.87516l2.1,-39.8c0,0 7.31032,1.84925 10.97939,1.66029c4.05829,-0.20901 12.32061,-2.86029 12.32061,-2.86029l2.2,43c0,0 -6.402,1.9 -10.225,1.9c-4.88209,0 -17.375,-3.9 -17.375,-3.9z" fill="#ffde00" stroke="#000000" stroke-width="0"/><path d="M313.31672,266.9668l-0.3,-52.4l24.06464,2.18047l0.80489,33.15192c0,0 10.13244,2.42493 13.36964,4.62747c2.65805,1.80849 4.66083,7.64014 4.66083,7.64014c0,0 -8.84209,4.95575 -25.00006,-5.5975c-4.73338,-3.09151 -6.19994,-27.2025 -6.19994,-27.2025l-3.79279,26.51897c0,0 26.15957,21.29119 0.18092,19.37023c-3.97924,-0.29424 -7.78813,-8.28919 -7.78813,-8.28919z" fill="#9a3b00" stroke="#000000" stroke-width="0"/><path d="M305.21566,137.45326c-0.68304,-0.45435 -0.8329,-1.0159 -0.79937,-1.4843c-0.61043,-0.40616 -0.76373,-1.16855 -0.76373,-1.16855l0.24635,0.28796c-1.24572,-1.59915 -2.54494,-3.10691 -3.70654,-4.77101c-6.09496,-11.02884 -4.36399,-24.69541 2.94835,-34.30973c0,0 1.06103,-1.39166 2.45269,-0.33063c0.3201,0.24406 0.51044,0.50558 0.61377,0.76365l0.90342,0.92919c0.414,0.53116 0.82799,1.0623 1.24199,1.59346c8.90674,9.10712 9.64488,24.78771 1.48186,34.68927c0,0 -0.05715,0.06924 -0.16126,0.16342c-0.35634,0.66746 -0.76165,1.30858 -1.21205,1.91136l-0.81917,1.23805c0,0 -0.96922,1.45709 -2.42632,0.48785zM307.29105,130.58157c0,0 0.35689,-1.02713 1.31768,-1.18078c5.51833,-8.64081 4.23461,-20.80514 -2.89347,-28.13651c-0.35002,-0.44906 -0.70002,-0.89811 -1.05004,-1.34719c-5.36562,8.27953 -6.53309,19.47523 -1.50281,28.54857c1.00251,1.43564 2.13085,2.74521 3.21602,4.11386c0.37497,-0.63138 0.6817,-1.3059 0.91261,-1.99796z" fill="#000000" stroke="none" stroke-width="0.5"/><path d="M307.29553,130.63157c-0.2309,0.69208 -0.54098,1.36677 -0.91595,1.99815c-1.08518,-1.36865 -2.22604,-2.67951 -3.22856,-4.11517c-5.03028,-9.07335 -3.85549,-20.36756 1.51012,-28.64709c0.35002,0.44906 0.70314,0.89795 1.05315,1.34702c7.12808,7.33137 8.42251,19.59473 2.90419,28.23554c-0.96078,0.15365 -1.32294,1.18154 -1.32294,1.18154z" fill="#04ff00" stroke="none" stroke-width="0.5"/><path d="M307.70411,62.11802l0.69176,-0.00037l0.21256,-0.05317l0.21837,0.01733l0.57241,-0.09555l2.09555,-0.00095l0.5904,0.31423l0.52425,0.13067l0.13763,-0.00005l0.12743,0.05179l0.91753,0.13057l0.1877,-0.01944l0.18305,0.04563l3.44099,-0.00065l2.00255,0.35271l0.14938,-0.01049l0.14273,0.04523l1.85804,0.11613l1.6203,0.4047l1.73831,0.81027l0.05522,0.01072l0.04513,0.03355l1.54501,0.64328l1.03095,0.45793l0.77866,0.44461l1.28735,0.77189l0.27624,0.08415l0.24367,0.15497l0.45347,0.15127l0.36278,0.24173l0.79777,0.68322l0.0781,0.03906l0.05511,0.06772l0.95004,0.71221l1.30483,1.1855l1.0817,1.08111l0.99804,1.12217l0.11721,0.0801l0.0788,0.11807l1.25786,1.14368l0.63736,0.84947l0.01836,0.01493l0.00957,0.02163l0.79376,1.02039l0.55766,1.00312l0.01932,0.02065l0.00792,0.02715l0.79926,1.36975l0.44437,1.22059l0.05832,0.08643l0.0189,0.10252l0.63075,1.38728l0.44645,1.11583l0.3542,1.29763l0.08372,0.14936l0.02561,0.16929l0.65534,1.57367l0.05505,0.07408l0.02004,0.09011l0.72939,1.46047l0.56768,1.47771l0.49183,1.72364l0.00886,0.01538l0.00083,0.01773l0.34512,1.15237l0.19891,1.19574l-0.00194,7.00588l-0.12082,1.32353l0.00155,0.01003l-0.00326,0.00961l-0.11171,1.3331l-0.32151,1.17785l-0.38411,1.27918l-0.01196,0.2535l-0.08582,0.23891l-0.10262,1.01973l-0.30112,0.90233l-0.00795,0.10245l-0.04839,0.0907l-0.17479,0.69764l-0.26398,0.46186l-0.68852,0.91818l-0.02893,0.06865l-0.0551,0.05012l-0.49475,0.74198l-0.95579,1.31394l-0.60789,0.70917l-1.18453,1.06634l-0.0963,0.14279l-0.14044,0.09972l-0.58665,0.68415l-1.19329,0.86811l-0.06862,0.0819l-0.09555,0.04782l-0.91769,0.78646l-0.05953,0.08379l-0.08814,0.0529l-0.4858,0.48553l-0.14379,0.07194l-0.1258,0.10779l-0.15598,0.05578l-0.78654,0.52433l-0.17572,0.19312l-0.22392,0.13435l-0.27312,0.2729l-0.3441,0.0862l-0.25476,0.13589l-0.28179,0.06276l-0.95114,0.47562l-1.18311,0.47339l-0.93935,0.35234l-0.98474,0.29557l-1.05982,0.10641l-0.32094,0.11518l-0.33874,0.03883l-0.85026,0.31872l-1.03164,0.20642l-1.76322,0.25208l-0.069,0.02808l-0.07442,-0.00351l-1.31094,0.26205l-0.08341,0.03946l-0.09226,0.00198l-1.1033,0.30054l-1.22197,0.00013l-0.10793,0.02694l-0.1098,-0.01789l-1.4644,0.12183l-4.46485,-0.00075l-0.71052,-0.07904l-0.74263,-0.27827l-0.15077,-0.01726l-0.13392,-0.07135l-1.0487,-0.26218l-0.08731,-0.00004l-0.07956,-0.03597l-1.39181,-0.25334l-0.95046,-0.2114l-0.74759,-0.28036l-1.86296,-0.93127l-0.94315,-0.58925l-0.05046,-0.01638l-0.03832,-0.03669l-0.61278,-0.35012l-0.66957,-0.66898l-0.07653,-0.04592l-0.05093,-0.07324l-1.04892,-0.91732l-0.08976,-0.04605l-0.06365,-0.07825l-0.84416,-0.63305l-0.99677,-1.10681l-0.90582,-1.03468l-0.07329,-0.05092l-0.04595,-0.07649l-1.12542,-1.12533l-0.99082,-1.11456l-0.68942,-0.78793l-0.50539,-1.00984l-0.21859,-0.25509l-0.15337,-0.29887l-0.65605,-0.75005l-0.36334,-0.81687l-0.00698,-0.00894l-0.00206,-0.01115l-0.5988,-1.31665l-0.28498,-0.85404l-0.22906,-1.36997l-0.097,-0.22307l-0.02533,-0.24188l-0.46616,-1.28158l-0.19462,-0.87475l-0.11585,-1.03896l-0.11377,-0.30641l-0.03722,-0.32471l-0.22626,-0.60368l-0.0002,-0.44222l-0.04019,-0.16075l0.01983,-0.16446l-0.12905,-1.03104l-0.1132,-1.01779l-0.00034,-6.84891l0.20923,-1.25601l0.36775,-1.47181l0.00002,-0.06393l0.02734,-0.05779l0.39353,-1.96667l-0.00349,-0.07441l0.0281,-0.06901l0.24074,-1.68113l0.4847,-1.81592l0.00035,-0.02107l0.00991,-0.01859l0.47175,-1.88391l0.82992,-1.89587l0.02028,-0.11948l0.06508,-0.10227l0.59737,-1.78918l1.35965,-2.71668l0.03334,-0.14946l0.08574,-0.12695l0.45396,-1.24586l0.54716,-0.98376l0.99677,-1.7422l0.43412,-0.6505l0.34974,-0.46589l0.09259,-0.21946l0.15512,-0.18084l0.20317,-0.40568l2.21858,-2.21707l0.23868,-0.19084l0.22313,-0.08931l1.09606,-0.36567l0.36091,-0.00023l0.40875,-0.10233l0.42005,-0.03254l0.59127,-0.1972l0.58348,-0.09748l0.35913,-0.15613l0.11626,-0.02587l0.05089,0.01384l0.06671,-0.04l0.14839,-0.03301z" fill="#ff6e00" stroke="none" stroke-width="0.5"/><path d="M248.47039,89.07429c-0.14533,-1.74396 1.59863,-1.88928 1.59863,-1.88928l1.85962,-0.1489c1.35498,0.00073 2.71085,0.04743 4.06238,0.14397c15.50086,0.07351 27.67733,7.03378 37.84325,18.33074c8.4539,10.55982 10.42989,18.96405 7.47033,31.79676c0.05595,0.17769 0.08833,0.38334 0.08833,0.62138c0,1.55891 -1.38868,1.72913 -1.69196,1.74772c-0.14875,0.02238 -0.31261,0.02512 -0.49291,0.00228h-1.56513c-12.78499,-0.00647 -33.02378,-1.64125 -41.01895,-13.33797c-7.62622,-11.02834 -9.11335,-23.55918 -8.29907,-36.66405c0,0 0.01709,-0.27346 0.14595,-0.59721c-0.00015,-0.00181 -0.00031,-0.00363 -0.00046,-0.00544zM291.1658,107.77567c-9.46235,-10.51218 -20.81482,-17.17651 -35.2996,-17.09783c-1.31005,-0.09358 -2.62423,-0.1425 -3.93762,-0.14174l-0.14974,0.01306c-0.68834,12.08607 0.67786,23.63617 7.74012,33.82491c6.8614,10.64434 26.93883,11.81091 38.12391,11.80489h0.33902c2.67853,-11.54216 0.8516,-18.81157 -6.81608,-28.40328z" fill="#000000" stroke="none" stroke-width="0.5"/><path d="M291.21299,107.75901c7.66768,9.59171 9.48265,16.91332 6.80412,28.45548l-0.33929,0.00026c-11.18508,0.00602 -31.33849,-1.16782 -38.19989,-11.81216c-7.06226,-10.18874 -8.42335,-21.80211 -7.73501,-33.88818l0.14986,-0.01318c1.31339,-0.00076 2.63079,0.04513 3.94084,0.13871c14.48478,-0.07868 25.917,6.60688 35.37935,17.11906z" fill="#04ff00" stroke="none" stroke-width="0.5"/><path d="M309.07427,169.99253c-9.69875,-5.65679 -16.26132,-18.61716 -16.20213,-29.86438c0.98857,-13.37068 23.75434,-16.07721 33.59569,-10.67516c11.39803,4.33715 23.77409,18.55109 19.17622,31.69312c-4.68164,14.31731 -20.52482,16.43171 -33.15075,11.16126c-0.83606,-0.3478 -1.67243,-0.71241 -2.49385,-1.09374c-0.17689,-0.78481 -0.92516,-1.22111 -0.92516,-1.22111z" fill="#ff6e00" stroke="none" stroke-width="0.25"/><path d="M255.6103,106.85952c0,-1.48023 1.48023,-1.48023 1.48023,-1.48023l1.45233,0.04421c2.81866,0.72061 4.78981,1.02895 7.72519,1.04817c-2.25206,-2.16439 -5.075,-3.66798 -7.30864,-5.85428l-0.7289,-0.7289c0,0 -1.04667,-1.04667 0,-2.09333c1.04667,-1.04667 2.09333,0 2.09333,0l0.7289,0.7289c2.27313,2.34049 5.30699,3.8879 7.65325,6.1955c2.43949,2.45051 5.24241,4.80069 8.04186,7.21153c0,-2.78384 0,-5.56768 0,-8.35151v-0.36445c0,0 0,-1.48023 1.48023,-1.48023c1.48023,0 1.48023,1.48023 1.48023,1.48023c0,3.64907 0,7.64034 0,11.31066c4.01357,3.60971 7.74282,7.46992 10.04804,12.08042c0,0 0.66199,1.32393 -0.66199,1.98591c-0.51564,0.25782 -1.75529,0.15626 -1.75529,0.15626c-4.34478,0 -8.36364,-0.7665 -12.63432,-1.4779l-1.16775,-0.77783c0,0 -1.04667,-1.04667 0,-2.09333c1.04667,-1.04667 2.09333,0 2.09333,0l-0.4389,-0.04897c3.59177,0.59895 6.99162,1.2489 10.58035,1.40336c-1.57205,-2.13979 -3.52389,-3.73547 -5.38201,-5.89779c-3.66979,-4.27059 -11.15713,-10.36725 -11.15713,-10.36725c-3.27039,0 -8.31303,-0.44103 -11.4078,-1.19307l-0.73432,0.04421c0,0 -1.48023,0 -1.48023,-1.48023z" fill="#039a00" stroke="none" stroke-width="0.5"/><path d="M324.71743,222.85166c1.56525,-0.78262 2.34787,0.78262 2.34787,0.78262l0.35142,1.11596c-0.00512,6.5258 0.95356,13.32802 1.97903,19.72988c0.49167,3.06942 -0.016,6.46358 1.08227,9.33873c0,0 0.05336,0.14672 0.08436,0.36844c7.10721,7.99793 30.26078,12.58962 20.14621,2.40363c-3.33038,-2.32577 -7.60636,-4.63532 -11.68721,-4.93004l-1.94774,-0.16231c-0.59425,-0.02185 -0.97537,-0.2529 -1.2198,-0.54029c-0.26619,-0.26755 -0.46485,-0.66674 -0.43709,-1.26111c0.00448,-3.92556 0.5047,-7.76369 0.66815,-11.68631c0.279,-6.69565 -0.33485,-13.4006 -0.33485,-20.09394v-0.5c0,0 0,-1.75 1.75,-1.75v-0.00001c1.75,0 1.75,1.75 1.75,1.75v0.5c0,6.74211 0.61285,13.49434 0.33182,20.2394c-0.13972,3.35359 -0.53274,6.64778 -0.63861,9.98592l0.36878,0.03073c4.86914,0.44756 9.6694,2.94797 13.64612,5.73664c14.10755,14.02792 -13.40371,15.81461 -25.10846,2.49304c0,0 -0.36646,-0.41881 -0.4499,-0.99074c-0.14607,-0.21821 -0.21106,-0.39695 -0.21106,-0.39695c-1.93511,-5.52317 -1.20014,-12.25109 -1.92558,-18.05089c-0.07587,-0.60653 -0.15828,-1.20628 -0.2437,-1.8015c-0.36399,2.40993 -0.6677,4.82074 -0.94732,7.11903c-0.32508,2.67186 0.26807,5.40165 -0.17892,8.0878c-0.29897,1.79662 -0.95286,3.31656 -1.22304,5.06182c4.34452,2.94412 8.68618,6.34882 10.75445,11.25743c5.77442,11.90937 -22.05773,20.39151 -22.33911,-7.51051c-0.44218,-0.5992 -0.31167,-1.38224 -0.31167,-1.38224c1.99922,-11.93996 -0.3484,-23.73052 -0.35714,-35.7123c0,-2 0,-4 0,-6v-0.66667c0,0 0,-1.75 1.75,-1.75h0.00001c1.75,0 1.75,1.75 1.75,1.75c0,2 0,4.66667 0,6.66667c-0.00941,11.999 2.25393,23.74554 0.40265,35.70687c0.26401,0.46386 0.26401,0.9598 0.26401,0.9598c0,22.67386 19.08627,15.99173 15.65874,9.39495c-1.86702,-4.53814 -6.21741,-7.6141 -10.2128,-10.2722l-0.41051,-0.4739c-0.08032,-0.07453 -0.14864,-0.15505 -0.20674,-0.23865l-0.31203,-0.3602c0,0 -0.97663,-1.30218 0.20976,-2.33671c0.32155,-1.57592 0.85546,-3.0192 1.13043,-4.66579c0.43673,-2.61532 -0.15559,-5.29829 0.1544,-7.9122c0.62586,-5.27734 1.43611,-11.08336 2.70768,-16.22642l0.12793,-1.12596c0,0 0.09587,-0.76692 0.66985,-1.21771c0.14642,-0.1699 0.34682,-0.32855 0.61735,-0.46381z" fill="#000000" stroke="none" stroke-width="0.5"/><path d="M338.80931,190.07331c0.65992,6.40106 1.55439,12.78144 1.73417,19.22428c0.07194,0.6407 0.14389,1.28143 0.21583,1.92213l0.31642,1.04581c0,0 0.08525,0.30462 0.05375,0.69108c0.06081,0.08279 0.1191,0.17517 0.1742,0.27809l-0.00001,-0.00004c0.82597,1.54281 -0.71683,2.36879 -0.71683,2.36879l0.03414,-0.08255c-6.35775,5.74299 -16.10727,4.34075 -23.63933,2.17498c-2.77056,-0.79665 -5.08031,-1.29556 -7.37118,-3.14372c0,0 -1.10286,-0.91196 -0.48926,-2.08382c-0.01457,-0.52213 -0.03013,-1.07965 -0.04334,-1.55308c-0.11039,-4.06217 -0.08412,-8.17339 0.06206,-12.29539c0.01004,-0.28316 0.23538,-5.00801 0.23538,-5.00801c0.01741,-0.29847 0.03541,-0.59692 0.05399,-0.89533c0.31559,-5.06707 0.80021,-10.12281 1.42287,-15.09619c0.06565,-0.52441 0.20153,-1.5704 0.20153,-1.5704l0.18051,-1.75295l-2.51547,-1.24942c0,0 -0.42004,-0.21097 -0.62919,-0.31806l-1.49991,-1.46795c0,0 -0.14912,-0.14912 -0.29206,-0.39558c-9.24165,-6.49211 -15.03151,-18.86287 -15.07635,-30.05187c1.2085,-15.2405 24.8848,-19.45897 36.62627,-13.09257c12.66775,4.92037 24.50687,19.88495 19.92549,34.1417c-1.23124,3.63685 -3.10419,6.58204 -5.42984,8.88403c-0.21636,0.21416 -0.66068,0.56323 -0.66068,0.56323l-3.69036,2.62764l0.10595,2.44435c0,0 -0.01561,0.8262 -0.01811,1.23884c-0.01819,3.00261 0.14663,5.98915 0.39923,8.96797zM310.86535,170.2355c0.77558,0.36005 1.5597,0.70203 2.3491,1.03042c11.92131,4.97632 26.81779,3.00886 31.23816,-10.50944c4.34128,-12.40861 -7.31257,-25.76319 -18.07451,-29.8583c-9.29213,-5.10058 -30.72604,-2.57422 -31.65944,10.05028c-0.05588,10.61955 6.11843,22.79441 15.27592,28.13551c0,0 0.70375,0.41052 0.87077,1.15153zM312.57651,210.81766c0.01509,0.54083 0.03018,1.08166 0.04527,1.62249c1.61849,1.05622 3.40553,1.33886 5.34341,1.8968c5.90309,1.69958 14.586,3.43794 19.80241,-0.95705c-0.04354,-0.10386 -0.06237,-0.1711 -0.06237,-0.1711l-0.42436,-1.60124c-0.07632,-0.68901 -0.15263,-1.37801 -0.22894,-2.06702c-0.31682,-11.35426 -2.77706,-22.50607 -2.42917,-33.92181c-6.06667,2.25189 -13.23532,2.08959 -19.96885,-0.09296c-1.57935,11.54045 -2.41178,23.63589 -2.0774,35.29188z" fill="#000000" stroke="none" stroke-width="0.5"/><path d="" fill="#000000" stroke="none" stroke-width="0.5"/><path d="" fill="#ffde00" stroke="none" stroke-width="0.5"/><path d="M321.6065,155.86363c-1.75,0 -1.75,-1.75 -1.75,-1.75v-1.74972c0,-4.20574 0.04345,-8.53345 -0.42673,-12.71095c0,0 -0.19326,-1.7393 1.54604,-1.93255c1.7393,-0.19325 1.93255,1.54604 1.93255,1.54604c0.47313,4.30875 0.44814,8.76157 0.44814,13.09747v1.74972c0,0 0,1.75 -1.75,1.75z" fill="#000000" stroke="none" stroke-width="0.5"/><path d="M337.34031,152.8861c1.56525,0.78262 0.78262,2.34788 0.78262,2.34788l-0.98221,1.9351c-0.75412,0.88902 -2.42647,2.97779 -3.38117,3.58265c-8.64538,5.47739 -17.99431,0.51495 -23.90156,-6.25507c0,0 -1.13889,-1.3287 0.18982,-2.46759c1.3287,-1.13888 2.46758,0.18982 2.46758,0.18982c5.63274,6.72635 15.06019,10.66564 21.70953,3.01417l0.76751,-1.56434c0,0 0.78262,-1.56525 2.34787,-0.78263z" fill="#000000" stroke="none" stroke-width="0.5"/><path d="M326.3335,61.46117l-2.34415,-0.58068l-0.30761,0.00115l-0.29289,-0.09215l-2.4845,-0.14399l-2.66564,-0.45434l-0.29704,0.0217l-0.28879,-0.07048l-3.46641,-0.00888l-0.24225,-0.41887l-1.67595,-0.42853l-4.78077,-0.01713c-0.58402,-3.84566 -2.99618,-8.95712 -0.04655,-8.98034c3.38045,-0.02662 14.6331,-1.09848 19.26794,0.61518c2.28057,0.8432 0.42045,6.07842 -0.37539,10.55736z" fill="#ff8383" stroke="none" stroke-width="0.5"/><path d="M329.26151,154.1139c-1.75,0 -1.75,-1.75 -1.75,-1.75v-2.18715c0,-4.1498 0.16496,-8.14869 0.66966,-12.24641c0,0 0.21706,-1.73649 1.95355,-1.51943c1.73649,0.21706 1.51943,1.95355 1.51943,1.95355c-0.50284,3.95696 -0.64263,7.80589 -0.64263,11.81229v2.18715c0,0 0,1.75 -1.75,1.75z" fill="#000000" stroke="none" stroke-width="0.5"/><path d="M354.10054,44.41788c-0.74536,2.23607 -1.67705,2.70192 -3.91312,1.95656c-5.37162,-1.79054 -3.05024,-11.07195 -17.41127,-10.34631c-8.65631,0.43739 -9.4452,5.30491 -12.19478,10.06872c3.87231,0.20472 7.35853,0.81676 8.36734,2.25948c1.15872,1.65711 1.72141,9.3158 0.37562,13.6535l0.15099,0.0671l0.10128,0.07912l0.12372,0.0348l0.875,0.5l0.01974,0.01892l0.02615,0.00796l1.01468,0.60881l0.48965,0.16322l0.28172,0.17927l0.31447,0.11231l0.75,0.5l0.10312,0.11343l0.13711,0.06856l0.81317,0.697l0.93485,0.70114l0.07579,0.09328l0.10589,0.05687l1.375,1.25l0.03381,0.05072l0.05227,0.03136l1.125,1.125l0.03868,0.06446l0.06208,0.0424l0.91161,1.02556l1.27655,1.1605l0.13268,0.19902l0.18564,0.15083l0.73684,0.98246l0.86154,1.10769l0.07881,0.17835l0.13321,0.14239l0.61227,1.10208l0.86179,1.47735l0.06328,0.21754l0.12675,0.18778l0.46672,1.28349l0.58471,1.28636l0.01068,0.05812l0.0346,0.04791l0.5,1.25l0.01963,0.14396l0.07109,0.12672l0.33267,1.21977l0.53,1.272l0.71149,1.42299l0.02666,0.11999l0.07063,0.1006l0.625,1.625l0.01381,0.11248l0.05663,0.09816l0.49548,1.73419l0.37027,1.23425l0.00745,0.16025l0.06397,0.14712l0.25,1.5l-0.01666,0.20829l0.05068,0.20271v7l-0.02803,0.11213l0.01777,0.11421l-0.12415,1.36564l-0.12422,1.49063l-0.07453,0.21895l-0.00492,0.23123l-0.375,1.375l-0.01584,0.02824l-0.0015,0.03234l-0.3059,1.01967l-0.10107,1.01072l-0.09445,0.2631l-0.02144,0.27871l-0.34464,1.03391l-0.22671,0.90685l-0.16171,0.30321l-0.09304,0.3308l-0.5,0.875l-0.1093,0.11406l-0.0613,0.1456l-0.70837,0.94449l-0.46151,0.69226l-0.0387,0.03518l-0.01959,0.0485l-1,1.375l-0.07813,0.06541l-0.04557,0.09114l-0.75,0.875l-0.13394,0.09506l-0.09179,0.1362l-1.12965,1.01668l-0.64462,0.75206l-0.23932,0.16984l-0.18839,0.22502l-1.29426,0.94128l-0.7263,0.62254l-0.68211,0.68211l-0.34461,0.20676l-0.30513,0.26154l-0.36079,0.18039l-0.41452,0.27635l-0.57496,0.57496l-0.01218,0.00731l-0.01236,0.04394l-0.54787,0.2922l-0.53244,0.31946l-0.04404,-0.01201l-0.01254,0.00669l-0.73376,0.18344l-0.75454,0.37727l-0.10356,0.02301l-0.086,0.06211l-1.25,0.5l-0.02767,0.00377l-0.02299,0.01586l-1,0.375l-0.08548,0.00977l-0.07395,0.04397l-1.25,0.375l-0.24179,0.01125l-0.22782,0.08178l-0.92591,0.09259l-0.69504,0.26064l-0.20293,0.02319l-0.18459,0.08744l-1.25,0.25l-0.07095,-0.00338l-0.06578,0.0268l-1.68131,0.24019l-1.09752,0.2195l-1.29193,0.35234l-0.33384,0.0071l-0.32395,0.08099h-1.39601l-1.39637,0.11636l-0.1047,-0.01709l-0.10292,0.02573h-4.5l-0.13657,-0.03414l-0.13951,0.01885l-1.125,-0.125l-0.29212,-0.1085l-0.30961,-0.03538l-0.86667,-0.325l-0.78285,-0.19571l-1.29488,-0.23543l-0.04535,-0.02052l-0.04976,0.00131l-1.125,-0.25l-0.15894,-0.07947l-0.17655,-0.02018l-1,-0.375l-0.1099,-0.07579l-0.13032,-0.02896l-2,-1l-0.09187,-0.07874l-0.1151,-0.03733l-0.95817,-0.59886l-0.83218,-0.47553l-0.24109,-0.23104l-0.28633,-0.1718l-0.81614,-0.81614l-0.86646,-0.75815l-0.92464,-0.69348l-0.15474,-0.19045l-0.20349,-0.13714l-1.125,-1.25l-0.00843,-0.01589l-0.01477,-0.01026l-0.82019,-0.93735l-1.06614,-1.06614l-0.03868,-0.06446l-0.06208,-0.0424l-1,-1.125l-0.00466,-0.00891l-0.00826,-0.00574l-0.875,-1l-0.14617,-0.28502l-0.20846,-0.2432l-0.48157,-0.96314l-0.6638,-0.75863l-0.17159,-0.3346l-0.2315,-0.29632l-0.49573,-1.1154l-0.62065,-1.36544l-0.02412,-0.13131l-0.07167,-0.11263l-0.375,-1.125l-0.01521,-0.19772l-0.07907,-0.18186l-0.21216,-1.27296l-0.42134,-1.15868l-0.01711,-0.16429l-0.07387,-0.14774l-0.25,-1.125l0.00362,-0.1374l-0.04786,-0.12885l-0.09057,-0.81516l-0.26554,-0.70811l-0.05076,-0.44413l-0.10842,-0.43368v-0.71936l-0.10569,-0.84556l0.00212,-0.01749l-0.00613,-0.01652l-0.125,-1.125l0.01885,-0.13951l-0.03414,-0.13657v-6.875l0.05068,-0.20271l-0.01666,-0.20829l0.25,-1.5l0.04063,-0.09345v-0.1019l0.36057,-1.44229l0.34972,-1.74862l0.24019,-1.68131l0.05693,-0.13973l0.00236,-0.15087l0.49497,-1.85613l0.49526,-1.98105l0.09967,-0.18688l0.0353,-0.20883l0.82955,-1.89611l0.58914,-1.76742l0.09661,-0.15181l0.03903,-0.17566l1.31071,-2.62142l0.45087,-1.2399l0.11215,-0.16614l0.05194,-0.19361l0.625,-1.125l0.01059,-0.01132l0.0042,-0.01492l1,-1.75l0.06089,-0.06353l0.0296,-0.08287l0.5,-0.75l0.05256,-0.04778l0.02757,-0.06547l0.23975,-0.31966l0.27419,-0.54837l0.26154,-0.30513l0.20676,-0.34461l2.5,-2.5l0.12071,-0.07243l0.08532,-0.11198l0.625,-0.5l0.33474,-0.15342l0.29852,-0.2156l0.625,-0.25l0.07449,-0.01016l0.06342,-0.04036l1.5,-0.5l0.40069,-0.03082l0.38988,-0.09747h0.34431l0.03789,-0.01263c0.08222,-0.24211 0.20052,-0.46756 0.34851,-0.66992c-1.06154,-3.95025 -1.31208,-9.56972 0.77607,-11.2198c0.37589,-0.29703 1.08525,-0.65823 1.63689,-0.73134c0.64495,-0.08547 3.30882,-0.32327 6.55407,-0.42238c4.39098,-25.11692 43.19252,-11.76151 39.81785,-1.63751zM324.60612,51.98772c-3.4842,-1.28821 -11.85493,-0.47961 -14.39615,-0.4596c-2.21736,0.01746 -0.40071,3.8174 0.03832,6.70833h3.58668l1.25,0.3125l0.17857,0.3125h2.57143l0.21421,0.05355l0.22026,-0.01551l1.98667,0.35059l1.85981,0.11624l0.21979,0.06978h0.2306l1.75988,0.43997c0.59827,-3.36699 1.99433,-7.25448 0.27993,-7.88835zM307.953,63.47253l-0.14152,0.03145l-0.06361,0.03816l-0.04855,-0.01324l-0.11089,0.02464l-0.34248,0.1489l-0.55652,0.09275l-0.56391,0.18797l-0.40069,0.03082l-0.38988,0.09747h-0.34431l-1.04543,0.34848l-0.21282,0.08513l-0.22759,0.18207l-2.11522,2.11522l-0.19357,0.38714l-0.14789,0.17253l-0.08818,0.20943l-0.33337,0.44449l-0.41375,0.62062l-0.94981,1.66216l-0.52137,0.93847l-0.43222,1.18862l-0.08173,0.12108l-0.03169,0.1426l-1.29554,2.59109l-0.56882,1.70645l-0.06205,0.09751l-0.01926,0.11397l-0.79092,1.80781l-0.44912,1.79648l-0.00946,0.01773l-0.00031,0.02009l-0.46172,1.73146l-0.22899,1.60294l-0.0268,0.06578l0.00338,0.07095l-0.375,1.875l-0.0261,0.05509v0.06096l-0.35079,1.40314l-0.19957,1.19743v6.52963l0.10782,0.97037l0.12288,0.98301l-0.01901,0.15683l0.03831,0.15326v0.42166l0.21582,0.57553l0.03538,0.30961l0.1085,0.29212l0.11008,0.99068l0.18535,0.83409l0.44434,1.22195l0.02403,0.23067l0.09247,0.21269l0.21775,1.30652l0.27148,0.81443l0.5707,1.25554l0.00195,0.01064l0.00666,0.00852l0.34623,0.77902l0.62568,0.71507l0.14617,0.28502l0.20846,0.2432l0.48157,0.96314l0.65737,0.75128l0.9447,1.06279l1.07305,1.07305l0.04378,0.07297l0.06989,0.04854l0.86349,0.98684l0.95017,1.05574l0.8049,0.60368l0.06066,0.07466l0.0856,0.0439l1,0.875l0.04854,0.06989l0.07297,0.04378l0.63826,0.63826l0.58432,0.3339l0.03653,0.035l0.04812,0.01561l0.89928,0.56205l1.7764,0.8882l0.71289,0.26733l0.90639,0.20142l1.32726,0.24132l0.07586,0.03432h0.08326l1,0.25l0.12769,0.0681l0.14378,0.01643l0.70811,0.26554l0.67755,0.07528h4.25755l1.39637,-0.11636l0.1047,0.01709l0.10292,-0.02573h1.1652l1.052,-0.28691l0.08798,-0.00187l0.07953,-0.03767l1.25,-0.25l0.07095,0.00338l0.06578,-0.0268l1.68131,-0.24019l0.98372,-0.19674l0.81071,-0.30402l0.32303,-0.03692l0.30602,-0.10985l1.01072,-0.10107l0.93904,-0.28171l0.89574,-0.3359l1.12822,-0.45129l0.90699,-0.4535l0.26876,-0.05973l0.24293,-0.12956l0.32822,-0.08205l0.26036,-0.26036l0.21352,-0.12811l0.1675,-0.18425l0.75,-0.5l0.14877,-0.05313l0.11994,-0.10281l0.13714,-0.06857l0.46313,-0.46313l0.08406,-0.05043l0.05673,-0.07994l0.875,-0.75l0.09114,-0.04557l0.06541,-0.07813l1.138,-0.82764l0.55929,-0.6525l0.13394,-0.09506l0.09179,-0.1362l1.12965,-1.01668l0.57965,-0.67626l0.91128,-1.25301l0.47171,-0.70757l0.05256,-0.04778l0.02757,-0.06547l0.65661,-0.87548l0.25167,-0.44043l0.16636,-0.66542l0.04613,-0.08649l0.00752,-0.09774l0.28685,-0.86056l0.09726,-0.97263l0.08178,-0.22782l0.01125,-0.24179l0.36595,-1.21982l0.30632,-1.12316l0.10594,-1.27126l0.00312,-0.00916l-0.00149,-0.00956l0.11473,-1.26206v-6.67969l-0.18999,-1.13996l-0.32957,-1.09857l-0.00079,-0.01691l-0.00846,-0.01466l-0.46946,-1.64311l-0.54177,-1.4086l-0.69603,-1.39206l-0.01909,-0.0859l-0.05254,-0.07059l-0.625,-1.5l-0.02436,-0.16139l-0.07986,-0.14235l-0.33738,-1.23706l-0.42549,-1.06371l-0.60114,-1.32251l-0.01796,-0.09776l-0.05561,-0.08239l-0.4232,-1.1638l-0.76176,-1.30588l-0.00753,-0.02588l-0.01842,-0.01969l-0.53136,-0.95645l-0.75663,-0.9728l-0.00912,-0.02063l-0.0175,-0.01422l-0.60746,-0.80995l-1.19922,-1.0902l-0.07507,-0.11261l-0.11177,-0.07633l-0.95119,-1.07009l-1.03099,-1.03099l-1.24368,-1.13062l-0.90562,-0.67921l-0.05251,-0.06462l-0.07447,-0.03724l-0.76038,-0.65175l-0.34583,-0.23055l-0.43239,-0.14413l-0.23228,-0.14781l-0.26339,-0.08016l-1.2272,-0.73632l-0.74229,-0.42416l-0.98285,-0.43682l-1.47296,-0.61373l-0.04303,-0.03202l-0.05265,-0.01022l-1.65725,-0.77338l-1.54487,-0.38622l-1.77161,-0.11073l-0.13609,-0.0432l-0.14243,0.01003l-1.90943,-0.33696h-3.2811l-0.17457,-0.04364l-0.17899,0.01852l-0.875,-0.125l-0.12154,-0.04952h-0.13124l-0.5,-0.125l-0.56317,-0.30036h-1.99859l-0.54591,0.09098l-0.20829,-0.01666l-0.20271,0.05068h-0.65983z" fill="#000000" stroke="none" stroke-width="0.5"/><path d="M347.95997,44.90312v-4.875l0.09188,-0.36751l0.02192,-0.37818l0.625,-2l0.01263,-0.0207l0.00186,-0.02418l0.875,-2.625l0.09661,-0.15181l0.03903,-0.17566l0.5,-1l0.13598,-0.15865l0.07824,-0.19375l1,-1.375l0.25698,-0.21515l0.20312,-0.26659l0.59192,-0.47354l0.84284,-0.72243l0.07447,-0.03724l0.05251,-0.06462l0.5,-0.375l1.1875,-0.5l0.08037,0.03475l0.04039,-0.02739l1.08738,0.51507l1.10436,0.47756l0.00605,0.04842l0.07913,0.03748l0.40745,1.22235l0.12044,1.56569l0.24262,1.94097l-0.00382,0.03148l0.01071,0.02985l0.25,2.5l-0.00308,0.02103l0.00685,0.02012l0.24922,2.99063l0.24534,2.69869l0.24478,1.9582l-0.00734,0.06052l0.01928,0.05783l0.10824,1.40717l2.20752,-0.0849l3.15504,-0.36404l0.04846,0.00634l0.04636,-0.01545l3.25,-0.25l0.09664,0.01641l0.0951,-0.02377h3.125l0.29857,0.07464h0.30776l0.5,0.125l0.01254,0.00669l0.04404,-0.01201l0.53244,0.31946l0.54787,0.2922l0.01236,0.04394l0.01218,0.00731l0.375,0.375l0.25375,0.42292l0.16598,0.09485l0.07791,0.31164l0.16527,0.27545l-0.0503,0.18443l0.11962,0.47848v0.75l-0.00345,0.01378l0.02233,0.03981l-0.18079,0.59402l-0.1506,0.60238l-0.03963,0.02265l-0.00414,0.01359l-0.75,1.25l-0.13821,0.13821l-0.08497,0.17602l-1.25,1.5l-0.20496,0.14978l-0.15385,0.20193l-1.875,1.5l-0.15496,0.07102l-0.12054,0.12054l-1.875,1.125l-0.05697,0.01734l-0.04402,0.04011l-1.625,0.875l-0.33435,0.08501l-0.30857,0.15428l-1.05222,0.23383l-0.66539,0.19011l-0.04962,0.07797l-0.03903,0.17566l-0.59215,1.18429l-0.70905,1.65446l-0.48868,1.2217l-0.06211,0.086l-0.02301,0.10356l-0.37727,0.75454l-0.05844,0.23376l-0.00669,0.01254l0.01201,0.04404l-0.31946,0.53244l-0.2922,0.54787l-0.04394,0.01236l-0.00731,0.01218l-0.375,0.375l-0.63287,0.37972l-0.08725,0.12241l-0.10198,-0.00887l-0.28275,0.16965l-1.04557,-0.28516l-1.07968,-0.09389l-0.20667,-0.25694l-0.09876,-0.02694l-0.03955,-0.14502l-0.46258,-0.5751l-0.71985,-1.55967l-0.96614,-1.81151l-0.04039,-0.16157l-0.09455,-0.1371l-0.75,-2l-0.01055,-0.09229l-0.04704,-0.0801l-0.625,-2.125l-0.00216,-0.05261l-0.02478,-0.04646l-0.47025,-1.88101l-0.46891,-1.31295l-0.08786,0.00187l-0.1004,0.04542l-1.375,0.25l-0.04858,-0.00317l-0.04508,0.01837l-1.75,0.25l-0.06526,-0.00675l-0.06195,0.02161l-1.375,0.125l-0.11421,-0.01777l-0.11213,0.02803h-1l-0.17457,-0.04364l-0.17899,0.01852l-0.875,-0.125l-0.37217,-0.15163l-0.39231,-0.08718l-0.40699,-0.2035l-0.52845,-0.21138l-0.212,-0.15311l-0.24627,-0.08795l-0.2455,-0.16366l-0.36079,-0.18039l-0.30513,-0.26154l-0.34461,-0.20676l-0.25,-0.25l-0.06535,-0.10891l-0.0132,-0.01132l-0.00065,-0.01178l-0.58371,-0.97285l0.07661,-0.2809l-0.16151,-0.24226l0.22314,-1.00412l-0.01324,-0.04855l0.03816,-0.06361l0.03145,-0.14152l0.125,-0.25l0.26154,-0.30513l0.20676,-0.34461l0.38466,-0.38466l0.00551,-0.02754l0.06058,-0.03855l0.04926,-0.04926l0.49257,-0.29554l0.48463,-0.3084l0.06609,-0.02203l0.06157,-0.03694l0.02709,0.00739l1.14055,-0.38018l1.43502,-0.7727l0.07108,-0.01807l0.05695,-0.04621l1.875,-0.875l0.05265,-0.01022l0.04303,-0.03202l0.46455,-0.19356c-0.002,-0.041 -0.00301,-0.08225 -0.00301,-0.12375z" fill="#ffb800" stroke="none" stroke-width="0.5"/><path d="M309.87239,174.78329c0.07838,0.39717 -4.8576,5.06776 -4.92495,8.06441c-0.09774,4.34878 2.61125,9.39365 1.48722,9.21027c-4.47285,-0.72973 -4.84373,-1.36426 -8.1118,-2.9983c-14.01539,-6.29303 -19.36244,-26.67377 -20.19842,-40.04943c0.00365,-7.6632 11.21524,-29.24144 11.08359,-29.74716c-0.76873,-2.95307 -5.2049,-5.69988 -6.17201,-9.89299c2.58604,-6.37377 8.55975,-4.48313 12.21121,-0.23788c2.49435,2.89997 3.26359,7.64708 3.65969,8.65666c0.30175,0.76911 0.34634,1.18846 0.86364,1.83264c0.54872,0.68332 1.0411,0.78865 1.80918,1.21063c1.39668,0.76731 14.11931,1.88412 15.9338,2.01094c-0.7348,0.32274 1.85773,2.96538 1.45745,4.39395c-0.18072,0.64496 -2.72693,0.4041 -3.40463,0.70335c-1.91896,0.84735 -6.22723,-2.62819 -9.10185,-1.81714c-1.09845,0.30992 -1.5596,3.23913 -2.22834,3.86539c-5.37554,5.03413 -6.54974,12.93023 -6.9189,15.27442c-1.01027,6.16554 -1.08584,10.45215 0.62107,14.79683c2.53683,6.45712 6.40059,11.57218 14.09089,15.8384z" fill="#ffde00" stroke="none" stroke-width="0.5"/><path d="M311.95304,176.84413c-12.86473,-7.13676 -18.55975,-16.80253 -16.048,-32.13136c0.67172,-4.2655 4.95071,-17.90659 10.20091,-20.21258c-1.81449,-0.12681 -3.53897,-0.4461 -4.93565,-1.21341c-0.76808,-0.42198 -1.35676,-1.12813 -1.90548,-1.81145c-0.5173,-0.64419 -0.96035,-1.36404 -1.2621,-2.13315c-0.97593,-2.48749 -8.99579,-20.05073 -13.34838,-9.32296c0.96711,4.19311 6.49893,6.34017 7.26766,9.29324c0.13165,0.50572 -10.93787,20.63601 -10.94152,28.29921c0.83598,13.37566 3.72522,33.00036 17.74061,39.29339c3.26807,1.63404 8.13538,3.8748 12.60823,4.60453c1.89858,0.30974 0.81583,-13.6919 0.62372,-14.66545zM309.56502,124.57473c1.80948,0.62323 3.89221,1.7793 5.47776,2.13806c5.11134,1.15653 2.99159,-1.08093 -0.9668,-2.07863c-1.35311,-0.10862 -2.90954,-0.07171 -4.51096,-0.05943zM313.13754,175.14325l0.66877,0.38828c0.56688,0.04768 -0.00331,3.00087 -0.54796,7.36163c-0.6882,5.51012 -0.43192,12.16854 -2.3152,11.90723c-4.90058,-0.67997 -9.94338,-2.84354 -13.72907,-4.73639c-15.29816,-7.02743 -18.80557,-27.52223 -19.73188,-42.3431c-0.00343,-7.62872 1.96125,-12.02905 5.38404,-18.59756c1.19784,-2.29872 2.3228,-4.72566 3.78225,-6.86218c0.49986,-0.73176 2.67297,-1.23561 1.97419,-1.78063c-3.9895,-3.11157 -6.409,-5.09032 -7.45367,-10.78131c2.87385,-7.21493 11.03211,-6.80024 16.00307,-1.77157c2.76362,2.7957 2.51459,10.76314 5.62261,12.2589c3.20001,1.54003 8.35111,0.69343 11.85294,0.99463c3.94882,0.9796 11.84267,3.25028 5.04221,8.19599c-3.76668,2.73936 -8.50908,-0.55564 -12.06864,-1.70899c-0.67481,-0.21865 -0.94837,1.06753 -1.30615,1.68004c-2.94558,5.04272 -6.07434,10.03974 -6.95407,15.91837c-2.37052,13.95469 2.76497,22.2658 14.50052,28.63317c0,0 0.66154,0.36084 0.87963,1.04305z" fill="#000000" stroke="none" stroke-width="0.5"/><path d="M338.87948,179.24945c0.43619,-0.25374 0.84988,-2.82641 1.25178,-3.10497c9.69308,-6.71842 8.05413,-20.50353 8.05413,-32.11041c-0.01207,-1.88967 -2.7791,-8.66017 -3.95994,-14.42862c-1.11179,-5.43115 -0.27786,-7.71218 -2.19893,-8.18162c-0.30593,-0.07476 -3.1227,1.18469 -5.30631,1.84176c-2.68785,0.80881 -4.97517,-1.44839 -3.26832,-5.39932c0.43235,-1.00078 1.75322,-1.81764 2.36329,-2.72114c3.27176,-2.21843 7.43731,-0.37739 10.93936,-3.11293c0.50954,-0.39801 2.93521,-8.96534 5.64807,-10.89616c1.464,-1.04197 3.722,0.63017 4.19849,4.79191c0.1473,1.28657 -0.25669,2.59821 -0.39963,3.88527c-0.00418,0.03764 0.60035,0.26507 0.60825,0.45134c0.03873,0.91354 -1.31253,3.04739 -1.36044,3.20556c-0.96322,0.92542 -4.10266,2.68888 -4.45659,3.68939c-1.40519,3.97227 3.24662,4.06883 4.21675,7.12563c2.59498,8.17655 2.32961,20.13619 2.30868,28.63378c0.88345,10.69464 0.31277,32.23598 -13.09777,35.88323c-2.14843,0.398 3.36942,1.47901 0.64216,1.05958c-1.56576,-0.24079 -4.86141,-11.39372 -3.85421,-11.16075l-1.72041,0.87725c0,0 -0.08749,1.44579 0.25571,-0.27023c0.01801,-0.09009 0.00598,-0.58054 0.01319,-0.66322z" fill="#ffde00" stroke="none" stroke-width="0.25"/><path d="M335.4241,175.02083c11.42831,-5.03105 10.81255,-19.42749 10.81255,-30.70031c0.01906,-2.36413 -4.11168,-21.00197 -5.36595,-21.55527c-0.2419,-0.10671 -0.08105,0.5543 -0.25926,0.74959c-4.76923,5.22631 -11.33825,-0.46061 -8.95327,-6.4856c0.56753,-1.43371 1.82558,-2.48556 2.72589,-3.73738c3.66242,-2.4231 8.14288,-0.49158 11.52895,-2.97731c3.13578,-2.30199 -0.11816,-7.64805 3.24904,-10.4587c9.08226,-7.58108 9.7524,10.64466 8.17578,15.10559c-0.6165,0.62821 -4.38722,2.55105 -4.58951,2.83682c-0.47609,0.67257 1.17568,1.15625 1.72824,1.76755c2.07681,2.29757 2.93316,4.88966 3.43153,7.89453c1.30649,7.87733 0.84238,17.03083 0.8606,24.98456c1.08006,12.84097 2.05835,35.64795 -13.57339,39.92101c-2.05482,0.36811 -4.6932,0.58053 -7.31654,0.40404c-3.1759,-0.21366 0.38518,-4.50514 -1.68456,-6.27261c-1.08293,-0.92478 1.47173,-2.81832 1.08424,-5.11584c-0.52295,-3.10074 -3.60571,-6.608 -1.85432,-6.36067zM337.36318,177.49374c-0.00721,0.08268 -0.82135,0.77033 -0.83936,0.86042c-0.3432,1.71602 0.24592,0.4708 0.24592,0.4708l-0.85991,-0.17215c-1.0072,-0.23297 -0.92245,10.21751 0.6433,10.4583c2.72727,0.41942 5.71952,0.2395 7.86795,-0.1585c13.41054,-3.64725 11.73409,-25.66762 10.85064,-36.36226c0.02093,-8.49759 1.01039,-19.78172 -1.58459,-27.95827c-0.97013,-3.0568 -5.51038,-4.35289 -4.10519,-8.32516c0.35393,-1.00051 3.81539,-2.26012 4.77861,-3.18554c0.05767,-0.19043 0.90045,-2.93762 0.92514,-3.15987c0.14295,-1.28706 0.1473,-2.59835 0,-3.88492c-1.35944,-11.87359 -6.44833,6.39483 -7.23284,7.00763c-3.50205,2.73554 -7.95044,0.49204 -11.2222,2.71047c-0.61007,0.9035 -1.52582,1.61877 -1.95817,2.61955c-3.0935,7.16066 6.16459,0.78873 6.8471,0.95551c3.96145,0.96803 7.99366,21.28192 8.01708,24.95076c0,11.60688 0.07974,25.35536 -9.61333,32.07378c-0.4019,0.27856 -3.52662,2.24883 -3.96282,2.50257z" fill="#000000" stroke="none" stroke-width="0.5"/><path d="M357.46685,51.04713c-1.56525,-0.78262 -0.78262,-2.34787 -0.78262,-2.34787l0.33614,-0.55783c-0.23666,-0.50898 -0.17433,-1.03876 -0.17433,-1.03876c0.01564,-0.13158 0.03069,-0.26546 0.04545,-0.40131c-0.4037,0.23982 -0.97282,0.35742 -1.68499,-0.04954c-1.51943,-0.86824 -0.65118,-2.38767 -0.65118,-2.38767l0.73249,-1.2735c1.45759,-2.18226 3.68941,-5.6293 6.20022,-6.6927c1.44975,-0.61401 3.13186,-1.78399 4.57812,-1.16182c1.09046,0.4691 0.63189,2.29582 0.79214,3.47204c0.38511,2.82659 0,6.00598 0,8.86626c0,0 0,1.75 -1.75,1.75c-1.75,0 -1.75,-1.75 -1.75,-1.75c0,-0.05263 0,-0.10525 0,-0.15788c-0.83048,0.7699 -1.883,1.48946 -2.77238,1.24485l-0.77117,1.70311c0,0 -0.78262,1.56525 -2.34787,0.78262z" fill="#ffb800" stroke="none" stroke-width="0.5"/></g></g></svg>