<svg version="1.1" xmlns="http://www.w3.org/2000/svg" xmlns:xlink="http://www.w3.org/1999/xlink" width="292.42447" height="162.88439" viewBox="0,0,292.42447,162.88439"><g transform="translate(-134.2638,-144.70459)"><g stroke="none" stroke-miterlimit="10"><path d="M379.93955,301.85805c-4.14795,1.64685 -7.55191,3.31547 -11.78888,3.83591c0.01088,0.25247 -0.04076,0.53935 -0.18734,0.86183c-0.72416,1.59314 -2.3173,0.86899 -2.3173,0.86899c-1.39838,-0.63565 -2.83528,-1.46448 -4.26237,-2.44565l-0.61189,0.01863c0,0 -1.75,0 -1.75,-1.75c0,-0.01288 0.00009,-0.02568 0.00028,-0.03837c-7.08739,-5.75513 -13.23734,-14.82698 -12.19906,-21.93196c-11.70631,-0.71121 -23.4193,-0.82658 -35.19988,-0.82658c-12.69669,0 -25.35656,-0.30356 -38.03107,-0.55106c-1.75926,9.62536 -9.99791,18.75372 -18.72053,23.98729c-19.16705,11.44532 -40.19094,-5.68485 -31.44907,-25.62248c-9.3867,-0.25592 -18.74974,-0.71843 -27.97266,-3.02416c-4.36187,-0.87155 -9.98276,-2.73366 -14.46522,-2.55559c-6.01605,0.239 -16.66862,14.18221 -32.62987,10.26499c-21.3944,-8.6952 -14.39036,-34.24343 -5.30212,-49.44783c6.61069,-13.0858 29.48874,-29.35991 44.382,-29.31752c14.54113,5.15455 -13.61743,42.96444 -7.85674,41.76309c16.8779,-0.02792 29.26055,-5.04234 45.18356,-9.01032c0.24199,-0.03993 0.48398,-0.07986 0.72598,-0.11979c0.03118,-0.96981 1.00099,-1.45471 1.00099,-1.45471c13.43011,-6.70903 25.50375,-14.00296 36.15024,-24.64975c12.6356,-12.60882 24.27118,-24.81597 34.249,-39.80687c7.26922,-10.14753 16.80593,-17.56096 26.65976,-24.95284l0.67386,-0.69873c0,0 0.8906,-0.8906 1.91624,-0.40516c0.05979,-0.0202 0.12264,-0.03864 0.1887,-0.05516c1.69775,-0.42444 2.12219,1.27331 2.12219,1.27331c3.49481,13.98327 9.99492,27.15277 9.94404,41.98344c1.22666,4.90664 0.44376,10.68576 0.44376,15.71714c0,6.28928 1.00117,13.61098 -0.46635,19.735c14.81468,1.81214 30.03313,1.30169 44.96809,1.34784c13.26565,2.65313 43.24712,-6.08175 43.35038,15.95286c-0.0194,5.29843 -1.9581,11.15587 -7.80765,12.46938c-2.12163,0.47641 -5.12183,0.04681 -7.29243,0.04681h-0.87191c0.00768,0.1392 0.01955,0.27427 0.03802,0.40324c1.16365,8.12496 3.41964,17.57394 3.44518,25.83886c0,0 0,0.12946 -0.03521,0.31797c4.65746,2.4271 8.05172,4.87429 8.64817,7.00304c-1.43364,4.34087 -16.92923,3.36256 -31.04188,1.41572c-0.09906,4.24902 -2.7076,8.60006 -8.68878,12.21015c-0.8976,0.36141 -1.76208,0.65172 -2.60758,0.88824zM359.59498,271.38108c15.26885,-3.02945 28.75505,4.23849 31.61928,13.1713c4.47568,0.55536 8.93292,1.01607 13.22536,1.45057c1.75114,0.17726 15.26936,2.18949 14.87282,0.88019c-0.31619,-2.48156 -34.93756,-14.76749 -39.83122,-16.03977c-10.05142,-5.95352 -36.33389,-13.39737 -44.90164,-22.99183l-0.61602,0.46201l-1.28134,-1.70845c-0.22618,-0.29487 -0.36061,-0.66381 -0.36061,-1.06414c0,-0.9665 0.7835,-1.75 1.75,-1.75h2.15324c7.84527,0.01517 15.78927,1.74657 23.52259,3.03512c5.45503,0.78751 10.95887,1.3829 16.48754,1.82667c1.63498,-0.86527 3.35201,-1.61957 4.21654,-1.2565c0.69271,0.29091 1.23805,0.87731 1.68024,1.67363c9.09256,0.5597 18.22894,0.75015 27.3032,0.75015h2.15324c1.88663,0 4.63112,0.45301 6.4883,0.04681c4.15401,-0.90856 5.12749,-5.409 5.11178,-9.06301c0.10112,-18.27763 -29.3839,-10.30762 -40.19527,-12.46989c-15.89627,0.05614 -32.1636,0.5095 -47.87694,-1.73166c0,0 -1.73241,-0.24749 -1.48492,-1.9799c0.11776,-0.82433 0.57173,-1.20038 1.01528,-1.36813c0.00827,-0.01848 0.01318,-0.0283 0.01318,-0.0283l0.29815,-0.50311c1.49041,-5.75583 0.3784,-13.00997 0.3784,-18.95471c0,-4.89834 0.77659,-10.513 -0.41754,-15.2895c-0.04518,-14.0467 -5.82202,-26.47739 -9.36928,-39.65183c-9.50523,7.12848 -18.79271,14.25242 -25.78123,24.06748c-10.11089,15.14289 -21.90377,27.5138 -34.65462,40.2936c-10.10178,10.1015 -21.46556,17.28387 -34.00913,23.75578c0.28231,0.25859 0.50052,0.65833 0.50052,1.27629c0,1.75 -1.75,1.75 -1.75,1.75l-2.0089,-0.00596c-0.79063,0.13331 -1.58125,0.26663 -2.37188,0.39994c-16.21038,4.06667 -28.89647,9.10263 -46.11375,9.07689c-1.61457,-0.42937 -3.76145,-0.01536 -4.84372,-1.28811c-1.50785,-1.77322 10.98532,-25.72018 12.35284,-29.48318c0.61597,-1.69498 2.11566,-11.4281 0.13746,-11.01126c-13.35228,0.05318 -35.07386,15.76617 -40.88624,27.52797c-7.75789,12.87827 -15.79692,36.95948 3.31084,44.43337c14.25165,3.65849 22.01762,-9.49514 31.10599,-10.4061c4.61882,-0.46296 11.19634,1.7146 15.68012,2.61219c9.64853,2.41213 19.45753,2.77473 29.28572,3.0145c2.93105,-4.06118 6.32602,-7.71887 10.5671,-10.29401c-5.29514,1.83068 -10.04535,4.02344 -13.099,5.76918c0,0 -1.51943,0.86824 -2.38767,-0.65118c-0.86824,-1.51943 0.65118,-2.38767 0.65118,-2.38767c10.78648,-6.16097 36.30524,-15.37357 46.46239,-5.31643c4.47462,4.53249 6.29023,9.49122 6.23809,14.42775c12.55955,0.24831 25.10434,0.563 37.68766,0.563c12.16976,0 24.29649,0.08035 36.39582,0.87816c1.75543,-2.99293 5.38825,-5.33315 11.57604,-6.4479zM353.08805,251.12276c-0.5126,-0.10623 -1.38729,-0.46875 -1.38729,-1.70597c0,-0.16333 0.01524,-0.31142 0.04289,-0.44569c-4.21548,-0.73665 -8.46763,-1.39903 -12.6921,-1.61029c0.05119,0.02826 0.10197,0.05579 0.1523,0.08241c5.37873,2.84466 11.05805,5.38785 16.76184,7.91833c-0.97179,-1.51721 -1.86742,-3.08983 -2.87763,-4.23878zM360.0382,254.42261c0.23738,0.33355 0.72839,2.29923 1.66202,2.28907c0.43038,-0.00469 0.65252,-0.5847 1.04828,-0.75388c3.05219,-1.30479 5.6712,-2.51811 8.34258,-4.26785c-3.97734,-0.3836 -7.93959,-0.84768 -11.87886,-1.40503c-0.86758,-0.14463 -1.73844,-0.29582 -2.61199,-0.45011c1.22245,1.47238 2.38926,3.11426 3.43798,4.58781zM388.27572,267.51683c2.15517,0.82248 9.4406,-7.13369 10.87819,-8.57128c0.86096,-0.85899 2.69965,-3.45134 4.72737,-5.65223c-6.84155,-0.06732 -13.70192,-0.2676 -20.54171,-0.66486c1.22909,5.53984 1.32136,13.50884 4.93615,14.88837zM407.2543,258.46039c0,-8.87997 0.04681,-2.7243 -5.62552,2.96003c-1.97692,1.97692 -6.80625,7.3814 -10.83791,9.11767c6.14777,2.00536 13.65915,4.74284 19.87142,7.62511c-0.37253,-6.70421 -3.40799,-13.05592 -3.40799,-19.70281zM380.66285,258.20625c-0.1494,-0.39777 -1.07891,-3.71591 -1.53346,-5.84796c-0.54518,-0.03838 -1.09018,-0.07811 -1.63498,-0.1192c-1.26769,0.65586 -2.80946,1.23329 -2.94585,1.28717c-3.22989,2.46229 -6.41829,4.25225 -10.2063,5.58304c5.69911,2.6047 11.28579,5.34001 16.47834,8.50049c0.96255,0.22784 2.26793,0.57721 3.82369,1.02773c-2.07356,-2.92356 -2.95296,-7.69289 -3.98144,-10.43127z" fill="#000000" stroke-width="0.5"/><path d="M353.13802,251.12063c1.01021,1.14895 1.90108,2.74508 2.87287,4.26229c-5.70379,-2.53048 -11.47353,-5.11638 -16.85226,-7.96104c-0.05033,-0.02662 -0.10109,-0.0542 -0.15228,-0.08246c4.22447,0.21126 8.56536,0.87045 12.78084,1.6071c-0.02765,0.13427 -0.04108,0.2859 -0.04108,0.44923c0,1.23722 0.87929,1.61864 1.39189,1.72487z" fill="#ffffff" stroke-width="0.25"/><path d="M359.99034,254.43707c-1.04872,-1.47355 -2.21283,-3.15132 -3.43528,-4.6237c0.87355,0.15429 1.74756,0.29982 2.61514,0.44445c3.93927,0.55735 7.99239,1.03786 11.96973,1.42146c-2.67138,1.74974 -5.35815,3.02002 -8.41034,4.32481c-0.39576,0.16918 -0.62545,0.74533 -1.05583,0.75002c-0.93363,0.01016 -1.44604,-1.98349 -1.68342,-2.31704z" fill="#ffffff" stroke-width="0.25"/><path d="M384.68319,268.66893c-1.55576,-0.45052 -2.86696,-0.79381 -3.82951,-1.02165c-5.19255,-3.16048 -10.86189,-5.93977 -16.561,-8.54447c3.78801,-1.33079 7.02639,-3.16426 10.25628,-5.62655c0.13639,-0.05388 1.69495,-0.62827 2.96264,-1.28413c0.5448,0.04109 1.0975,0.08441 1.64268,0.12279c0.45455,2.13205 1.40619,5.47655 1.55559,5.87432c1.02848,2.73838 1.89976,7.55614 3.97332,10.4797z" fill="#ffffff" stroke-width="0.25"/><path d="M383.29914,252.59904c6.83979,0.39726 13.78226,0.59933 20.62381,0.66665c-2.02772,2.20089 -3.85914,4.81065 -4.7201,5.66964c-1.43759,1.43759 -8.80117,9.44456 -10.95634,8.62208c-3.61479,-1.37953 -3.71829,-9.41854 -4.94738,-14.95838z" fill="#ffffff" stroke-width="0.25"/><path d="M410.69404,278.20182c-6.21227,-2.88227 -13.80102,-5.6379 -19.94879,-7.64326c4.03166,-1.73627 8.91611,-7.21032 10.89303,-9.18724c5.67233,-5.68433 5.64855,-11.82888 5.64855,-2.94891c0,6.64689 3.03468,13.07519 3.40721,19.7794z" fill="#ffffff" stroke-width="0.25"/><path d="M348.0564,277.8621c-12.09933,-0.79781 -24.24011,-0.86709 -36.40987,-0.86709c-12.58332,0 -25.15704,-0.30917 -37.71659,-0.55748c0.05214,-4.93653 -1.77186,-9.89693 -6.24649,-14.42942c-10.15716,-10.05714 -35.70044,-0.8606 -46.48693,5.30037c0,0 -1.44311,0.80362 -0.57487,2.32305c0.86824,1.51943 2.38679,0.65019 2.38679,0.65019c3.05366,-1.74574 7.80139,-3.94103 13.09653,-5.77171c-4.24108,2.57514 -7.70533,6.30495 -10.63638,10.36613c-9.8282,-0.23977 -19.64458,-0.6114 -29.29311,-3.02354c-4.48378,-0.89759 -11.06366,-3.07927 -15.68248,-2.6163c-9.08836,0.91096 -16.85508,14.06306 -31.10673,10.40457c-19.10776,-7.47388 -11.07308,-31.57004 -3.31518,-44.44831c5.81238,-11.7618 27.53387,-27.48666 40.88615,-27.53984c1.9782,-0.41684 0.5782,9.32151 -0.03777,11.01649c-1.36751,3.763 -13.86259,27.69662 -12.35474,29.46984c1.08227,1.27275 3.2288,0.85758 4.84338,1.28694c17.21727,0.02574 29.90195,-5.01419 46.11232,-9.08086c0.79063,-0.13331 1.58108,-0.26705 2.3717,-0.40037l2.00862,0.00531c0,0 1.6579,0.03895 1.6579,-1.71105c0,-0.61796 -0.21869,-1.01891 -0.501,-1.27749c12.54357,-6.47191 23.90642,-13.68738 34.0082,-23.78887c12.75086,-12.77979 24.61106,-25.18144 34.72195,-40.32433c6.98852,-9.81506 16.2836,-16.93493 25.78884,-24.06341c3.54726,13.17444 9.34074,25.62316 9.38592,39.66986c1.19412,4.77649 0.42198,10.40241 0.42198,15.30075c0,5.94474 1.11344,13.21573 -0.37696,18.97156l-0.29819,0.50359c0,0 -0.00491,0.00985 -0.01318,0.02833c-0.44356,0.16775 -0.89767,0.54516 -1.01543,1.36948c-0.24749,1.73241 1.38589,1.96609 1.38589,1.96609c15.71334,2.24116 31.98032,1.79053 47.87659,1.73439c10.81137,2.16227 40.39551,-5.7949 40.2944,12.48273c0.01571,3.65401 -0.95844,8.15784 -5.11244,9.0664c-1.85717,0.4062 -4.60179,-0.0463 -6.48842,-0.0463l-2.15328,0.00019c-9.07425,0 -18.21136,-0.18783 -27.30392,-0.74753c-0.44219,-0.79632 -0.98738,-1.38323 -1.68009,-1.67414c-0.86454,-0.36307 -2.58191,0.39237 -4.21689,1.25764c-5.52866,-0.44377 -11.03313,-1.03732 -16.48816,-1.82483c-7.73332,-1.28855 -15.67892,-3.01606 -23.52418,-3.03123l-2.15356,0.00069c-0.9665,0 -1.75089,0.78528 -1.75089,1.75178c0,0.40034 0.13412,0.76985 0.3603,1.06471l1.28099,1.70908l0.6163,-0.46251c8.56775,9.59447 34.76228,16.99072 44.8137,22.94424c4.89366,1.27227 39.60397,13.6039 39.92016,16.08546c0.39654,1.3093 -13.12262,-0.70111 -14.87377,-0.87836c-4.29244,-0.4345 -8.75066,-0.89351 -13.22634,-1.44886c-2.86423,-8.93281 -16.35184,-16.19855 -31.62068,-13.1691c-6.18779,1.11476 -9.82463,3.46016 -11.58006,6.45309z" fill="#00d2ff" stroke-width="0.5"/><path d="M411.99143,238.21995c0,-0.9665 0.7835,-1.75 1.75,-1.75c0.9665,0 1.75,0.7835 1.75,1.75c0,0.9665 -0.7835,1.75 -1.75,1.75c-0.9665,0 -1.75,-0.7835 -1.75,-1.75z" fill="#000000" stroke-width="0.5"/></g></g></svg>