<svg version="1.1" xmlns="http://www.w3.org/2000/svg" xmlns:xlink="http://www.w3.org/1999/xlink" width="203.30407" height="388.71146" viewBox="0,0,203.30407,388.71146"><g transform="translate(-237.77797,44.00296)"><g stroke-miterlimit="10"><path d="M273.64028,136.24818c0,0 -13.65779,-41.40397 -6.45752,-50.14087c6.12065,-6.77298 59.24784,-20.35007 69.89328,-7.21725c7.29074,8.99423 -0.37985,36.08626 -0.37985,36.08626" fill="#cecece" stroke="#000000" stroke-width="0" stroke-linecap="round" stroke-linejoin="miter"/><path d="M286.97645,76.25497c12.92961,-58.91714 78.20891,-66.73966 78.20891,-66.73966c0,0 1.22579,3.53944 4.09171,8.29309c0.59296,0.98348 1.34686,1.76408 2.30707,4.16191c1.13314,2.82964 2.47204,7.37955 2.99186,9.47969c1.38988,5.61528 3.83511,9.80383 3.83511,9.80383c0,0 -18.81251,4.66976 -35.01529,12.34534c-12.1915,5.77531 -22.65351,18.25798 -22.65351,18.25798" fill="#ffb3df" stroke="none" stroke-width="1" stroke-linecap="round" stroke-linejoin="round"/><path d="M276.64003,141.89577c0,0 -13.31453,-41.48085 -10.8304,-52.48489c1.15274,-4.65669 8.17054,-6.36154 13.96645,-9.25924c4.8215,-2.41054 8.47951,-7.34215 10.14736,0.16922c2.51539,11.3282 -0.81927,52.67643 -0.81927,52.67643" fill="#d9d9d9" stroke="#000000" stroke-width="0" stroke-linecap="round" stroke-linejoin="miter" style="mix-blend-mode: multiply"/><path d="M308.64075,121.39062c0,0 -1.09108,-28.75877 -0.66476,-36.59527c0.16192,-2.71443 -0.13644,-7.15527 0.66408,-9.62498c0.99107,-3.05756 3.12523,-3.36456 3.47387,3.15157c0.43164,8.0673 0.55833,41.27255 0.55833,41.27255" fill="#ffffff" stroke="#000000" stroke-width="0" stroke-linecap="round" stroke-linejoin="miter"/><path d="M319.50403,117.92171c0,0 -2.42092,-28.08376 -1.47507,-35.92023c0.21223,-1.60357 0.00814,-6.14071 0.86467,-7.74641c2.38834,-4.47734 7.28748,-4.51651 8.31677,4.15355c0.95774,8.0673 0.11938,39.64782 0.11938,39.64782" fill="#ffffff" stroke="#000000" stroke-width="0" stroke-linecap="round" stroke-linejoin="miter"/><path d="M394.1256,198.402c-0.84732,32.55476 -13.7477,71.41246 -56.17107,74.45158c-42.42334,3.03911 -90.60072,-23.75302 -97.46235,-65.8023c-6.8616,-42.04928 33.12499,-72.92543 76.52281,-86.85191c46.69565,-14.98474 77.90362,47.73452 77.11058,78.20266z" fill="#6e00dc" stroke="#000000" stroke-width="0" stroke-linecap="round" stroke-linejoin="miter"/><path d="M388.77679,229.73174c-9.62867,7.89199 -23.66631,3.71283 -37.74113,1.38054c-18.81816,-3.11831 -38.18887,-8.28283 -51.84827,-28.26547c-17.29609,-25.30301 -24.48396,-45.52825 -19.68232,-64.71219c0.34856,-1.39259 45.3274,-19.38003 45.3274,-19.38003c0,0 27.5654,3.75949 35.29111,9.71728c12.89997,9.94798 31.00299,46.10251 31.00299,46.10251c0,0 -0.13201,53.33961 -2.34983,55.15739z" fill="#ffc294" stroke="#000000" stroke-width="0" stroke-linecap="round" stroke-linejoin="miter" style="mix-blend-mode: soft-light"/><path d="M364.98465,142.4521c14.69913,17.92539 28.3563,39.31105 15.55718,47.71c-8.0401,6.59297 -30.15182,-2.1588 -45.57593,-26.21412c-12.51263,-19.51458 -17.42144,-25.68669 -9.38134,-32.27966c8.0401,-6.59297 24.7009,-7.1416 39.40003,10.78382z" fill="#ffffff" stroke="#000000" stroke-width="0" stroke-linecap="butt" stroke-linejoin="miter" style="mix-blend-mode: overlay"/><path d="M275.19039,139.91197c0,0 -13.90299,-41.9192 -9.00679,-52.01307c2.75324,-5.67599 59.5485,-25.52814 71.71786,-7.11389c6.75347,10.21913 -0.51169,30.54465 -3.47856,37.81826" fill="none" stroke="#000000" stroke-width="5.5" stroke-linecap="round" stroke-linejoin="miter"/><path d="M309.10466,123.6836c47.91213,-19.69665 83.30296,27.60774 83.96018,75.01361c0.74498,53.73647 -27.43111,78.93236 -69.85212,74.66951c-40.10602,-4.03022 -75.74714,-26.60398 -81.89559,-66.75523c-6.14845,-40.15125 24.3063,-65.05277 67.78753,-82.92788z" fill="none" stroke="#000000" stroke-width="5.5" stroke-linecap="round" stroke-linejoin="miter"/><path d="M286.39412,76.8861c0,0 3.56087,-21.98419 24.98054,-43.17527c20.85655,-20.63397 49.80368,-25.16626 54.16226,-24.26815c1.00788,0.20768 4.08076,5.77175 3.38757,9.14275c-0.32392,1.57522 2.7764,-0.06699 3.28389,1.58885c1.06727,3.48225 -0.52704,5.16169 0.77178,8.1984c0.92374,2.15977 3.34999,4.11425 4.28547,5.82914c2.45417,4.49891 2.74478,7.34883 -0.71754,7.93028c-39.47354,6.62901 -55.05586,30.28072 -55.05586,30.28072" fill="none" stroke="#000000" stroke-width="5.5" stroke-linecap="round" stroke-linejoin="miter"/><g fill="#ffb800" stroke="none" stroke-width="0.5" stroke-linecap="butt" stroke-linejoin="miter"><path d="M358.30003,-0.99072l5.91937,-15.76442l0.74337,-1.07689l0.5301,-1.19633l4.44956,-5.7086l0.06601,-0.05158l0.03537,-0.07593l6.01686,-7.4261l0.49673,-0.37356l0.33952,-0.52061l2.83108,-2.6266l0.63233,-0.34792l0.48827,-0.53148l4.90328,-3.23211l1.09225,-0.38373l0.98057,-0.61544l2.4891,-0.81254l3.60267,-1.31274l0.286,-0.02999l0.24828,-0.1452l2.0722,-0.60551l4.44718,-0.17496l0.21767,0.20994l0.16382,-0.03954l2.89083,2.98592l2.99135,2.88525l-0.03922,0.16388l0.21038,0.21729l-0.16664,4.44747l-1.51167,5.20923l-1.57218,6.57114l-0.05061,0.09717l-0.00159,0.10951l-2.22716,8.3879l-0.03549,0.06427l-0.00226,0.07338l-2.82538,9.97348l-2.48348,9.02472l-1.58616,6.62948l-0.09723,0.18683l-0.00784,0.21044l-1.35863,4.68186l7.24163,2.40591l10.64455,2.65374l0.14902,0.07934l0.16867,0.00637l10.81316,3.13781l0.29258,0.1704l0.3364,0.03866l10.1054,3.79446l0.87491,0.60392l0.99526,0.37368l1.46511,1.01132l0.03246,0.03684l0.15698,0.0146l1.33383,1.67955l1.41691,1.61013l-0.01337,0.1571l0.03049,0.03839l0.75729,1.66792l0.307,1.6757l0.42156,0.50825l-0.12643,1.10233l0.19999,1.09137l-0.38661,0.53533l-0.19417,1.6925l-0.91071,2.42532l-0.02785,0.04036l0.02391,0.15589l-1.30593,1.70137l-1.21842,1.76503l-0.15566,0.02512l-0.02987,0.03892l-3.94307,3.1315l-0.61476,0.27915l-0.48851,0.46606l-5.8635,3.33278l-0.84468,0.2355l-0.74269,0.46618l-7.88459,2.5739l-0.58735,0.04151l-0.53621,0.24346l-7.42922,1.36124l-0.2053,-0.0131l-0.19103,0.07626l-6.31722,0.85637l-1.18443,-0.1311l-1.1852,0.1242l-3.68651,-0.5215l-2.38255,-0.19317l-0.25512,0.19191l-0.33952,0.52061l-3.35287,3.11067l-4.30177,4.48913l-3.06367,3.35725l-0.30529,0.20272l-0.20019,0.30694l-2.13612,1.98191l-0.47282,0.68497l-0.03684,0.03246l-0.0146,0.15698l-1.67955,1.33383l-1.61013,1.41691l-0.1571,-0.01337l-0.03839,0.03049l-1.66792,0.75729l-2.50757,0.45948l-0.43076,0.2899l-0.31901,-0.15254l-1.12034,0.2053l-3.03483,-2.19167l-3.37737,-1.61457l-0.35629,-1.08177l-0.28661,-0.20704l0.04826,-0.517l-0.79759,-2.42142l-0.43399,-5.91761l-0.92464,-7.0311l0.06557,-0.57152l-0.13927,-0.55813l0.00317,-7.37816l0.0779,-0.31129l-0.05484,-0.31616l0.55918,-7.63055l0.05693,-0.17273l-0.02368,-0.18033l0.76331,-6.65369l0.0779,-4.81504l-0.28638,-0.10061l-0.37982,0.02494l-4.74992,-0.86113l-0.15319,-0.06927l-0.16805,0.00467l-5.96258,-1.31644l-0.20283,-0.10105l-0.22657,-0.00538l-4.59814,-1.26536l-0.34774,-0.19614l-0.39665,-0.0455l-3.23369,-1.21425l-0.51154,-0.35306l-0.60134,-0.15742l-2.67771,-1.46664l-1.01937,-0.94223l-1.16275,-0.75826l-1.06899,-1.1523l-1.45216,-1.32517l-0.49964,-0.7525l-0.68955,-0.58342l-0.59514,-0.82729l-0.94767,-1.0214l-0.66911,-1.21622l-0.86333,-1.08705l-0.5049,-1.11199l-0.07908,-0.43152l-0.02896,-0.05264l0.01216,-0.03886l-0.70629,-3.85468l0.58885,-0.81536l-0.2281,-0.97945l1.94084,-2.9761l0.01613,-0.17305l0.20063,-0.15933l0.27351,-0.41948l0.70776,-0.65668l1.21622,-0.66911l1.08705,-0.86333l1.71098,-0.77679l0.05126,-0.08237l0.2427,-0.05111l0.21911,-0.09946l1.95168,-0.35761l1.94166,-0.40881l0.24043,0.00899l0.24396,-0.04468l0.07864,0.05681l4.14984,0.15551l5.57871,-0.75623l0.25177,0.02791l0.24026,-0.08028l7.12565,-0.55281l0.18271,0.03087l0.17804,-0.05126l1.73724,-0.06181c0.04333,-0.13501 0.09009,-0.2696 0.14053,-0.40385z"/><path d="M366.14405,41.24868c-4.11127,-4.43134 0.32004,-8.54262 0.32004,-8.54262l1.76432,-1.39576c-0.14729,-1.93332 0.69757,-3.57074 0.69757,-3.57074c0.21033,-0.40652 0.42156,-0.82115 0.63424,-1.24254c-1.59665,0.28535 -3.57985,-0.02544 -5.38859,-2.20615c-3.85918,-4.6526 0.79342,-8.51175 0.79342,-8.51175l3.91499,-3.22873c7.36321,-5.28698 18.76576,-13.72379 28.17626,-14.11386c5.43362,-0.22519 12.29373,-1.96616 16.21509,1.8019c2.95663,2.84101 -0.74433,8.19126 -1.65429,12.18944c-2.1868,9.60802 -7.29262,19.4217 -10.76566,28.67099c0,0 -2.1249,5.65902 -7.78392,3.53414c-5.65902,-2.1249 -3.53414,-7.78392 -3.53414,-7.78392c0.06389,-0.17014 0.12781,-0.34034 0.1917,-0.51054c-3.62039,1.48124 -7.89763,2.5301 -10.47661,0.65918l-4.56168,4.57105c0,0 -4.43134,4.11127 -8.54262,-0.32004z"/></g><text transform="translate(252.78259,275.68211) scale(5.52211,5.52211)" font-size="40" xml:space="preserve" fill="#ffea00" stroke="#000000" stroke-width="1" stroke-linecap="butt" stroke-linejoin="miter" font-family="Sans Serif" font-weight="normal" text-anchor="start"><tspan x="0" dy="0">3</tspan></text></g></g></svg>