<svg version="1.1" xmlns="http://www.w3.org/2000/svg" xmlns:xlink="http://www.w3.org/1999/xlink" width="261.96751" height="306.01576" viewBox="0,0,261.96751,306.01576"><g transform="translate(-220.03258,7.37421)"><g stroke="none" stroke-miterlimit="10"><path d="M322.97629,221.40628c1.92562,-1.08992 4.4151,-0.33473 6.6274,-0.37551c6.38249,-0.11766 12.55973,0.46035 18.83628,1.357c8.72628,1.85194 17.86247,7.87184 26.09834,11.68185c15.78564,7.30261 31.39243,13.58531 48.47692,17.06086c10.97907,2.2445 18.90937,-26.24032 26.3283,-32.63509c7.43902,-6.41208 16.8151,-7.43153 23.85542,-15.35859c4.00811,-3.95697 7.19673,-12.76358 -1.51889,-14.30785c-7.95997,-1.41039 -26.69423,22.76199 -34.51274,25.9371c-4.71229,1.91367 -17.17454,-2.7046 -22.15999,-3.58329c-28.34997,-5.01017 -43.84805,-18.69413 -66.59231,-32.74813c-0.42583,0.71864 -0.94715,1.32678 -1.58282,1.79387c-5.67869,4.1727 -37.41061,3.93156 -47.88824,3.87987l0.07391,0.7435c0,0 0,0.85499 -0.5,1.56496c0,8.36536 0,17.89581 0,25.68504c0,8.80047 -2.1286,64.05732 -4.09245,67.11594c-1.75491,2.7332 -11.24084,1.78782 -14.16121,2.3719c-6.79861,0.01743 -19.86597,-2.18408 -23.74731,5.4428c-0.48221,0.94755 10.04234,4.00296 11.04732,4.19074c14.11157,2.63681 29.75869,1.87401 44.1035,1.88423c1.94013,0.23633 4.6247,1.48874 5.86337,-0.02309c1.6964,-2.07051 -0.01324,-13.23351 -0.01323,-15.98252c0.00006,-16.31342 0.7151,-32.57313 2.51529,-48.77608c0,0 0.17299,-1.55692 1.47752,-2.06896c0.03249,-1.89343 0.26413,-4.17052 1.46559,-4.85056zM344.37415,173.06564c0.09713,-0.16189 0.19915,-0.30421 0.30477,-0.42901c0.19471,-5.37494 -0.17954,-10.79603 0.15572,-16.18096c1.203,-19.12884 1.51002,-38.51238 3.19371,-57.58236c0.50087,-5.673 -1.42903,-18.66242 1.58198,-23.15549c-11.69038,3.73685 -27.74436,3.01297 -40.00923,3.38268c-4.58209,0.13812 -8.67547,0.03237 -13.23453,0.60225c-0.31155,0.03894 -0.99406,0.02066 -1.82346,-0.02939c-0.12604,1.51402 -1.73467,2.05023 -1.73467,2.05023c-0.5225,0.17294 -1.04394,0.34739 -1.56436,0.52335c1.71946,5.93491 2.43696,18.25824 2.63749,20.64726c0.10733,8.31342 0.26264,16.62234 -0.37254,24.91771c-0.29691,3.87762 -1.07834,8.07929 -0.50989,11.98452c0.83138,5.71151 3.05168,11.26079 3.50656,17.05911c0.50148,6.39223 0.51217,12.80271 0.51217,19.24634v0.45858c0.21096,0.84736 0.41294,1.69576 0.62157,2.54311c11.99496,0.06294 35.98447,1.84108 46.5641,-3.12831c0.10464,-0.04915 0.17953,-0.1265 0.23324,-0.22254c-0.44016,-0.58896 -0.76985,-1.50841 -0.06265,-2.68707zM415.87626,206.25885c2.02177,0.35724 19.54258,3.92009 19.99217,3.67886c9.15655,-4.91288 25.12695,-27.82955 36.48726,-26.0629c12.89148,2.00477 11.23076,15.86721 4.48111,22.69215c-7.11013,7.99227 -16.90389,9.15205 -24.14458,15.64141c-10.43356,9.35093 -13.05284,35.96112 -30.55541,33.84434c-17.47864,-3.55051 -33.49003,-9.98011 -49.63936,-17.41857c-7.73325,-3.56197 -16.75348,-9.83541 -24.90166,-11.31815c-6.08784,-0.86969 -12.04128,-0.66007 -18.15332,-1.28782c-1.14032,-0.11712 -2.22146,-0.72734 -3.3674,-0.69793c-0.29486,0.00757 0.38734,0.48147 0.43011,0.77331c0.10867,0.74153 0.00847,1.49889 0.0127,2.24833v2c0,0 0,2.10391 -1.93006,2.45161c-1.47577,14.72027 -2.06999,29.48588 -2.06994,44.29839c0.00002,4.19096 2.00681,15.62808 -1.01323,19.01748c-3.18003,3.56897 -6.05808,2.31517 -10.087,1.98187c-16.23524,-0.00173 -39.12171,2.90647 -53.99814,-4.75356c-1.4983,-0.77149 -6.22004,-3.67679 -5.90066,-6.17642c1.59724,-12.50062 19.70498,-10.58165 28.25269,-10.5572c2.98617,-0.59723 6.32574,-0.9049 9.36404,-0.98276c0.50543,-0.01295 1.33337,0.84009 1.47475,0.35466c1.61388,-5.54129 -0.39671,-15.36739 -0.09031,-21.48737c0.7172,-14.3254 2.99786,-27.97115 2.99786,-42.39669c0,-9.33333 0,-18.66667 0,-28v-1.04154c-0.82095,-2.97057 -1.385,-5.97356 -2.37171,-8.91789c0,0 -0.61332,-1.83996 0.86108,-2.81884c-0.02777,-4.67217 -0.12692,-9.32412 -0.4772,-13.97538c-0.43322,-5.75252 -2.69589,-11.26629 -3.49344,-16.94089c-0.59885,-4.26086 0.16538,-8.78532 0.49011,-13.01548c0.1712,-2.23023 0.28292,-4.46163 0.35287,-6.69394c-0.47183,0.15397 -0.86171,0.15397 -0.86171,0.15397h-1c-3.53022,-0.00727 -6.9524,0.49742 -10.5,0.5c-2.52574,0.00183 -5.34355,-0.37721 -7.79706,0.39914c-2.62157,0.82953 -5.07257,2.12593 -7.6368,3.11864c-1.4096,0.54571 -7.15127,1.94219 -7.61002,4.44856c-0.26244,1.43385 0.99058,2.16208 1.63322,3.16083c1.96155,3.0485 4.58033,6.97984 6.12613,10.21451c0.7562,1.58239 2.11709,3.23742 1.76676,4.95587c-1.67078,8.19563 -8.786,1.2851 -12.5285,-0.29798c-1.01237,0.1453 -11.43449,19.60617 -25.73867,10.14494c-9.93019,-6.56814 2.55733,-11.657 6.53169,-16.22748c0.79682,-0.91634 -0.32281,-2.42288 -0.71487,-3.57218c-2.72949,-8.00128 -7.44699,-15.24347 -10.51718,-23.11541c9.78475,-15.49983 44.30653,-28.41903 64.94446,-35.48707c-0.32317,-1.05598 -0.52812,-2.09451 0.01275,-2.95414c1.00807,-1.60218 14.05085,-1.90057 15.87276,-2.03339c2.80378,-0.20441 6.08922,-0.53701 9.65185,-0.90918c-3.80429,-0.39419 -7.56455,-0.52058 -10.87273,-2.75855c-13.50963,-9.13921 -43.82533,-41.29147 -36.69394,-57.98867c4.57404,-4.62277 10.98051,-9.90679 17.11794,-12.40998c16.13988,-6.58275 63.68395,-8.9235 81.27264,-6.45371c30.62284,5.45738 26.28488,57.96869 -3.3637,70.07496c-3.24937,1.37319 -5.73735,3.27113 -9.06826,4.52711c-3.62468,1.36675 -7.34331,2.04397 -11.04506,2.87445c6.02034,-0.09685 11.49597,0.25277 15.56416,1.42281c0.30859,2.14387 0.5373,4.44206 0.69739,6.86602c35.89179,0.03889 48.05129,12.23559 71.33054,36.96084c2.45105,5.44048 5.61912,11.03745 7.42906,16.72732c0.54352,1.70866 2.07976,6.97395 0.88125,8.91015c-3.23172,5.22084 -10.06661,5.49377 -15.31116,6.77766c-11.20748,2.74364 -22.47626,5.19824 -33.86962,6.97355c13.91238,5.65184 51.6239,30.35218 27.84131,39.48034c-6.64952,2.5522 -9.86992,1.99012 -16.25369,-1.2241c-3.28757,-2.63204 -8.30335,-11.47413 -12.59157,-12.14468c-5.41827,-0.84725 -7.83615,7.36151 -13.19663,-0.16143c-0.41363,-0.58049 -3.66851,-29.86978 -3.34026,-32.14649c0.62052,-4.30386 1.23229,-4.27199 3.7359,-7.44841c2.88505,-2.15614 6.06549,-3.55726 9.52757,-4.6012c0.29983,-0.09041 0.60377,-0.19737 0.91024,-0.29077c-3.04036,-1.5695 -5.7273,-5.23342 -7.86299,-7.22982c-6.44431,-6.02403 -12.83752,-12.4612 -19.84465,-17.83411c-1.1076,15.98145 -2.91843,32.34961 -3.68321,44.66673c-0.23841,3.79947 0.8475,11.08048 0.0944,16.72369c22.753,13.94822 37.90079,27.8239 65.95696,32.7676zM355.51788,107.35188c8.84839,6.66883 16.79934,14.77068 24.90194,22.34484c1.66945,1.56057 8.01881,7.12875 8.05512,9.11649c0.03142,1.71991 -2.71184,2.15435 -4.2447,2.93502c-3.20118,1.63034 -6.90976,1.58769 -9.97243,3.8988c-6.08695,7.42229 1.05861,23.19923 0.25973,32.16453c-0.07984,0.89599 0.10046,1.76091 1.09136,2.11118c1.14992,0.40648 1.67112,-1.93195 2.826,-2.32413c1.91379,-0.6499 4.01566,-0.95261 6.02192,-0.7079c6.0104,0.73309 10.04002,9.3643 14.40843,12.85532c7.06355,3.50058 23.26971,1.94949 13.36131,-8.15025c-9.64013,-9.82629 -21.35301,-15.77541 -32.12548,-23.60474l-0.06801,0.1587l-3.44704,-1.4773c-0.91919,-0.36945 -1.56816,-1.26922 -1.56816,-2.32056c0,-1.23751 0.89916,-2.26502 2.07979,-2.46484l3.05659,-0.57749l0.0034,0.01802l0.05178,-0.0278c12.48185,-1.7847 24.80367,-4.42887 37.05403,-7.42841c3.26877,-0.80037 9.7676,-1.03494 12.00861,-4.11785c0.31622,-0.43502 -0.12003,-1.07089 -0.23548,-1.59616c-0.25787,-1.1732 -0.50845,-2.35246 -0.88327,-3.49369c-1.74031,-5.29881 -4.63964,-10.44686 -6.85667,-15.57202c-22.54553,-23.23685 -32.6494,-34.68038 -66.94205,-34.73954c0.1916,6.70444 -0.03004,14.1306 -0.46722,21.77692zM225.0032,115.12244c3.05243,5.30893 14.74602,21.87067 10.76794,28.31241c-0.04789,0.07755 -10.52927,8.26418 -9.90425,9.06136c7.75856,9.8956 20.26531,-8.48202 24.69727,-10.1439c0.23089,0.08007 3.47256,0.81756 5.79582,1.94808c-0.65724,-1.0481 -1.3249,-2.08971 -1.97404,-3.14283c-3.00047,-4.86776 -8.76723,-11.0473 -3.67737,-16.53089c2.15447,-2.32113 5.80055,-3.33804 8.56323,-4.41703c2.69431,-1.05229 5.27319,-2.42385 8.04315,-3.2569c4.20634,-1.26503 8.74869,-0.32467 13.0476,-0.59603c2.2204,-0.14016 4.43053,-0.50078 6.65534,-0.50483h1c0,0 0.44125,0 0.953,0.18538c0.03923,-4.29868 -0.03067,-8.60001 -0.08348,-12.90205c-0.56053,-6.66145 -1.63609,-12.69271 -2.78061,-19.09083c-21.75478,7.8693 -41.74285,18.39268 -61.10359,31.07806zM313.55264,68.85188h1.46525c3.74103,0 7.59324,0.27079 11.32278,0.00629c1.87595,-0.13304 3.66275,-0.86478 5.46486,-1.40265c5.08641,-1.51811 10.29887,-2.08122 15.32392,-3.94045c3.2192,-1.19108 5.76295,-3.09886 8.93174,-4.47289c20.90224,-8.14507 27.71551,-35.66705 14.42788,-53.20745c-3.39361,-4.47975 -4.22261,-6.57675 -9.89208,-7.30337c-16.44103,-2.39339 -63.48225,-0.03225 -78.62685,6.13207c-5.17715,2.10726 -10.94487,6.70873 -14.88206,10.59002c-5.37262,12.46377 25.30556,43.84751 35.30606,51.01133c2.76071,1.97762 6.71833,1.70447 9.93386,2.10641c0,0 0.63671,0.07959 1.22467,0.48069z" fill-opacity="0.86275" fill="#000000" stroke-width="0.5"/><path d="M313.54126,68.90056c-0.58796,-0.4011 -1.22641,-0.48113 -1.22641,-0.48113c-3.21553,-0.40194 -7.18545,-0.13399 -9.94616,-2.11161c-10.0005,-7.16382 -40.70073,-38.60624 -35.32811,-51.07001c3.93719,-3.88129 9.71177,-8.49627 14.88892,-10.60353c15.1446,-6.16432 62.26365,-8.52973 78.70468,-6.13634c5.66947,0.72662 6.5048,2.83243 9.89841,7.31218c13.28763,17.5404 6.47076,45.11706 -14.43148,53.26213c-3.16879,1.37403 -5.72042,3.2901 -8.93962,4.48118c-5.02505,1.85923 -10.25562,2.43198 -15.34203,3.95009c-1.80211,0.53787 -3.59664,1.27121 -5.47259,1.40425c-3.72954,0.2645 -7.59745,-0.00681 -11.33848,-0.00681l-1.46718,-0.00041z" fill-opacity="0.86275" fill="#efff00" stroke-width="0.5"/><path d="M353.84912,106.09682c0.43718,-7.64632 0.66851,-15.08132 0.47691,-21.78576c34.29265,0.05916 44.46732,11.51695 67.01285,34.7538c2.21703,5.12516 5.12394,10.29557 6.86425,15.59438c0.37482,1.14123 0.62559,2.32525 0.88346,3.49845c0.11545,0.52527 0.55164,1.16326 0.23542,1.59828c-2.24101,3.08291 -8.74109,3.32637 -12.00986,4.12674c-12.25036,2.99954 -24.65331,5.67041 -37.13516,7.45511l-0.05183,0.02776l-0.00343,-0.01805l-3.0601,0.57418c-1.18063,0.19982 -2.00823,1.15748 -2.00823,2.39499c0,1.05134 0.64471,1.94728 1.5639,2.31673l3.44062,1.47293l0.06805,-0.15868c10.77247,7.82933 22.43915,13.77658 32.07928,23.60287c9.9084,10.09974 -6.26954,11.74558 -13.33309,8.245c-4.36841,-3.49102 -8.41399,-12.12258 -14.42439,-12.85567c-2.00626,-0.24471 -4.11485,0.05627 -6.02864,0.70617c-1.15488,0.39218 -1.67812,2.72988 -2.82804,2.3234c-0.9909,-0.35027 -1.17309,-1.21596 -1.09325,-2.11195c0.79888,-8.9653 -6.37264,-24.76783 -0.28569,-32.19012c3.06267,-2.31111 6.86127,-2.3119 10.06245,-3.94224c1.53286,-0.78067 4.18374,-1.17812 4.15232,-2.89803c-0.03631,-1.98774 -6.37801,-7.59935 -8.04746,-9.15992c-8.1026,-7.57416 -16.05136,-15.67879 -24.89975,-22.34762z" fill-opacity="0.86275" fill="#efff00" stroke-width="0.5"/><path d="M224.95372,115.11532c19.36074,-12.68538 39.42991,-23.24038 61.18469,-31.10968c1.14452,6.39812 2.23283,12.44505 2.79336,19.1065c0.05281,4.30204 0.12802,8.62071 0.08879,12.91939c-0.51175,-0.18538 -1.05229,-0.17346 -1.05229,-0.17346l-0.99997,0.0002c-2.22481,0.00405 -4.43484,0.36541 -6.65524,0.50557c-4.29891,0.27136 -8.84006,-0.66316 -13.0464,0.60187c-2.76996,0.83305 -5.25164,2.20203 -7.94595,3.25432c-2.76268,1.07899 -6.41824,2.05476 -8.57271,4.37589c-5.08986,5.48359 0.64351,11.64425 3.64398,16.51201c0.64914,1.05312 1.30948,2.19435 1.96672,3.24245c-2.32326,-1.13052 -5.57731,-1.8699 -5.8082,-1.94997c-4.43196,1.66188 -16.95948,20.02766 -24.71804,10.13206c-0.62502,-0.79718 9.85745,-8.98281 9.90534,-9.06036c3.97808,-6.44174 -7.73165,-23.04786 -10.78408,-28.35679z" fill-opacity="0.86275" fill="#efff00" stroke-width="0.5"/><path d="M344.39742,173.10989c-0.7072,1.17866 -0.3785,2.09862 0.06166,2.68758c-0.05371,0.09604 -0.12886,0.17352 -0.2335,0.22267c-10.57963,4.96939 -34.61142,3.1921 -46.60638,3.12916c-0.20863,-0.84735 -0.41195,-1.69637 -0.62291,-2.54373l-0.00017,-0.45866c0,-6.44363 -0.0206,-12.86043 -0.52208,-19.25266c-0.45488,-5.79832 -2.68922,-11.36598 -3.5206,-17.07749c-0.56845,-3.90523 0.20866,-8.12682 0.50557,-12.00444c0.63518,-8.29537 0.49326,-16.63876 0.38593,-24.95218c-0.20053,-2.38902 -0.90848,-14.72034 -2.62794,-20.65525c0.52042,-0.17596 1.04313,-0.3512 1.56563,-0.52414c0,0 1.61066,-0.53737 1.7367,-2.05139c0.8294,0.05005 1.51323,0.06764 1.82478,0.0287c4.55906,-0.56988 8.66399,-0.46825 13.24608,-0.60637c12.26487,-0.36971 28.35426,0.35939 40.04464,-3.37746c-3.01101,4.49307 -1.07098,17.49002 -1.57185,23.16302c-1.68369,19.06998 -1.99307,38.52775 -3.19607,57.65659c-0.33526,5.38493 0.03041,10.81186 -0.1643,16.1868c-0.10562,0.1248 -0.20805,0.26734 -0.30518,0.42923z" fill-opacity="0.86275" fill="#00f2ff" stroke-width="0.5"/><path d="M323.02366,221.42217c-1.20146,0.68004 -1.43165,2.95186 -1.46414,4.84529c-1.30453,0.51204 -1.47706,2.06654 -1.47706,2.06654c-1.80019,16.20295 -2.52608,32.4225 -2.52614,48.73592c-0.00001,2.74901 1.7039,13.90616 0.0075,15.97667c-1.23867,1.51183 -3.99076,0.33313 -5.93089,0.0968c-14.34481,-0.01022 -30.00086,0.74093 -44.11243,-1.89588c-1.00498,-0.18778 -11.53121,-3.2465 -11.049,-4.19405c3.88134,-7.62688 17.03837,-5.46956 23.83698,-5.48699c2.92037,-0.58408 12.31906,0.4101 14.07397,-2.3231c1.96385,-3.05862 4.08825,-58.35761 4.08825,-67.15808c0,-7.78923 0.00673,-17.33251 0.00673,-25.69787c0.5,-0.70997 0.50055,-1.5657 0.50055,-1.5657l-0.07372,-0.74376c10.47763,0.05169 42.23238,0.27616 47.91107,-3.89654c0.63567,-0.46709 1.15863,-1.07579 1.58446,-1.79443c22.74426,14.054 38.30197,27.76258 66.65194,32.77275c4.98545,0.87869 17.35547,5.5345 22.06776,3.62083c7.81851,-3.17511 26.64619,-27.38259 34.60616,-25.9722c8.71562,1.54427 5.52918,10.35663 1.52107,14.3136c-7.04032,7.92706 -16.41526,8.95087 -23.85428,15.36295c-7.41893,6.39477 -15.34982,34.90295 -26.32889,32.65845c-17.08449,-3.47555 -32.78788,-9.75821 -48.57352,-17.06082c-8.23587,-3.81001 -17.28368,-9.81297 -26.00996,-11.66491c-6.27655,-0.89665 -12.44753,-1.48577 -18.83002,-1.36811c-2.2123,0.04078 -4.70072,-0.71728 -6.62634,0.37264z" fill-opacity="0.86275" fill="#ff007b" stroke-width="0.25"/><path d="M317.2424,38.30173c-2.5,0 -2.5,-2.5 -2.5,-2.5v-1c0,-6.75437 0.25,-13.49148 0.25,-20.25c0,0 0,-2.5 2.5,-2.5c2.5,0 2.5,2.5 2.5,2.5c0,6.75843 -0.25,13.4959 -0.25,20.25v1c0,0 0,2.5 -2.5,2.5z" fill-opacity="0.86275" fill="#000000" stroke-width="0.5"/><path d="M342.80279,0.06068c1.76777,1.76777 0,3.53553 0,3.53553l-0.13633,0.12849c-1.57796,1.80257 -3.02644,3.85852 -4.48975,5.92285c1.96759,0.4202 1.85485,2.56229 1.85485,2.56229c-0.3621,6.87815 -1.69282,13.49447 -2.25518,20.32622l0.00864,0.04239c0,0 0,2.5 -2.5,2.5c-2.5,0 -2.5,-2.5 -2.5,-2.5l0.00864,-0.45761c0.51194,-6.07479 1.61884,-11.97147 2.10269,-18.03944c-1.38022,1.72019 -2.85421,3.3074 -4.52162,4.5925c-1.90278,1.46651 -3.53971,4.182 -5.93993,4.08143c-1.7313,-0.07254 -1.83871,-2.93874 -2.69819,-4.44338c-2.06746,-3.61939 -3.83331,-6.4016 -6.41738,-9.68894c0,0 -1.54455,-1.9658 0.42124,-3.51035c1.9658,-1.54455 3.51035,0.42124 3.51035,0.42124c1.12442,1.4317 3.62623,4.48017 4.66707,6.24037c0.87712,1.48332 1.95049,2.91139 2.41556,4.57069c0.01996,0.0712 0.01894,0.15896 0.00259,0.25663c0.80484,-1.29668 1.83225,-2.46893 2.80097,-3.65025c3.3527,-4.08848 6.26799,-8.51902 9.76658,-12.51915l0.36367,-0.37151c0,0 1.76777,-1.76777 3.53553,0z" fill-opacity="0.86275" fill="#000000" stroke-width="0.5"/><path d="M337.3674,53.55173l-0.96837,-0.10543c-3.87487,-1.21245 -8.2352,-0.63849 -12.28163,-0.64457c-3.1737,-0.00477 -6.10577,-0.51258 -9.25,-0.5c0,0 -0.60177,0 -1.21483,-0.29524c-0.6081,1.12097 -1.2245,2.23751 -1.84122,3.35387c7.32095,-0.91617 15.46555,0.24563 22.70216,-0.05647c1.27095,-0.05306 3.18543,1.10495 3.81616,0.00027c0.42517,-0.74467 0.58822,-1.48523 0.5408,-2.21032c-0.69678,0.45789 -1.50306,0.45789 -1.50306,0.45789zM324.1174,47.80173c3.76572,-0.00606 7.54943,-0.29292 11.23187,0.30178c-3.49999,-2.58788 -8.631,-4.28731 -10.70343,-4.06734c-1.48569,0.19349 -6.69814,0.491 -7.86877,1.88518c-0.35344,0.42094 -0.61776,0.89986 -0.84825,1.40111c2.75849,0.09532 5.3796,0.48379 8.18858,0.47926zM306.50754,60.29569c-2.05971,-0.94937 -1.22595,-3.135 -1.22595,-3.135l0.4583,-1.13765c2.2324,-4.09273 4.51873,-10.48223 7.71785,-13.84093c2.1568,-2.26438 7.83632,-2.73474 10.63123,-3.11482c8.08132,-0.64757 25.31,9.23143 17.81617,19.73201c-2.37394,3.32645 -27.9268,0.76663 -32.87994,2.16434c0,0 -1.56514,0.42686 -2.51766,-0.66795z" fill-opacity="0.86275" fill="#000000" stroke-width="0.5"/><path d="M324.0845,47.83937c-2.80898,0.00453 -5.44677,-0.41515 -8.20526,-0.51047c0.23049,-0.50125 0.4944,-0.9874 0.84784,-1.40834c1.17063,-1.39418 6.41105,-1.73579 7.89674,-1.92928c2.07243,-0.21997 7.27439,1.53464 10.77438,4.12252c-3.68244,-0.5947 -7.54798,-0.28048 -11.3137,-0.27442z" fill="#ffffff" stroke-width="0.5"/><path d="M337.31743,53.55316c0,0 0.90617,-0.00438 1.60295,-0.46227c0.04742,0.72509 -0.11583,1.474 -0.541,2.21867c-0.63073,1.10468 -2.5455,-0.05113 -3.81645,0.00193c-7.23661,0.3021 -15.48034,-0.86191 -22.80129,0.05426c0.61672,-1.11636 1.23347,-2.24625 1.84157,-3.36722c0.61306,0.29524 1.21476,0.2957 1.21476,0.2957c3.14423,-0.01258 6.08839,0.46949 9.26209,0.47426c4.04643,0.00608 8.49406,-0.53665 12.36893,0.6758l0.96839,0.10603z" fill="#ffffff" stroke-width="0.5"/></g></g></svg>