<svg version="1.1" xmlns="http://www.w3.org/2000/svg" xmlns:xlink="http://www.w3.org/1999/xlink" width="302.17374" height="323.60336" viewBox="0,0,302.17374,323.60336"><g transform="translate(-131.95325,20.13043)"><g stroke="none" stroke-miterlimit="10"><path d="M298.07564,159.43599c0,0 5.13381,-22.74605 3.89474,-36.1901c-0.77023,-8.35708 -8.14474,-7.13727 -8.14474,-12.82653c0,-12.23539 4.25,-33.73337 4.25,-33.73337c0,0 29.54429,-11.25 38.47506,-11.25c9.14738,0 15.77494,11.25 15.77494,11.25v82.75z" fill-opacity="0.86275" fill="#00f2ff" stroke-width="0"/><path d="M344.32564,180.8629v-59.5h9.75v59.5z" fill-opacity="0.86275" fill="#00f2ff" stroke-width="0"/><path d="M298.07564,182.6129v-23.17691h52.5v23.17691z" fill-opacity="0.86275" fill="#00f2ff" stroke-width="0"/><path d="M326.54826,225.21816c-0.00824,-0.67041 -0.01249,-1.34185 -0.01249,-2.0144c0,0 0,-2.5 2.5,-2.5c2.5,0 2.5,2.5 2.5,2.5c0,19.0898 5.09783,38.55605 1.97179,57.37448c-0.92462,5.56613 1.23012,11.70767 -0.44369,17.16375c13.89922,2.5633 32.33102,1.33344 45.88765,-2.62405c20.54201,-5.99669 19.36242,-14.81878 -1.95478,-15.41448c-4.80991,0.00049 -21.83847,0.83987 -25.14062,-1.29551c-5.44141,-3.51875 -4.28576,-54.40436 -4.32036,-64.20419c0,-9.46901 1.10489,-19.65063 0.1903,-29.04329c-0.06624,-0.68023 -12.60444,-1.05751 -13.869,-1.17432c-14.70527,-1.35843 -29.88843,3.00698 -44,1c-29.53599,-1.23745 -65.19296,9.95139 -85.48135,31.37754c-1.75939,2.27977 -2.38045,5.96811 -5.07117,6.99418c-10.31612,3.93392 -30.06994,-18.21872 -39.41857,-22.9342c-11.91529,-6.01012 -24.76537,-4.49607 -22.52818,11.29935c3.31649,20.85629 10.297,23.31032 25.86377,34.30879c5.10268,3.60522 7.48867,7.29759 13.39859,9.91812c1.85119,0.82084 7.1776,3.10089 8.87737,4.22573c1.09505,0.72466 1.81934,3.2387 2.96384,2.59498c2.61501,-1.47078 6.10808,-6.97399 7.90914,-9.21779c29.38114,-24.79121 47.76093,-26.78702 83.15617,-35.79671c4.37664,-0.72663 6.06292,-1.23689 10.54775,-1.04747c3.73138,0.15759 7.22313,0.99734 10.96133,0.99509c4.98675,-0.003 11.31433,-0.90807 16.01138,1.21371c0.26809,0.1211 8.24581,5.45312 8.69587,5.75316l0.6795,0.453c0,0 0.0485,0.03233 0.12574,0.09452zM326.64098,229.15373c-1.34086,1.2309 -2.99196,0.13016 -2.99196,0.13016l-0.6795,-0.453c-2.65518,-1.77012 -5.06422,-3.9684 -7.94514,-5.34084c-3.78144,-1.80145 -10.01892,-0.78399 -13.98862,-0.78629c-7.07428,-0.0041 -13.37432,-1.24356 -20.49093,-0.05238c-34.30743,8.43603 -52.20319,10.67072 -80.59688,34.3946c-2.0783,2.60699 -6.9528,9.71172 -10.33781,10.5909c-3.31563,0.86116 -11.97014,-5.75906 -15.02067,-7.1179c-6.18871,-2.75673 -8.97623,-6.70736 -14.27473,-10.41897c-16.7499,-11.73333 -24.27453,-15.55349 -27.90263,-37.64208c-0.92743,-7.1218 -1.00281,-13.05126 5.23691,-17.3343c15.36898,-10.54952 32.52835,6.9597 44.50604,15.50698c2.72114,1.94181 10.893,9.9786 14.61193,8.41903c2.16746,-0.90895 2.37467,-4.07156 3.80777,-5.93444c21.45092,-22.67302 58.49785,-34.39612 89.74022,-33.10805c9.57214,1.37365 58.70588,-5.49525 62.0305,3.23989c3.00766,7.90237 0.1903,22.45114 0.1903,30.95671c-0.05795,14.52291 0.38697,29.2099 0.99784,43.8961c0.09027,2.17023 -1.59307,14.83455 0.6818,15.89971c5.18281,2.42675 16.84754,0.70389 22.85938,0.70449c6.50927,0.22159 29.56029,6.52442 20.72874,17.26746c-9.96159,12.11767 -55.74672,14.01706 -68.79587,8.69401c-1.37319,-12.98355 1.80672,-25.59297 0.49696,-38.43547c-1.13051,-11.08503 -2.48158,-21.96445 -2.86365,-33.07634z" fill-opacity="0.86275" fill="#000000" stroke-width="0.5"/><path d="M326.49991,225.23094c-0.07724,-0.06219 -0.12571,-0.09443 -0.12571,-0.09443l-0.67937,-0.45253c-0.45006,-0.30004 -8.42544,-5.62546 -8.69353,-5.74656c-4.69705,-2.12178 -11.02042,-1.20898 -16.00717,-1.20598c-3.7382,0.00225 -7.22366,-0.82982 -10.95504,-0.98741c-4.48483,-0.18942 -6.16141,0.32839 -10.53805,1.05502c-35.39524,9.00969 -53.70014,10.95391 -83.08128,35.74512c-1.80106,2.2438 -5.2952,7.7423 -7.91021,9.21308c-1.1445,0.64372 -1.96564,-1.8455 -3.06069,-2.57016c-1.69977,-1.12484 -7.02685,-3.40824 -8.87804,-4.22908c-5.90992,-2.62053 -8.29652,-6.31872 -13.3992,-9.92394c-15.56677,-10.99847 -22.54604,-13.46605 -25.86253,-34.32234c-2.23719,-15.79542 10.70821,-17.28008 22.6235,-11.26996c9.34863,4.71548 29.00761,26.83685 39.32373,22.90293c2.69072,-1.02607 3.31376,-4.72022 5.07315,-6.99999c20.28839,-21.42615 56.01151,-32.64188 85.5475,-31.40443c14.11157,2.00698 29.31315,-2.34469 44.01842,-0.98626c1.26456,0.11681 13.80574,0.49802 13.87198,1.17825c0.91459,9.39266 -0.18412,19.58677 -0.18412,29.05578c0.0346,9.79983 -1.12255,60.72083 4.31886,64.23958c3.30215,2.13538 20.23745,1.26009 25.04736,1.2596c21.3172,0.5957 22.58928,9.4554 2.04727,15.45209c-13.55663,3.95749 -31.9952,5.19796 -45.89442,2.63466c1.67381,-5.45608 -0.5627,-11.65454 0.36192,-17.22067c3.12604,-18.81843 -1.97666,-38.24649 -1.97666,-57.33629c0,0 0.00066,-2.4978 -2.49934,-2.4978c-2.5,0 -2.40453,2.47027 -2.40453,2.47027c0,0.67255 0.00466,1.34546 0.0129,2.01587z" fill-opacity="0.86275" fill="#ff007b" stroke-width="0.25"/><path d="M322.08359,71.7655c-0.24914,-0.31142 -0.40885,-0.61291 -0.50133,-0.89971c-7.93432,2.09664 -15.90619,5.63706 -23.31137,8.21683c0.16947,0.3372 0.26488,0.71803 0.26488,1.12114c0,0.15625 -0.01433,0.30915 -0.04176,0.45746l-0.81425,4.88551l-0.2862,-0.0477c-0.08708,9.54871 -1.36572,19.00977 -1.74961,28.5869c3.12974,0.45698 5.83917,1.53506 7.41992,3.65605c2.01142,2.69885 -2.52811,53.30219 -2.52811,61.46178c0,0 0,2.5 -2.5,2.5c-2.5,0 -2.5,-2.5 -2.5,-2.5c0,-14.54565 0.34279,-28.70366 1.91072,-43.17913c0.24773,-2.28714 2.81903,-13.72272 1.56117,-15.3591c-0.687,-0.89375 -1.92571,-1.43208 -3.47158,-1.7235c-0.00021,0.08723 -0.00031,0.17447 -0.00031,0.26172v1c0,0 0,2.5 -2.5,2.5c-2.5,0 -2.5,-2.5 -2.5,-2.5v-1c0,-0.17275 0.00023,-0.3454 0.00067,-0.51793c-4.51384,0.18544 -9.45339,1.17887 -11.58137,1.54391c-29.3265,9.66615 -41.09684,53.11392 -76.61827,44.37432c-20.02774,-6.66334 -2.34804,14.68883 -0.83331,25.19924c2.35803,16.36191 -13.67215,6.61019 -18.49582,-0.13777c-2.46472,-3.44796 -3.85387,-7.78232 -6.21768,-11.3634c-1.01968,-2.99568 -2.17551,-14.05623 -4.06854,-14.97175c-6.27125,-3.03294 -12.15498,3.01503 -16.50007,-5.63416c-9.51051,-18.93133 17.5304,-32.56235 29.78412,-38.7703c14.20917,-5.68874 28.47088,-11.96435 43.30654,-16.11512c14.83327,-4.15009 30.81273,-7.26317 44.88099,-13.62239c3.47191,-1.55689 7.34238,-2.47561 10.70298,-4.20973c2.24659,-1.15928 4.3242,-2.63311 6.58766,-3.75837l2.51671,-2.51671c-0.12955,-0.19732 -0.24377,-0.43163 -0.33632,-0.70928c-0.79057,-2.37171 1.58114,-3.16228 1.58114,-3.16228c5.75203,-1.91647 11.97097,-4.52244 18.3179,-6.71189c-23.55754,-6.93634 -59.71141,-36.33633 -32.8488,-59.61503c31.70567,-27.44838 44.47111,-41.35016 79.72585,-13.17787c6.991,4.92654 11.50601,10.78955 13.97438,19.10741c7.76188,26.15571 -21.06794,36.63496 -38.44452,49.48988c4.66307,0.24628 9.17167,1.47197 13.38009,4.15258c1.13237,0.72128 3.04212,0.44713 3.68503,1.62577c1.47106,2.6969 1.23516,8.44125 1.11028,12.82502c0.53182,-0.53604 1.20356,-0.72797 1.20356,-0.72797c23.73055,-6.73145 71.53693,-8.62187 78.10678,22.7596c1.88927,8.02749 -0.13971,16.75765 -6.97605,21.68505c-3.17153,2.28593 -6.85259,4.66544 -10.82415,5.68823c4.5421,2.97165 11.03659,10.54393 11.75193,12.48035c5.58432,15.1166 -18.65951,9.89157 -24.62653,5.95284c-1.10652,-0.57638 -2.12108,-1.38239 -3.31957,-1.72915c-2.84586,-0.8234 -3.30399,1.72777 -6.60526,-0.22894c-1.41915,-0.84115 -2.1113,-2.54855 -2.98263,-3.94937c-1.75717,-2.82496 -3.81471,-7.46597 -4.30544,-10.85436c-0.595,-4.10836 0.41509,-7.57261 -0.91101,-11.63128c-1.56555,-4.79151 -6.50899,-11.46269 -12.02172,-12.30145c-2.92321,-0.44477 -6.06635,0.47315 -9,0c-1.87002,-0.3016 -3.70551,-0.99124 -5.59954,-0.96772h-3c0,0 -0.0147,0 -0.04185,-0.00113c0.67749,17.44544 1.35499,34.89088 2.03248,52.33632c0.34194,8.80504 3.46206,19.0166 -6.59017,22.63252l-3.40046,0.03228c0,0 -2.5,0 -2.5,-2.5c0,-2.5 2.5,-2.5 2.5,-2.5l2.59954,0.03228c6.0783,-1.67551 2.38968,-17.63624 2.20082,-22.49929c-0.90547,-23.31576 -1.81093,-46.63152 -2.7164,-69.94727c-0.10887,-2.80341 1.10534,-11.23938 -0.08332,-13.58486c-0.35336,-0.69725 -1.63125,0.00464 -2.31497,-0.37423c-5.55847,-3.08011 -11.54227,-3.68054 -17.66477,-2.94179c-0.99363,0.7949 -1.98726,1.58981 -2.98089,2.38471l-0.47828,0.38262c0,0 -1.95217,1.56174 -3.51391,-0.39043zM330.761,61.62202c16.11484,-12.89187 48.07592,-22.96553 37.52313,-48.62141c-2.63838,-6.41441 -5.15174,-9.68966 -10.84405,-13.67339c-7.46045,-5.97447 -15.98355,-13.87245 -25.80477,-15.65573c-12.18565,-2.21261 -38.83953,20.98232 -47.64774,28.61328c-23.8685,20.65724 13.2945,46.65711 32.65453,51.49364c0,0 2.23003,0.55751 1.87881,2.7417c2.89313,-0.85973 5.79447,-1.57531 8.6726,-2.0441c1.22703,-0.98162 2.44197,-1.95358 3.56748,-2.85399zM355.03577,103.70377h3c2.16096,0.02051 4.27097,0.66426 6.40046,1.03228c2.90301,0.5017 6.08261,-0.51547 9,0c7.44233,1.31499 13.73868,8.98501 15.97828,15.69855c2.00588,6.01293 0.40285,11.89139 2.93097,17.81246c0.54183,1.26902 1.23657,2.46717 1.85258,3.70189c0.34064,0.68279 0.36839,1.64931 1.01737,2.05063c0.52285,0.32332 1.20616,-0.26975 1.82036,-0.29581c1.1906,-0.05053 2.4278,-0.25783 3.57438,0.06688c1.66846,0.4725 3.12029,1.5139 4.68043,2.27085c1.71359,1.15491 3.57654,2.13354 5.53575,2.79057c1.59058,0.53341 14.99623,2.89899 11.83772,-2.83772c-1.6222,-2.94637 -16.10644,-14.64996 -16.12055,-14.98713c-0.16972,-4.05584 27.58923,-4.46151 22.03344,-25.35343c-5.2888,-27.9982 -51.62617,-24.87113 -71.85438,-19.0462c0,0 -1.65888,0.47397 -2.61423,-0.74365c0.00216,0.07875 0.00469,0.15595 0.00763,0.23153c0.22816,5.87511 0.45632,11.75022 0.68448,17.62533c0.14554,-0.01701 0.23532,-0.01701 0.23532,-0.01701zM290.60753,113.81571c0.16749,-6.35117 0.61893,-12.60596 1.25675,-18.98476c0.16473,-1.64747 0.58999,-3.26318 0.73294,-4.91268c0.10257,-1.18357 -0.12297,-2.40958 -0.08731,-3.59378c-1.77653,1.03761 -3.50294,2.16804 -5.33439,3.10435c-3.45292,1.76527 -7.38196,2.72442 -10.93485,4.32107c-14.31535,6.38568 -30.41174,9.66215 -45.48118,13.8468c-14.63069,4.06282 -28.68696,10.28764 -42.69346,15.88488c-10.93785,5.54418 -33.34244,15.53391 -27.28694,32.15863c1.62292,4.45556 10.96256,1.08373 14.571,3.43691c4.55794,2.97238 4.28089,11.94444 5.93146,17.02825c2.25282,3.34259 3.47783,7.40732 5.78232,10.6366c1.2801,1.7938 3.11384,3.11951 4.69706,4.65241c12.09744,11.71297 -6.18911,-26.47342 -2.75327,-31.65241c3.07475,-4.63471 11.06341,-1.16219 14.72707,0.06148c31.29693,7.97531 43.6432,-34.50545 74.01224,-44.42558c2.9804,-0.51809 7.98118,-1.46395 12.86055,-1.56218z" fill-opacity="0.86275" fill="#000000" stroke-width="0.5"/><path d="M354.75309,103.70473c-0.22816,-5.87511 -0.44798,-11.76544 -0.67614,-17.64055c-0.00294,-0.07558 -0.00536,-0.15292 -0.00752,-0.23167c0.95535,1.21762 2.61497,0.74276 2.61497,0.74276c20.22821,-5.82493 66.6518,-8.93347 71.9406,19.06472c5.55579,20.89191 -22.21581,21.34666 -22.04608,25.4025c0.01411,0.33717 14.49897,12.04013 16.12117,14.9865c3.15851,5.73671 -10.25789,3.3796 -11.84847,2.8462c-1.95921,-0.65703 -3.82673,-1.63329 -5.54032,-2.7882c-1.56014,-0.75695 -3.01732,-1.79627 -4.68579,-2.26877c-1.14658,-0.32471 -2.38964,-0.11589 -3.58024,-0.06537c-0.61419,0.02606 -1.30076,0.61966 -1.82361,0.29633c-0.64898,-0.40132 -0.67817,-1.36768 -1.01882,-2.05047c-0.61601,-1.23472 -1.31411,-2.43266 -1.85595,-3.70168c-2.52812,-5.92108 -0.95049,-11.80563 -2.95636,-17.81856c-2.23959,-6.71354 -8.46966,-14.40083 -15.912,-15.71581c-2.91739,-0.51547 -6.09324,0.4945 -8.99625,-0.0072c-2.12949,-0.36802 -4.23871,-1.01375 -6.39967,-1.03427l-2.99955,-0.00127c0,0 -0.18445,-0.03221 -0.32999,-0.01519z" fill-opacity="0.86275" fill="#efff00" stroke-width="0.5"/><path d="M277.79211,115.35636c-30.36905,9.92013 -42.79792,52.45551 -74.09485,44.4802c-3.66367,-1.22367 -11.5707,-4.75275 -14.64545,-0.11805c-3.43584,5.17899 14.83437,43.34731 2.73694,31.63433c-1.58322,-1.5329 -3.47686,-2.77871 -4.75696,-4.57251c-2.30449,-3.22928 -3.53637,-7.30102 -5.78919,-10.64361c-1.65057,-5.0838 -1.38137,-14.06963 -5.93931,-17.042c-3.60844,-2.35318 -12.9499,1.01271 -14.57282,-3.44285c-6.0555,-16.62472 16.35182,-26.64594 27.28968,-32.19012c14.0065,-5.59724 28.11564,-11.85173 42.74633,-15.91455c15.06944,-4.18466 31.19558,-7.44554 45.51093,-13.83122c3.55289,-1.59665 7.48369,-2.55379 10.93661,-4.31906c1.83145,-0.93631 3.55823,-2.06628 5.33477,-3.10389c-0.03566,1.18421 0.19094,2.41157 0.08837,3.59513c-0.14295,1.6495 -0.56693,3.26699 -0.73167,4.91446c-0.63783,6.37879 -1.08414,12.6431 -1.25163,18.99427c-4.87937,0.09823 -9.88135,1.04137 -12.86175,1.55946z" fill-opacity="0.86275" fill="#efff00" stroke-width="0.5"/><path d="M327.19841,64.52577c-2.87812,0.46879 -5.7901,1.18428 -8.68323,2.04401c0.35122,-2.18419 -1.88155,-2.74209 -1.88155,-2.74209c-19.36003,-4.83653 -56.56212,-30.90109 -32.69362,-51.55833c8.8082,-7.63096 35.51953,-30.8595 47.70517,-28.64689c9.82121,1.78329 18.3744,9.7002 25.83485,15.67468c5.69231,3.98373 8.21403,7.27614 10.85241,13.69056c10.55279,25.65588 -21.44663,35.79145 -37.56146,48.68331c-1.12551,0.90041 -2.34553,1.87313 -3.57256,2.85475z" fill-opacity="0.86275" fill="#efff00" stroke-width="0.5"/><path d="M311.04173,50.53557c3.92437,-0.26301 7.74547,-0.9837 11.64669,-1.57335c0.69212,-0.10461 1.37627,-0.37771 2.06218,-0.5434c-2.21676,-2.02418 -2.36732,-5.77647 -4.14806,-7.97887c-0.25044,-0.30974 -0.23398,0.81683 -0.54797,1.06192c-0.80664,0.62962 -1.80626,0.96276 -2.69522,1.46955c-3.62662,2.06748 -6.12117,3.81273 -6.31762,7.56415zM309.48919,55.1805c-0.25018,0.07688 -0.53881,0.12123 -0.87179,0.12123c-2.5,0 -2.5,-2.5 -2.5,-2.5l0.01241,-0.00124c-0.6406,-7.08909 2.80987,-10.76921 8.74565,-14.16845c1.07308,-0.61452 6.07049,-3.4665 7.03389,-3.01828c2.03909,0.94868 2.8087,3.5172 4.09623,5.36115c1.32275,1.89439 5.76297,9.17886 5.29421,11.04633c-0.39478,1.57278 -3.11942,0.89082 -4.69621,1.26931c-5.02025,1.20506 -10.43965,1.92469 -15.58023,2.25631c0,0 -0.80876,0.05055 -1.53416,-0.36637z" fill-opacity="0.86275" fill="#000000" stroke-width="0.5"/><path d="M317.34881,42.92255c0.88896,-0.50678 1.92305,-0.83495 2.72969,-1.46457c0.31399,-0.24509 0.29732,-1.37177 0.54776,-1.06203c1.78075,2.20239 1.95349,6.01851 4.17025,8.04269c-0.68592,0.16569 -1.37559,0.44847 -2.06772,0.55308c-3.90122,0.58965 -7.80288,1.31059 -11.72725,1.5736c0.19645,-3.75142 2.72065,-5.5753 6.34727,-7.64278z" fill="#b8c500" stroke-width="0.5"/><path d="M309.3674,37.30173c-2.5,0 -2.5,-2.5 -2.5,-2.5l0.01241,-0.99876c0.73374,-7.24232 1.74126,-14.70371 1.73759,-22.00124c0,0 0,-2.5 2.5,-2.5c2.5,0 2.5,2.5 2.5,2.5c-0.00353,7.47445 -1.02931,15.07959 -1.76241,22.49876l0.01241,0.50124c0,0 0,2.5 -2.5,2.5z" fill-opacity="0.86275" fill="#000000" stroke-width="0.5"/><path d="M329.07683,39.67344c-2.37171,-0.79057 -1.58114,-3.16228 -1.58114,-3.16228l0.12171,0.04057c0.00551,-8.50867 0.93692,-17.06818 1.25171,-25.59253c0,0 0.09253,-2.49829 2.59082,-2.40576c2.49829,0.09253 2.40576,2.59082 2.40576,2.59082c-0.31423,8.45992 -1.25415,16.96442 -1.24829,25.40747l-0.37829,1.54057c0,0 -0.79057,2.37171 -3.16228,1.58114z" fill-opacity="0.86275" fill="#000000" stroke-width="0.5"/><path d="M337.85211,-2.47435c0.27608,2.48471 -2.20863,2.76079 -2.20863,2.76079l-1.49157,0.04121c-5.02686,2.25263 -7.95139,6.49178 -11.02509,10.72946l0.41119,0.23497l-1.97592,3.45786c-0.42441,0.77572 -1.24811,1.30179 -2.19469,1.30179c-1.0731,0 -1.98829,-0.67611 -2.34282,-1.62559l-0.97837,-2.44593l0.03113,-0.01245l-0.07015,-0.09179c-1.33912,-4.45697 -2.54549,-8.8158 -4.22315,-13.17679c0,0 -0.89745,-2.33336 1.43592,-3.23081c2.33336,-0.89745 3.23081,1.43592 3.23081,1.43592c1.33985,3.48432 2.39067,6.96949 3.43851,10.50199c0.57408,-1.31104 1.60951,-2.41696 2.76049,-3.89675c2.80135,-3.60163 5.24489,-5.80737 9.43313,-7.73371l3.00843,-0.45879c0,0 2.48471,-0.27608 2.76079,2.20863z" fill-opacity="0.86275" fill="#000000" stroke-width="0.5"/></g></g></svg>