<svg version="1.1" xmlns="http://www.w3.org/2000/svg" xmlns:xlink="http://www.w3.org/1999/xlink" width="81.4412" height="81.4412" viewBox="0,0,81.4412,81.4412"><defs><radialGradient cx="320" cy="180" r="40.7206" gradientUnits="userSpaceOnUse" id="color-1"><stop offset="0" stop-color="#ff6f00"/><stop offset="1" stop-color="#ff6f00" stop-opacity="0"/></radialGradient></defs><g transform="translate(-279.2794,-139.2794)"><g stroke="#000000" stroke-miterlimit="10"><path d="M279.2794,180c0,-22.48937 18.23123,-40.7206 40.7206,-40.7206c22.48937,0 40.7206,18.23123 40.7206,40.7206c0,22.48937 -18.23123,40.7206 -40.7206,40.7206c-22.48937,0 -40.7206,-18.23123 -40.7206,-40.7206z" fill="url(#color-1)" stroke-width="0" stroke-linecap="butt" stroke-linejoin="miter"/><path d="M308.20914,171.02671l19.59507,-22.54988c0,0 2.37089,4.86274 3.78394,10.11524c1.58141,5.87834 1.33817,9.46804 3.64843,11.18443c2.20371,1.63723 7.46977,0.37184 11.74495,0.09622c5.61291,-0.36186 11.02587,1.0433 11.02587,1.0433c0,0 0.99485,2.91778 -15.7498,19.26018c0,0 1.45217,6.27205 10.14857,20.20963c0,0 -12.54848,0.91795 -27.90855,-12.51073c0,0 -4.05762,0.39561 -17.93496,13.64807c0,0 4.87012,-6.65669 3.23704,-18.10994c0,0 -26.88316,-3.27409 -27.81479,-18.28491c-0.35517,-5.72255 26.22423,-4.10161 26.22423,-4.10161z" fill="#ff6f00" stroke-width="5" stroke-linecap="round" stroke-linejoin="round"/></g></g></svg>