<svg version="1.1" xmlns="http://www.w3.org/2000/svg" xmlns:xlink="http://www.w3.org/1999/xlink" width="48.93982" height="44.49075" viewBox="0,0,48.93982,44.49075"><defs><linearGradient x1="281.8203" y1="153.12213" x2="281.8203" y2="193.3907" gradientUnits="userSpaceOnUse" id="color-1"><stop offset="0" stop-color="#cc52ff"/><stop offset="1" stop-color="#52a8ff"/></linearGradient><linearGradient x1="281.8203" y1="153.12213" x2="281.8203" y2="193.3907" gradientUnits="userSpaceOnUse" id="color-2"><stop offset="0" stop-color="#89209f"/><stop offset="1" stop-color="#204f9f"/></linearGradient></defs><g transform="translate(-258.34815,-151.62213)"><g stroke-miterlimit="10"><path d="" fill="#ee35ff" stroke="#0b6088" stroke-width="0" stroke-linecap="butt" stroke-linejoin="miter"/><path d="M277.00534,168.74723l11.32565,-14.40292c0,0 1.37034,3.1059 2.18706,6.46074c0.91403,3.75458 0.77344,6.04737 2.10874,7.14365c1.27371,1.04572 4.31741,0.2375 6.7884,0.06146c3.24418,-0.23112 6.37278,0.66637 6.37278,0.66637c0,0 0.57501,1.86363 -9.10314,12.30174c0,0 0.83933,4.00604 5.86572,12.90817c0,0 -7.25283,0.58631 -16.13071,-7.99077c0,0 -2.34524,0.25268 -10.36613,8.71721c0,0 2.81485,-4.25172 1.87096,-11.56707c0,0 -15.53805,-2.09121 -16.07652,-11.67882c-0.20528,-3.65507 15.1572,-2.61975 15.1572,-2.61975z" fill="none" stroke-opacity="0.32157" stroke="#5d00ff" stroke-width="3" stroke-linecap="round" stroke-linejoin="round"/><path d="M275.00534,167.52505l11.32565,-14.40292c0,0 1.37034,3.1059 2.18706,6.46074c0.91403,3.75458 0.77344,6.04737 2.10874,7.14365c1.27371,1.04572 4.31741,0.2375 6.7884,0.06146c3.24418,-0.23112 6.37278,0.66637 6.37278,0.66637c0,0 0.57501,1.86363 -9.10314,12.30174c0,0 0.83933,4.00604 5.86572,12.90817c0,0 -7.25283,0.58631 -16.13071,-7.99077c0,0 -2.34524,0.25268 -10.36613,8.71721c0,0 2.81485,-4.25172 1.87096,-11.56707c0,0 -15.53805,-2.09121 -16.07652,-11.67882c-0.20528,-3.65507 15.1572,-2.61975 15.1572,-2.61975z" fill="url(#color-1)" stroke="url(#color-2)" stroke-width="3" stroke-linecap="round" stroke-linejoin="round"/></g></g></svg>