<svg version="1.1" xmlns="http://www.w3.org/2000/svg" xmlns:xlink="http://www.w3.org/1999/xlink" width="382" height="382" viewBox="0,0,382,382"><defs><linearGradient x1="280.46709" y1="158.92371" x2="280.46709" y2="191.00097" gradientUnits="userSpaceOnUse" id="color-1"><stop offset="0" stop-color="#cc52ff"/><stop offset="1" stop-color="#52a8ff"/></linearGradient><linearGradient x1="286.56368" y1="165.63652" x2="286.56368" y2="190.2872" gradientUnits="userSpaceOnUse" id="color-2"><stop offset="0" stop-color="#89209f"/><stop offset="1" stop-color="#204f9f"/></linearGradient><linearGradient x1="279.96957" y1="170.00323" x2="279.96957" y2="179.8699" gradientUnits="userSpaceOnUse" id="color-3"><stop offset="0" stop-color="#89209f"/><stop offset="1" stop-color="#204f9f"/></linearGradient></defs><g transform="translate(-129,11)"><g stroke-miterlimit="10"><path d="M295.50455,179.83531c0.05369,6.81939 -5.27033,12.48548 -12.97657,13.11856c-6.24791,0.51328 -13.43741,-3.17192 -13.49821,-10.89378c-0.05271,-6.69424 3.97481,-12.52509 9.82344,-14.18708c0.18313,-0.05204 1.72096,-0.27261 2.08024,-1.05058c0.1964,-0.42528 -0.83413,-4.16086 1.0099,-5.26306c1.49627,-0.89433 5.9555,0.85609 5.95433,0.24399c-0.00215,-1.13234 -6.5928,-0.84782 -6.5928,-0.84782c0,0 -7.67198,-0.028 -7.66638,0.84767c0.0057,0.89248 4.15755,-1.02379 5.98313,0.0906c2.08812,1.27466 1.89325,5.52777 2.04559,5.52048c7.32997,-0.35088 13.78363,5.60162 13.83733,12.42101z" fill="none" stroke-opacity="0.32157" stroke="#5d00ff" stroke-width="3" stroke-linecap="round"/><path d="M293.70455,177.83531c0.05369,6.81939 -5.27033,12.48548 -12.97657,13.11856c-6.24791,0.51328 -13.43741,-3.17192 -13.49821,-10.89378c-0.05271,-6.69424 3.97481,-12.52509 9.82344,-14.18708c0.18313,-0.05204 1.72096,-0.27261 2.08024,-1.05058c0.1964,-0.42528 -0.83413,-4.16086 1.0099,-5.26306c1.49627,-0.89433 5.9555,0.85609 5.95433,0.24399c-0.00215,-1.13234 -6.5928,-0.84782 -6.5928,-0.84782c0,0 -7.67198,-0.028 -7.66638,0.84767c0.0057,0.89248 4.15755,-1.02379 5.98313,0.0906c2.08812,1.27466 1.89325,5.52777 2.04559,5.52048c7.32997,-0.35088 13.78363,5.60162 13.83733,12.42101z" fill="url(#color-1)" stroke="url(#color-2)" stroke-width="3" stroke-linecap="round"/><path d="M280.1029,179.8699l-0.26667,-9.86667" fill="none" stroke="url(#color-3)" stroke-width="3" stroke-linecap="round"/><path d="M129,371v-382h382v382z" fill="none" stroke="#000000" stroke-width="0" stroke-linecap="butt"/></g></g></svg>