<svg version="1.1" xmlns="http://www.w3.org/2000/svg" xmlns:xlink="http://www.w3.org/1999/xlink" width="988.00299" height="565.57907" viewBox="0,0,988.00299,565.57907"><g transform="translate(175.50299,103.07907)"><g fill="none" stroke="#000000" stroke-miterlimit="10"><path d="M-160,-90h384" stroke-width="15.5" stroke-linecap="square"/><path d="M32,18h384" stroke-width="10" stroke-linecap="round"/><path d="M-160,126h192" stroke-width="10" stroke-linecap="round"/><path d="M800,126h-576" stroke-width="10" stroke-linecap="round"/><path d="M32,234h192" stroke-width="10" stroke-linecap="round"/><path d="M416,234h384" stroke-width="10" stroke-linecap="round"/><path d="M-160,342h768" stroke-width="10" stroke-linecap="round"/><path d="M224,-90v108" stroke-width="10" stroke-linecap="round"/><path d="M224,126v108" stroke-width="10" stroke-linecap="round"/><path d="M608,-90v108" stroke-width="10" stroke-linecap="round"/><path d="M-154.06418,450c-4.93677,0 -8.93881,-3.37568 -8.93881,-7.53981v-525.49945c0,-4.16412 4.00204,-7.53981 8.93881,-7.53981h945.12537c4.93677,0 8.93881,3.37568 8.93881,7.53981v525.49945c0,4.16412 -4.00204,7.53981 -8.93881,7.53981z" stroke-width="25" stroke-linecap="butt"/></g></g></svg>