<svg version="1.1" xmlns="http://www.w3.org/2000/svg" xmlns:xlink="http://www.w3.org/1999/xlink" width="188.2821" height="321.81902" viewBox="0,0,188.2821,321.81902"><g transform="translate(-214.31985,17.82252)"><g stroke="none" stroke-miterlimit="10"><path d="M347.06763,109.41516c0,-0.76452 0.2338,-1.29525 0.5584,-1.66367c0.65443,-5.06497 1.05336,-10.13506 0.70518,-15.1941c-0.09886,-1.43635 0.08749,-13.91685 -1.49533,-14.46672c-1.48778,-0.51686 -5.58792,-0.18292 -7.26825,-0.1755c-14.80944,-0.00001 -29.57031,-0.91819 -44.34466,-0.00483c-0.75181,0.04648 -3.29314,-0.59693 -3.95115,0.68448c-1.31511,2.56101 4.75585,26.85748 5.78082,31.04693c-0.40406,18.95347 -1.26014,53.32805 5.13198,71.03325c12.14896,-2.85486 24.83418,-2.04374 37.22767,-2.75499c1.00943,-0.05793 3.52455,-0.74492 6.11773,-1.29648c-0.1378,-3.66667 -0.57388,-7.74583 0.08212,-11.178c0.44428,-2.32446 1.47171,-4.58203 1.45683,-6.94852c-0.01841,-2.92737 -1.22114,-5.92502 -1.48917,-8.8355c-0.211,-2.29126 -0.19805,-4.60286 -0.48602,-6.88572c-1.74362,-10.62562 0.59328,-21.44771 2.15932,-32.30667c-0.11591,-0.2895 -0.18547,-0.63694 -0.18547,-1.05395zM375.97083,110.08402c3.86449,1.48968 6.87502,2.77765 8.02992,7.25676c1.63826,6.35371 -3.89889,9.1129 -6.10961,13.99703c-0.32016,0.70732 -0.20239,1.54656 -0.42716,2.28972c-1.21701,4.02392 -3.32117,8.12651 -4.99722,11.99058c-0.43845,2.47703 -0.41974,5.38335 1.25537,7.42287c2.11976,2.58091 4.82564,-17.90841 11.00083,-19.12097c1.83266,-0.35986 1.84015,5.60178 3.34466,4.49517c1.38256,-1.01692 9.23636,-6.03601 9.53589,-6.92208c0.28553,-0.84466 -1.68215,-0.99658 -1.92862,-1.85345c-1.32072,-4.59159 0.24021,-10.52047 -0.57786,-15.34216c-2.03436,-14.24048 -9.30745,-25.77216 -24.12745,-29.45489c-5.79316,-1.43958 -11.46649,-0.01797 -17.08875,-1.5236c0,0 -0.12467,-0.03562 -0.30911,-0.11903c0.81275,6.35785 0.22699,14.94897 -0.70649,23.71544c8.0552,0.00689 15.30171,0.16039 23.1056,3.16864zM355.25443,78.51135c5.305,1.64896 11.25874,0.05591 16.91125,1.4764c16.74584,4.20827 25.55154,17.29804 27.87255,33.54511c0.76022,4.63541 -0.67406,10.23647 0.42213,14.65784c0.3718,1.49964 2.55764,2.68001 2.07139,4.14654c-0.76846,2.31767 -12.01134,10.79099 -14.46411,11.07792c-1.52124,0.17795 -2.95432,-1.2088 -3.91938,-2.39813c-0.0366,-0.04511 -0.06463,-0.10171 -0.0853,-0.16721c-1.06246,5.58518 -3.89392,18.07331 -7.90562,18.4948c-8.40512,0.88309 -9.32335,-9.93081 -8.48885,-15.1324c1.63962,-3.86782 3.80872,-7.99515 5.00279,-12.00942c0.26326,-0.88506 0.18117,-1.87408 0.57285,-2.71028c1.43833,-3.07075 6.80791,-7.06625 5.89039,-11.00297c-0.5868,-2.51771 -2.8616,-2.93433 -4.97008,-3.74323c-7.39238,-2.83607 -14.19792,-2.83893 -21.86142,-2.83193c-1.46125,12.45457 -3.22212,24.47351 -2.26153,30.14016c0.29251,2.35954 0.30178,4.74616 0.51398,7.11427c0.27044,3.01809 1.52411,6.12199 1.51083,9.16451c-0.01193,2.73265 -0.98126,5.3772 -1.54317,8.05148c-0.5961,2.83703 -0.22676,6.36292 -0.04207,9.54179c1.08441,-0.00719 1.91614,0.17107 2.28039,0.64982c1.58671,2.0855 -1.76196,27.24738 -2.11264,31.45546c-0.37209,15.61046 1.6449,30.7486 2.90666,46.13695c0.1796,2.19035 0.34919,4.42527 -0.01199,6.5931c-0.29854,1.79179 -3.07733,3.55123 -2.0499,5.04924c1.93939,2.82765 7.92098,6.08421 10.63971,8.38467c3.45816,2.92613 27.47792,22.07843 27.60362,24.53182c0.61968,12.09492 -38.79953,-0.27452 -43.91561,-1.32466c-7.33522,0.0396 -14.42831,-0.98783 -21.75366,-0.98783l-2.11803,-0.76394c0,0 -0.9687,-0.48435 -1.31213,-1.45306c-2.93424,0.42131 -8.41111,0.37442 -10.04079,0.39294c-12.34137,0.14024 -24.68689,0.38637 -37.02905,0.38653h-0.29028c0.20076,0.09884 0.34296,0.16878 0.40831,0.20144c0,0 2.23607,1.11803 1.11804,3.3541c-1.11804,2.23607 -3.3541,1.11804 -3.3541,1.11804c-1.35137,-0.67604 -6.80041,-3.29514 -7.97458,-4.309c-15.96965,-13.78929 11.47496,-20.18251 20.73987,-21.39454c1.25776,-0.16454 3.33924,1.72803 3.76777,0.53413c1.5731,-4.3827 0.91442,-11.06859 1.59126,-15.74387c-0.00554,-15.11689 -5.16182,-69.70935 7.53701,-76.63247c0.08526,-0.02835 0.17054,-0.05647 0.25586,-0.08438c-4.94617,-14.26706 -5.75229,-38.45696 -5.58386,-57.46465c-0.06592,-0.03706 -0.10204,-0.06115 -0.10204,-0.06115l-0.11325,-0.58012c-4.49297,0 -8.84468,0.14963 -13.2938,0.49148c-2.4603,0.18904 -3.32203,-0.3434 -5.46467,0.39602c-2.96354,1.02269 -5.96111,2.29175 -8.88164,3.45996c-18.25804,6.07901 11.70721,13.19256 -2.41977,24.19608c-5.11286,3.98241 -12.2491,-0.84495 -17.18122,-0.05698c-5.26288,0.8408 -11.38303,11.5829 -16.39638,14.35995c-3.54814,0.65425 -3.9445,1.29871 -7.49696,-0.61872c-8.23158,-4.44296 -7.47054,-16.39785 -1.74797,-22.87293c1.89457,-2.14371 8.17382,-4.56302 9.30844,-7.06555c3.98597,-8.79147 0.20533,-19.59461 4.88246,-28.99233c10.16277,-16.45586 34.23513,-30.02692 53.70755,-30.2931c0.07431,-0.27446 0.16707,-0.50384 0.27978,-0.68351c4.24806,-6.77169 43.91627,-3.32035 52.70419,-3.32036c1.8626,0.00698 8.26435,-0.10073 9.73175,0.8245c1.60917,1.01462 2.72224,2.88414 3.45571,5.38043c0.96738,-1.04645 2.49935,-0.60874 2.49935,-0.60874zM237.25914,109.61818c-4.60197,9.15482 -0.59792,20.20897 -4.85013,28.93249c-2.69466,5.52817 -10.07607,6.27393 -12.4767,12.67583c-1.7642,4.70469 -0.10321,12.35355 6.2728,10.84216c6.53707,-3.64595 10.04346,-13.35385 17.60361,-14.64006c4.30285,-0.73205 10.47277,3.86261 14.81878,0.94302c8.25334,-5.54448 -20.64861,-16.71853 3.58023,-24.80393c2.97308,-1.18923 6.08794,-2.55863 9.11836,-3.54003c2.0813,-0.67403 4.35406,-0.43601 6.53533,-0.60399c4.58616,-0.35317 9.07775,-0.50852 13.7062,-0.50852l0.29127,0.14326c0.05941,-3.20123 0.14009,-6.18699 0.22373,-8.86984c-0.96364,-3.76223 -4.87513,-19.42728 -5.61626,-28.26986c-17.16139,0.24592 -40.64611,12.79126 -49.20722,27.69946zM348.06763,182.41516c-0.69256,0 -1.19326,-0.19185 -1.55525,-0.46926c-0.83369,0.16931 -1.68249,0.28661 -2.51807,0.43258c-4.12196,0.72008 -4.6636,0.53415 -8.92668,0.53668c-11.65291,0.0069 -24.90033,0.08358 -36.04329,3.8097c-4.50661,1.87986 -4.79507,11.61115 -5.48611,16.07261c-1.2152,7.84545 1.05101,16.04376 1.52457,23.96236c0.64364,10.76264 -0.49757,21.60688 -0.50146,32.33256c-0.69142,4.89922 -0.09175,15.38476 -3.40873,19.25614c-0.89243,1.04158 -2.70943,0.44482 -4.07563,0.56662c-4.30431,0.38376 -31.80695,3.20367 -20.41674,12.57295c0.34265,0.28185 1.60915,0.96332 2.97727,1.66653c-0.04492,-0.20236 -0.06988,-0.42719 -0.06988,-0.67697c0,-2.5 2.5,-2.5 2.5,-2.5h1.5c8.99064,0.00012 17.98285,-0.17042 26.97288,-0.27258c4.91616,-0.05586 10.09888,-0.54375 14.99903,-0.17044c1.10406,0.08411 2.14333,0.71028 3.25031,0.68533c0.34514,-0.00778 -0.65148,-0.40441 -0.72222,-0.74231c-0.18288,-0.87347 -0.06661,-1.78779 0.00629,-2.67722c0.2679,-3.26866 0.49353,-6.27441 0.50588,-9.56912c3.79771,-18.98855 0.85941,-38.59902 4.02184,-57.66466c0,0 0.411,-2.46598 2.87699,-2.05499c2.46598,0.411 2.05498,2.87698 2.05498,2.87698c-3.17144,18.93142 -0.20424,38.46579 -3.97815,57.33535c0.01736,3.92948 -0.06436,7.86131 -0.48783,11.75365c-0.04759,0.43739 -0.02219,0.92977 0.00199,1.4257c0.63112,0.03328 1.11604,0.27574 1.11604,0.27574l-0.11803,0.23607c7.48936,0 14.75151,0.97896 22.24634,1.01216c8.50322,1.66267 16.69243,3.99346 25.15411,5.52011c2.9583,0.53374 4.91242,1.1136 7.9986,0.9684c1.75634,-0.08263 6.72733,0.76525 5.27031,-0.21895c-9.07351,-6.12898 -17.38248,-13.53334 -25.83342,-20.68414c-3.10985,-2.63141 -10.69567,-7.2854 -12.26188,-10.99359c-0.58398,-1.38265 1.93045,-7.06856 1.92594,-9.104c-0.03742,-16.86079 -3.32636,-33.12126 -2.91164,-50.15126c0.72668,-8.72031 1.58336,-17.04055 3.28907,-25.47172c-0.25149,0.07796 -0.54195,0.12298 -0.87743,0.12298z" fill-opacity="0.86275" fill="#000000" stroke-width="0.5"/><path d="M347.10819,109.38593c0,0.41701 0.07039,0.76564 0.1863,1.05514c-1.56604,10.85896 -3.90035,21.73287 -2.15673,32.35849c0.28797,2.28286 0.27013,4.60185 0.48113,6.89311c0.26803,2.91048 1.46568,5.91361 1.48409,8.84098c0.01488,2.36649 -1.0176,4.62817 -1.46188,6.95263c-0.656,3.43217 -0.22506,7.51454 -0.08726,11.18121c-2.59318,0.55156 -5.11346,1.24098 -6.12289,1.29891c-12.39349,0.71125 -25.1135,-0.09893 -37.26246,2.75593c-6.39212,-17.7052 -5.55789,-52.15962 -5.15383,-71.11309c-1.02497,-4.18945 -7.08252,-28.49695 -5.76741,-31.05796c0.65801,-1.28141 3.20229,-0.63954 3.9541,-0.68602c14.77435,-0.91336 29.57488,0.00327 44.38432,0.00328c1.68033,-0.00742 5.78587,-0.33889 7.27365,0.17797c1.58282,0.54987 1.40383,13.03514 1.50269,14.47149c0.34818,5.05904 -0.04185,10.13811 -0.69628,15.20308c-0.3246,0.36842 -0.55753,0.90032 -0.55753,1.66484z" fill-opacity="0.86275" fill="#00f2ff" stroke-width="0.5"/><path d="M375.96641,110.13386c-7.80389,-3.00825 -15.09061,-3.23412 -23.14581,-3.24101c0.93348,-8.76647 1.53755,-17.37755 0.7248,-23.7354c0.18444,0.08341 0.30932,0.1189 0.30932,0.1189c5.62226,1.50563 11.31534,0.07707 17.1085,1.51665c14.82,3.68273 22.14849,15.25428 24.18285,29.49476c0.81807,4.82169 -0.74825,10.78467 0.57247,15.37626c0.24647,0.85687 2.2135,1.00992 1.92797,1.85458c-0.29953,0.88607 -8.16953,5.92186 -9.55209,6.93878c-1.50451,1.10661 -1.51296,-4.85444 -3.34562,-4.49458c-6.17519,1.21256 -8.90911,21.70903 -11.02887,19.12812c-1.67511,-2.03952 -1.68658,-5.04554 -1.24813,-7.52257c1.67605,-3.86407 3.76803,-7.96641 4.98504,-11.99033c0.22477,-0.74316 0.10424,-1.58192 0.4244,-2.28924c2.21072,-4.88413 7.70801,-7.58924 6.06975,-13.94295c-1.1549,-4.47911 -4.1201,-5.72234 -7.98459,-7.21202z" fill-opacity="0.86275" fill="#efff00" stroke-width="0.5"/><path d="M237.21774,109.59014c8.56111,-14.9082 32.11765,-27.46519 49.27904,-27.71111c0.74113,8.84258 4.66973,24.53178 5.63337,28.29401c-0.08364,2.68285 -0.16202,5.67997 -0.22143,8.8812l-0.3909,-0.13468c-4.62845,0 -9.11988,0.15691 -13.70604,0.51008c-2.18127,0.16798 -4.35482,-0.08254 -6.43612,0.59149c-3.03042,0.9814 -6.14608,2.36836 -9.11916,3.55759c-24.22884,8.0854 4.62992,19.29811 -3.62342,24.84259c-4.34601,2.91959 -10.54272,-1.67948 -14.84557,-0.94743c-7.56015,1.28621 -11.075,10.98908 -17.61207,14.63503c-6.37601,1.51139 -8.04609,-6.14613 -6.28189,-10.85082c2.40063,-6.4019 9.77998,-7.15037 12.47464,-12.67854c4.25221,-8.72352 0.24758,-19.83458 4.84955,-28.9894z" fill-opacity="0.86275" fill="#efff00" stroke-width="0.5"/><path d="M348.08644,182.36882c0.33548,0 0.6265,-0.04479 0.87799,-0.12275c-1.70571,8.43117 -2.55462,16.75551 -3.2813,25.47582c-0.41472,17.03 2.88766,33.36167 2.92508,50.22246c0.00451,2.03544 -2.51838,7.73045 -1.9344,9.1131c1.56621,3.70819 9.08606,8.28706 12.19591,10.91847c8.45094,7.1508 16.75777,14.55725 25.83128,20.68623c1.45702,0.9842 -3.44368,0.20741 -5.20002,0.29004c-3.08618,0.1452 -5.04291,-0.43236 -8.00121,-0.9661c-8.46168,-1.52665 -16.66316,-3.85004 -25.16638,-5.51271c-7.49483,-0.0332 -14.77678,-1.00824 -22.26614,-1.00824l0.11814,-0.23607c0,0 -0.48603,-0.24248 -1.11715,-0.27576c-0.02418,-0.49593 -0.04678,-1.08827 0.00081,-1.52566c0.42347,-3.89234 0.50498,-7.82418 0.48762,-11.75366c3.77391,-18.86956 0.79796,-38.30452 3.9694,-57.23594c0,0 0.41632,-2.46546 -2.04966,-2.87646c-2.46599,-0.41099 -2.87037,2.05484 -2.87037,2.05484c-3.16243,19.06564 -0.22062,38.57694 -4.01833,57.56549c-0.01235,3.29471 -0.23906,6.3003 -0.50696,9.56896c-0.0729,0.88943 -0.18953,1.8037 -0.00665,2.67717c0.07074,0.3379 1.05521,0.83379 0.71007,0.84157c-1.10698,0.02495 -2.14954,-0.60171 -3.2536,-0.68582c-4.90015,-0.37331 -10.09579,0.11035 -15.01195,0.16621c-8.99003,0.10216 -17.99623,0.26257 -26.98687,0.26245l-1.5005,-0.00052c0,0 -2.4273,-0.06866 -2.4273,2.43134c0,0.24978 -0.04745,0.54358 -0.00253,0.74594c-1.36812,-0.70321 -2.63605,-1.38624 -2.9787,-1.66809c-11.39021,-9.36928 16.18484,-12.25805 20.48915,-12.64181c1.3662,-0.1218 3.11524,0.54827 4.00767,-0.49331c3.31698,-3.87138 2.70787,-14.36809 3.39929,-19.26731c0.00389,-10.72568 1.14234,-21.61751 0.4987,-32.38015c-0.47356,-7.9186 -2.72619,-16.13435 -1.51099,-23.9798c0.69104,-4.46146 0.98982,-14.19927 5.49643,-16.07913c11.14296,-3.72612 24.42079,-3.80677 36.0737,-3.81367c4.26308,-0.00253 4.81159,0.18517 8.93355,-0.53491c0.83558,-0.14597 1.68607,-0.26267 2.51976,-0.43198c0.36199,0.27741 0.86389,0.46973 1.55645,0.46973z" fill-opacity="0.86275" fill="#ff007b" stroke-width="0.25"/><path d="M312.28057,75.0538c0.34781,0.59436 0.5221,1.43991 -0.12481,2.47497c-1.325,2.12 -3.44499,0.795 -3.44499,0.795c-20.26388,-12.66492 -39.18153,-31.22254 -47.04671,-54.32943c-6.58902,-20.38075 23.8738,-39.09688 40.97125,-41.25829c8.3464,-1.05513 18.57461,-0.52417 26.77618,0.82941c28.08596,5.45421 53.79744,20.02449 42.99598,52.42888c-0.41503,1.17459 -0.61239,2.45063 -1.24508,3.52376c-0.50831,0.86216 -1.54335,1.31469 -2.09852,2.14745c-3.76735,5.65102 -6.80113,12.67126 -12.71378,16.66485c-0.87351,0.59 -2.12306,0.41512 -3,1c-1.15666,0.77144 -1.76471,2.21473 -2.9381,2.96048c-1.42307,0.90443 -3.2289,1.05184 -4.69248,1.88914c-0.96979,0.55481 -1.50252,1.73299 -2.50416,2.22798c-3.27846,1.62013 -7.66982,1.98346 -10.86526,3.92241c-0.80603,0.48909 -1.19084,1.51612 -2,2c-0.97415,0.58254 -2.19896,0.61512 -3.21595,1.11916c-1.19438,0.59196 -2.10342,1.74347 -3.37392,2.14694c-0.42844,0.13606 -5.94107,0.10727 -6.72446,0.10727h-3c0,0 -1.01838,0 -1.75519,-0.64997zM311.8122,74.45595c-0.16956,-0.32525 -0.27643,-0.73528 -0.27643,-1.25219c0,-2.5 2.5,-2.5 2.5,-2.5h3c1.75888,0 3.61862,0.69741 5.27554,0.10727c1.00925,-0.35946 1.66988,-1.36986 2.62608,-1.85306c0.86874,-0.439 1.95021,-0.37872 2.78405,-0.88084c0.80768,-0.48636 1.18945,-1.51844 2,-2c3.3407,-1.98478 7.76102,-2.40892 11.13474,-4.07759c0.90254,-0.4464 1.33657,-1.55901 2.21107,-2.05812c1.43058,-0.81648 3.20208,-0.94128 4.59228,-1.82477c1.21376,-0.77136 1.86515,-2.24203 3.0619,-3.03952c0.87717,-0.58453 2.11882,-0.42153 3,-1c1.74175,-1.14341 3.08238,-2.829 4.38097,-4.45835c2.7154,-3.40701 4.52725,-7.30981 6.90525,-10.8768c0.93908,-1.40862 2.16271,-2.70942 2.6564,-4.32879c9.70674,-29.12021 -14.08204,-41.0642 -39.14008,-45.92713c-7.66092,-1.29055 -17.29054,-1.77606 -25.08776,-0.81458c-13.42019,1.65486 -42.87493,17.86333 -37.02875,34.74171c7.13036,21.9617 25.8783,39.7487 44.95329,51.67057c0,0 0.20713,0.12946 0.45144,0.37218z" fill-opacity="0.86275" fill="#000000" stroke-width="0.5"/><path d="M311.80543,74.50548c-0.24431,-0.24272 -0.452,-0.37226 -0.452,-0.37226c-19.07499,-11.92187 -37.86495,-29.7664 -44.99531,-51.7281c-5.84618,-16.87838 23.64214,-33.12623 37.06233,-34.78109c7.79722,-0.96148 17.45492,-0.47698 25.11584,0.81357c25.05804,4.86293 48.88437,16.85898 39.17763,45.97919c-0.49369,1.61937 -1.71788,2.92485 -2.65696,4.33347c-2.378,3.56699 -4.19384,7.48264 -6.90924,10.88965c-1.29859,1.62935 -2.64256,3.32097 -4.38431,4.46438c-0.88118,0.57847 -2.12455,0.41795 -3.00172,1.00248c-1.19675,0.79749 -1.85149,2.27223 -3.06525,3.04359c-1.3902,0.88349 -3.16583,1.01232 -4.59641,1.8288c-0.8745,0.49911 -1.31157,1.61416 -2.21411,2.06056c-3.37372,1.66867 -7.80774,2.09998 -11.14844,4.08476c-0.81055,0.48156 -1.19547,1.51459 -2.00315,2.00095c-0.83384,0.50212 -1.91898,0.44267 -2.78772,0.88167c-0.9562,0.4832 -1.62042,1.49414 -2.62967,1.8536c-1.65692,0.59014 -3.52322,-0.10696 -5.2821,-0.10696l-3.00374,-0.00021c0,0 -2.50262,-0.00031 -2.50262,2.49969c0,0.51691 0.1209,0.82793 0.29046,1.15318z" fill-opacity="0.86275" fill="#efff00" stroke-width="0.5"/><path d="M310.6174,5.55173c2.5,0 2.5,2.5 2.5,2.5v0.75c-0.01022,8.64284 -0.51368,17.12096 0.2406,25.78343c0,0 0.21657,2.4906 -2.27403,2.70718c-2.4906,0.21657 -2.70718,-2.27403 -2.70718,-2.27403c-0.76501,-8.80944 -0.24792,-17.42934 -0.2594,-26.21657v-0.75c0,0 0,-2.5 2.5,-2.5z" fill-opacity="0.86275" fill="#000000" stroke-width="0.5"/><path d="M338.92914,-6.15044c1.95217,1.56174 0.39043,3.51391 0.39043,3.51391l-0.87205,1.07501c-2.45793,3.68642 -4.0551,7.52889 -6.0917,11.3367c-0.07104,5.50112 -0.46244,11.07671 -1.00083,16.52531l0.01241,1.00124c0,0 0,2.5 -2.5,2.5c-2.5,0 -2.5,-2.5 -2.5,-2.5l0.01241,-1.49876c0.31,-3.05985 0.56667,-6.16633 0.74058,-9.27642c-1.2309,-0.32672 -2.38175,-1.81182 -3.4766,-2.61483c-5.34674,-3.92153 -8.87724,-10.0581 -15.20486,-12.5388c0,0 -2.32119,-0.92848 -1.39272,-3.24967c0.92848,-2.32119 3.24967,-1.39272 3.24967,-1.39272c5.33937,2.17022 8.91078,6.19606 13.0731,10.08366c1.207,1.12734 2.61259,2.07406 3.62085,3.38216c0.09967,0.12931 0.13619,0.39443 0.14252,0.66675c0.05518,-0.51131 0.13227,-1.01454 0.22917,-1.51045c0.00407,-0.43426 0.00606,-0.86795 0.00588,-1.30092c0,0 0,-1.3241 0.96363,-2.04503c1.39733,-3.66511 3.72072,-6.98799 5.95625,-10.34172l1.12795,-1.42499c0,0 1.56174,-1.95217 3.51391,-0.39043z" fill-opacity="0.86275" fill="#000000" stroke-width="0.5"/><path d="M341.65797,48.92344c-1.57397,0.52466 -2.45157,-0.34343 -2.86387,-0.98676c-3.58129,-0.61496 -5.82678,1.30222 -8.83697,3.7945c-3.7134,3.07449 -7.30705,6.31152 -10.95568,9.46261c0,0 -1.89206,1.63405 -3.52611,-0.25801c-1.63405,-1.89206 0.25801,-3.52611 0.25801,-3.52611c7.1546,-6.17897 15.13367,-16.66798 25.54184,-14.01985l1.96391,2.37134c0,0 0.79057,2.37171 -1.58114,3.16228z" fill-opacity="0.86275" fill="#000000" stroke-width="0.5"/></g></g></svg>