<svg version="1.1" xmlns="http://www.w3.org/2000/svg" xmlns:xlink="http://www.w3.org/1999/xlink" width="564.81583" height="331.28306" viewBox="0,0,564.81583,331.28306"><defs><radialGradient cx="295.58814" cy="78.82681" r="98.1548" gradientUnits="userSpaceOnUse" id="color-1"><stop offset="0" stop-color="#ff0000"/><stop offset="1" stop-color="#ff0000" stop-opacity="0"/></radialGradient></defs><g transform="translate(-64.38411,19.32799)"><g stroke-miterlimit="10"><path d="M78.36031,183.41799l14.16004,-80.45475c0,0 185.89753,-3.45029 242.66949,-2.75654c29.60476,0.36177 73.35678,6.61837 73.35678,6.61837l61.78925,57.92742z" fill="#000000" stroke="#000000" stroke-width="0"/><g stroke="none"><g><path d="M316.04804,89.88239c0.43929,-7.94068 0.44689,-15.98672 0.44689,-23.9359l-0.03697,-0.32613c4.70876,-0.58591 9.66133,-1.1739 14.42601,-1.64436c-1.40513,9.28331 -2.59325,19.11715 -2.6671,28.5063c-4.21019,-0.23105 -8.49904,-0.43778 -12.70708,-0.59499c0.488,-1.04158 0.53828,-2.00494 0.53828,-2.00494z" fill="#ffffff" stroke-width="0.25"/><path d="M340.36023,65.38594l0.02775,-2.16914c9.52951,-0.53197 17.98969,-0.16309 22.80544,2.21626c2.66443,1.31643 -2.81331,24.44304 -3.84515,29.15091c-7.1476,-0.53727 -14.40495,-1.07834 -21.54864,-1.54038c-0.02361,-9.06752 1.15655,-18.68554 2.56062,-27.65766z" fill="#0084ff" stroke-width="0.25"/><path d="M306.50741,89.32064c0,0 -0.06635,1.10596 0.39411,2.28541c-7.79529,-0.1722 -15.7178,-0.15924 -23.50304,0.0864l-0.0121,-1.62065c-0.53584,-6.32066 -1.64806,-12.69314 -3.06762,-18.8829c-0.29679,-1.29408 -1.4611,-2.54896 -1.1183,-3.83161c0.18043,-0.67509 1.2328,0.7697 1.9296,0.82254c3.04945,0.23125 6.16454,-0.01716 9.22275,-0.01166c4.23225,-0.00163 10.09173,-0.55691 16.57694,-1.33305c-0.00021,7.47555 -0.00542,15.01369 -0.42235,22.48551z" fill="#ff0000" stroke-width="0.25"/><path d="M193.91037,109.60317c0.38716,-0.46377 1.20785,-1.59714 1.31281,-3.02065c7.76021,-0.27386 15.58587,-0.49161 23.35476,-0.67217c-8.27669,13.51876 -12.34818,32.31088 -12.90548,47.63009c0.39233,0.53966 0.75098,1.11596 1.09488,1.70789c-9.31537,-0.07367 -18.75554,-0.2677 -28.05173,0.02599c-1.74588,0.05516 -3.52802,0.04532 -5.23246,0.42754c-1.40597,0.31528 -2.64181,2.09278 -4.00625,1.62968c-0.15932,-0.05409 -0.22794,-0.13284 -0.22821,-0.22947c0.15978,-0.18114 0.44369,-0.51969 0.57589,-0.73957c0.52527,-0.47305 1.23363,-0.91068 1.52637,-1.38695c0.86371,-1.40519 1.49945,-2.94024 2.27088,-4.39813c1.83445,-3.46682 3.49487,-7.03502 5.24894,-10.54319c5.02409,-10.04814 10.35635,-20.21594 15.03959,-30.43107z" fill="#ffffff" stroke-width="0.5"/><path d="M163.46309,149.4432c-7.61257,1.21882 -15.21485,0.80904 -22.90044,1.05559c-16.84658,0.54043 -34.30232,0.51624 -51.24568,1.89821c2.74796,-11.40012 5.4011,-22.85707 7.29808,-34.23957c0.46368,-2.78222 -1.69989,-6.78837 0.57217,-8.45975c1.22831,-0.90357 9.9324,-0.59081 10.76857,-0.58449c25.48639,-0.02264 51.10906,-1.11623 76.59477,-2.08065c-6.05395,13.15428 -12.77456,26.18718 -19.36896,39.06603c-0.48179,0.94093 -1.10042,2.08882 -1.71848,3.34461z" fill="#000000" stroke-width="0.5"/><path d="M246.58218,151.77381c-5.64844,0.17568 -29.94678,3.26711 -31.69443,-0.79901c1.48741,-13.56392 5.2337,-30.90234 13.21651,-42.16466l1.06792,-3.07572c3.83328,-0.0563 7.67339,-0.10335 11.50976,-0.11661c31.50017,-5.7273 63.12492,-4.97162 94.71526,-3.04149c2.76066,15.3675 0.78756,32.671 0.70988,48.29517c-29.74782,-0.00829 -59.78824,-0.02252 -89.52491,0.90231z" fill="#000000" stroke-width="0.5"/><path d="M345.11823,103.20768c7.26406,0.48713 14.54601,0.99231 21.82891,1.48264c19.97786,5.46026 39.40475,6.42141 56.2952,19.94337c11.2716,9.02367 23.57549,25.44786 36.19364,34.90639c-38.1367,-0.63797 -75.72441,-8.14278 -113.82724,-8.64519c0.06368,-15.4925 1.72348,-32.28063 -0.4905,-47.68723z" fill="#000000" stroke-width="0.5"/><g><path d="M306.42984,89.26267c0.41692,-7.47181 0.42752,-14.88746 0.42773,-22.36301c-6.48521,0.77613 -12.24974,1.36099 -16.48198,1.36262c-3.05821,-0.0055 -6.12517,0.21475 -9.17462,-0.0165c-0.6968,-0.05283 -1.74666,-1.50044 -1.92709,-0.82535c-0.3428,1.28265 0.82986,2.52626 1.12665,3.82034c1.41956,6.18976 2.51448,12.43809 3.05032,18.75875l0.00695,1.61637c7.78524,-0.24564 15.57611,-0.24645 23.3714,-0.07426c-0.46046,-1.17944 -0.39938,-2.27896 -0.39938,-2.27896zM316.09868,89.79983c0,0 -0.05342,0.96152 -0.54142,2.0031c4.20804,0.15721 8.41724,0.35698 12.62742,0.58804c0.07385,-9.38916 1.24816,-19.04642 2.65329,-28.32973c-4.76468,0.47046 -9.62561,1.05863 -14.33438,1.64453l0.03771,0.32572c0,7.94918 -0.00335,15.82767 -0.44264,23.76835zM340.41996,65.46221c-1.40407,8.97212 -2.57851,18.4425 -2.5549,27.51002c7.14369,0.46203 14.28978,0.9892 21.43738,1.52647c1.03184,-4.70787 6.48972,-27.67805 3.8253,-28.99448c-4.81575,-2.37936 -13.1562,-2.73901 -22.68571,-2.20704l-0.02208,2.16502zM369.06633,57.85515c8.4895,6.63364 2.09084,27.7061 -0.04716,37.44712c21.512,5.80683 41.90566,7.18969 60.13467,21.76296c10.10097,8.07528 34.61962,36.74867 43.34141,39.11681c40.45891,6.06405 89.1008,-5.59063 127.16373,11.87558c8.0705,6.07336 18.12412,9.09864 24.12818,17.93697c8.84791,13.02463 6.74646,77.26672 -5.55551,87.7606c-5.2,4.43572 -11.96827,3.34891 -18.00729,3.39392c-9.11207,0 -17.63509,0.12529 -26.39288,-1.22811c-10.59035,17.88092 -31.53182,33.77647 -58.06531,36.02586c0,0 -4.82516,0.40209 -5.22725,-4.42306c-0.19929,-2.39148 0.88548,-3.69646 2.03043,-4.40446c-2.31688,-1.28232 -4.62029,-2.58909 -6.90707,-3.92397c-11.39156,-5.69833 -19.03826,-12.28479 -23.61248,-19.18253c-50.49914,-4.08695 -101.7645,-2.94919 -152.1845,1.44034c-11.00764,0.84706 -87.96141,3.93114 -93.59902,-0.37927c-0.18083,-0.13826 -0.35129,-0.28424 -0.51221,-0.4373c-0.28447,0.3443 -0.50437,0.53669 -0.50437,0.53669l-3.24613,2.82611c-5.80204,5.65171 -7.61287,13.48858 -14.56237,18.37793c-10.01221,7.04414 -23.28478,8.25455 -35.11781,7.84386c-5.6991,-0.1978 -11.37828,-0.11452 -16.70082,-2.62124c-2.57005,-1.21041 -4.67272,-3.23215 -7.00908,-4.84821c-5.60939,-7.55184 -14.85997,-16.39138 -18.07029,-25.71132c-0.11173,-0.02034 -0.17384,-0.03587 -0.17384,-0.03587c-47.37388,-11.84813 -88.35714,4.65233 -72.52589,-63.08264c-1.23983,-0.5898 -2.51133,-1.79951 -2.51133,-4.28072c0,-3.47523 2.49434,-4.45614 3.90242,-4.73299c1.59871,-9.52217 4.54654,-25.50502 7.74249,-42.01224c-1.42514,-0.40987 -3.37647,-1.53232 -3.37647,-4.6061c0,-4.84188 4.84188,-4.84188 4.84188,-4.84188l-0.16538,0.0374c0.18374,-0.02274 0.36754,-0.04524 0.55141,-0.06755c4.97848,-25.25706 10.04546,-49.08355 11.24534,-50.1524c5.01775,-4.46983 12.02763,-3.74324 17.96093,-3.77988c43.96197,0.04203 87.75489,-3.64214 131.86018,-3.46188c11.28431,-2.05168 22.58511,-3.30203 33.89882,-3.97181l0.00678,-1.24812c-0.50483,-6.17673 -2.96029,-12.54838 -3.04221,-18.66679c-0.04923,-3.6775 -1.00682,-7.98003 1.12665,-10.97582c2.49957,-3.50988 15.8679,-2.57824 18.49061,-2.58258c16.26189,0.00653 67.19924,-9.70281 78.6908,-0.72338zM156.77503,173.46628c0,0 2.99428,0 4.27348,2.35468c26.17037,-1.81049 54.77512,2.04029 75.93412,-0.6046c44.15202,-0.06461 87.99354,-2.18526 132.16068,-2.18526c41.05256,0 81.34982,6.62993 122.28583,6.52772c37.05692,0 69.88397,9.77662 105.53216,17.96641c0,0 0.84737,0.19553 1.74098,0.77999c3.07957,-4.33402 7.43991,-7.7801 12.48765,-9.75127l1.49511,-0.64521c-5.21798,-4.84443 -12.33203,-7.30719 -17.98783,-11.53512c-33.69612,-15.68288 -87.3515,-5.19721 -124.37084,-10.75383c-0.36332,-0.12265 -0.72657,-0.25426 -1.08971,-0.39448c-0.52653,3.99893 -4.78873,3.99893 -4.78873,3.99893c-41.23897,0 -81.55417,-8.70362 -122.72102,-8.70362c-15.26458,0 -102.65286,4.27364 -125.10665,2.22157c-1.34122,2.13023 -4.14207,2.13023 -4.14207,2.13023c-12.64513,0 -25.97948,1.32148 -38.52988,0.431c-3.91621,-0.27787 -9.04839,1.29425 -11.66434,-1.63332c-1.08578,-1.21512 -1.59029,-2.65538 -1.70182,-4.19953c-6.57736,0.60644 -13.12195,0.39717 -19.78153,0.61321c-9.73541,0.31583 -19.38498,1.40031 -29.0986,1.73883c-8.2921,0.289 -16.50056,0.08342 -24.72602,0.5854c-1.10796,4.60889 -2.19819,9.21992 -3.22636,13.83344c5.02267,-0.95774 11.82113,-0.16408 15.1463,-0.16408c19.41853,0 38.49984,-2.59974 57.87905,-2.61109zM116.18491,202.66394c-1.04075,1.08239 -2.03698,2.22728 -2.98571,3.43808c-9.75052,7.42521 -23.42109,6.94749 -35.58701,8.08353c-0.01375,0.17892 -0.02723,0.35783 -0.04044,0.53675c-13.61703,58.32263 18.20565,42.76612 60.96639,51.9192c-4.53893,-44.69826 46.3818,-48.3751 77.27209,-22.58409c7.9272,5.2741 17.5203,10.49539 22.94616,18.68599c1.98879,3.0022 0.36591,7.94345 3.02573,10.37117c0.34625,0.31604 12.54192,-0.86222 13.77896,-0.86222c24.33621,0 49.25338,1.44516 73.51053,-0.45035c49.18798,-4.27224 99.13493,-5.45064 148.44736,-1.84677c-7.40997,-29.29929 32.50484,-59.20307 71.76043,-48.54534c30.02859,2.68418 37.15374,24.03187 29.00329,45.35317c7.23502,0.84673 14.36316,0.7023 21.94169,0.7023c0.68702,0.0062 9.48566,0.81051 11.58503,-0.9579c3.82142,-3.21902 6.3534,-19.03205 7.21903,-35.41958c-6.77319,0.30827 -18.20455,0.2622 -22.52447,-5.29252c-2.02795,-2.60762 -1.98558,-6.33709 -2.40622,-9.61357c-0.40869,-3.18338 -0.18128,-6.30147 0.57369,-9.24684c-34.8782,-8.08669 -66.99236,-17.69238 -103.24228,-17.69238c-40.95117,-0.08963 -81.23042,-6.52772 -122.28583,-6.52772c-43.96764,0 -87.60688,2.23755 -131.55895,2.16655c-32.86312,4.10789 -87.23131,-9.28265 -116.45601,13.34571c-0.75092,0.97903 -1.69733,2.02418 -2.84575,3.14342c-0.60004,0.58478 -1.31695,0.99076 -2.0977,1.2934zM98.1751,194.45045c0.1189,0.01658 0.23818,0.03316 0.35762,0.04974c-0.06265,-0.11808 -0.12058,-0.23907 -0.17349,-0.36271c-0.06294,0.101 -0.12434,0.2053 -0.18413,0.313zM619.34367,221.38278c0.11837,-9.99224 -0.43019,-19.29318 -1.73506,-25.05282l-3.10932,1.32474c-7.59793,2.44189 -10.98641,10.05666 -10.75937,17.63096c0.04313,1.43839 -0.63556,3.1441 0.20487,4.31222c0.66688,0.92689 2.24973,0.39731 3.36379,0.6478c3.92918,0.88349 8.01153,1.35313 12.03509,1.13711zM140.54604,150.40337c7.68557,-0.24655 15.22681,0.20084 22.83939,-1.01798c0.61806,-1.25581 1.23063,-2.3945 1.71242,-3.33541c6.59441,-12.87885 13.31137,-25.8215 19.36532,-38.9758c-25.48571,0.96442 -50.94204,2.07248 -76.4284,2.09512c-0.83619,-0.00631 -9.53271,-0.33163 -10.76102,0.57194c-2.27206,1.67138 -0.10189,5.66066 -0.56557,8.44288c-1.89699,11.38252 -4.55578,22.77112 -7.30374,34.17124c16.94336,-1.38199 34.29502,-1.41154 51.1416,-1.95197zM193.91043,109.69996c-4.68326,10.21512 -9.93092,20.23897 -14.95499,30.28713c-1.75408,3.50817 -3.42826,7.05744 -5.26271,10.52427c-0.77145,1.45789 -1.41067,2.98938 -2.27438,4.39457c-0.29274,0.47627 -1.13606,1.05282 -1.66133,1.52587c-0.1322,0.2199 -0.28112,0.41956 -0.4409,0.60072c0.00027,0.09662 0.06823,0.17477 0.22757,0.22885c1.36442,0.4631 2.59621,-1.31804 4.00218,-1.63332c1.70444,-0.38222 3.47629,-0.38003 5.22218,-0.43519c9.29619,-0.29369 18.63763,-0.10327 27.95299,-0.02959c-0.34393,-0.59193 -0.70207,-1.16848 -1.0944,-1.70816c0.5573,-15.31922 4.60765,-33.95611 12.88433,-47.47486c-7.76891,0.18056 -15.53263,0.4251 -23.29284,0.69895c-0.10493,1.42351 -0.92058,2.55702 -1.30773,3.02079zM246.65624,151.71141c29.73664,-0.92484 59.61291,-0.88376 89.36075,-0.87547c0.07768,-15.62418 2.05133,-32.85524 -0.70934,-48.22274c-31.59035,-1.93011 -63.04291,-2.67223 -94.54309,3.05507c-3.83637,0.01327 -7.67108,0.05014 -11.50436,0.10644l-1.06554,3.07006c-7.98278,11.2623 -11.72933,28.5308 -13.21676,42.09472c1.74767,4.06611 26.0299,0.94759 31.67833,0.77193zM367.02443,104.7487c-7.2829,-0.49033 -14.55527,-1.01106 -21.81932,-1.49821c2.21398,15.40658 0.55889,32.12038 0.49519,47.61288c38.10285,0.50241 75.51213,7.99595 113.64883,8.63392c-12.61815,-9.45855 -24.92736,-25.81029 -36.19896,-34.83396c-16.89045,-13.52195 -36.14787,-14.45438 -56.12573,-19.91464z" fill="#000000" stroke-width="0.5"/><path d="M607.27548,220.33668c-1.11406,-0.2505 -2.71931,0.26743 -3.3862,-0.65946c-0.84043,-1.16811 -0.1807,-2.89126 -0.22383,-4.32965c-0.22705,-7.5743 3.26135,-15.34441 10.85929,-17.78631l3.12657,-1.31821c1.30487,5.75965 1.86248,15.22935 1.7441,25.22159c-4.02356,0.21603 -8.19075,-0.24446 -12.11994,-1.12794z" fill="#fff700" stroke-width="0.25"/><path d="M160.95171,175.81939c-1.2792,-2.35466 -4.07986,-2.35034 -4.07986,-2.35034c-19.37921,0.01137 -38.46049,2.60944 -57.87903,2.60944c-3.32519,0 -10.31729,-0.79571 -15.33998,0.16201c1.02816,-4.61352 2.11859,-9.22968 3.22655,-13.83857c8.22546,-0.50199 16.43399,-0.29729 24.72608,-0.58627c9.71362,-0.33852 19.36335,-1.42477 29.09874,-1.7406c6.65956,-0.21604 13.39691,0.01193 19.9743,-0.59451c0.11154,1.54415 0.61624,2.98234 1.70202,4.19748c2.61593,2.92757 7.55507,1.34004 11.47126,1.6179c12.5504,0.89048 25.88497,-0.43343 38.53009,-0.43343c0,0 2.80107,-0.00186 4.14228,-2.13209c22.45378,2.05207 109.90592,-2.30109 125.1705,-2.30109c41.16685,0 81.61082,8.7869 122.84979,8.7869c0,0 4.06946,0.01888 4.59601,-3.98004c0.36314,0.14022 0.91889,0.2505 1.28221,0.37315c37.01931,5.5566 90.67528,-4.91958 124.3714,10.7633c5.65582,4.22793 12.76981,6.69498 17.98779,11.5394l-1.49513,0.64546c-5.04774,1.97117 -9.40831,5.42118 -12.48788,9.7552c-0.89364,-0.58445 -1.9341,-0.79471 -1.9341,-0.79471c-35.64817,-8.18978 -68.47548,-17.95963 -105.53243,-17.95963c-40.936,0.10222 -81.22967,-6.50115 -122.28224,-6.50115c-44.16714,0 -87.81863,2.09775 -131.97065,2.16236c-21.15901,2.64487 -49.95737,-1.21068 -76.12774,0.59981z" fill="#ffffff" stroke-width="0.5"/><path d="M116.08863,202.65339c0.78074,-0.30266 1.49773,-0.70926 2.09775,-1.29404c1.14842,-1.11925 2.09502,-2.16585 2.84592,-3.14488c29.2247,-22.62836 83.59882,-9.26071 116.46194,-13.3686c43.95207,0.071 87.72443,-2.21775 131.69207,-2.21775c41.05542,0 81.38519,6.49981 122.33636,6.58945c36.24992,0 68.36702,9.62253 103.24522,17.70921c-0.75496,2.94537 -0.98215,6.06703 -0.57345,9.25043c0.42064,3.2765 0.37838,7.00972 2.40634,9.61734c4.31994,5.55472 15.75129,5.60275 22.52447,5.29448c-0.86563,16.38753 -3.39861,32.21338 -7.22003,35.4324c-2.09936,1.76841 -10.89814,0.96506 -11.58516,0.95887c-7.57853,0 -14.89784,0.11351 -22.13286,-0.73323c8.15045,-21.32133 1.02402,-42.64986 -29.00457,-45.33404c-39.25558,-10.65773 -78.98141,19.27255 -71.57144,48.57184c-49.31243,-3.60387 -99.38772,-2.36524 -148.57569,1.907c-24.25713,1.89552 -49.22528,0.40284 -73.56149,0.40284c-1.23704,0 -13.43456,1.17421 -13.78082,0.85817c-2.65982,-2.42772 -1.04017,-7.37757 -3.02896,-10.37975c-5.42587,-8.1906 -15.02291,-13.42976 -22.95011,-18.70386c-30.89031,-25.79102 -81.61971,-22.14371 -77.08078,22.55455c-42.76073,-9.15309 -74.77535,6.41638 -61.15832,-51.90627c0.01321,-0.17894 0.02671,-0.35803 0.04046,-0.53694c12.16593,-1.13602 25.8368,-0.66239 35.58732,-8.0876c0.94874,-1.2108 1.94514,-2.35722 2.98587,-3.43961z" fill="#ffffff" stroke-width="0.5"/></g></g><path d="M75.98101,180.31701l2.30793,-2.59643c0.88728,-1.00754 2.18688,-1.64322 3.63495,-1.64322c0.78132,0 1.51942,0.18506 2.17286,0.51374c0.28331,-0.05161 0.57522,-0.07857 0.87342,-0.07857c2.67409,0 4.84188,2.16779 4.84188,4.84188v6.52772c0,5.98489 0.03136,11.49073 -0.73143,17.03437c-0.08274,1.21698 -0.14096,2.29319 -0.14129,3.13506l-0.06637,0.14723l0.0593,0.0037l-0.43296,6.92751c-0.1384,2.55008 -2.25004,4.57523 -4.83465,4.57523c-2.16225,0 -3.99345,-1.41733 -4.61526,-3.37361c-0.43343,-0.35733 -0.75096,-0.75793 -0.98052,-1.17388c-0.43354,0.12736 -0.89236,0.19569 -1.36711,0.19569c-2.38003,0 -4.35899,-1.71722 -4.76543,-3.98026l-1.26834,-6.34172c-0.07441,-0.33734 -0.11363,-0.6879 -0.11363,-1.04761v-7.39808h0.02057c-0.01691,-1.0436 -0.02057,-2.19283 -0.02057,-3.48145v-6.52772c0,-2.23396 1.51291,-4.11457 3.57005,-4.67311c0.41532,-0.6142 1.01168,-1.22027 1.85667,-1.58649z" fill="#ff0000" stroke-width="0.5"/></g><path d="M271.78382,224.05716c0.21312,0.46215 1.88715,4.41482 -2.18644,6.45163c-4.33071,2.16535 -6.49606,-2.16535 -6.49606,-2.16535c-1.61349,-3.27069 -2.52847,-4.69846 -3.19684,-7.16854c-0.98743,-0.98184 -1.8164,-2.58208 -0.92267,-4.96537c0.01038,-0.02768 0.02086,-0.0551 0.03145,-0.08231c-0.31658,-2.85016 -0.36816,-5.72903 -0.55837,-8.59189c-0.19606,-2.95112 -1.94066,-6.2591 -0.5274,-8.85723c3.67404,-6.75428 18.72987,-5.89814 25.03671,-5.18414c3.14542,0.35609 6.75731,-0.14506 9.34783,1.67421c5.56125,3.90552 8.97061,17.626 4.23397,23.47069c-1.86048,2.29569 -4.91391,3.43688 -7.72434,4.34958c-2.85318,0.92658 -5.94348,0.86336 -8.93683,1.0612c-0.08607,0.00569 -4.45834,0.0072 -8.10102,0.00751zM269.03143,214.38359c5.69385,0.05161 11.40313,0.24471 17.04759,-0.68239c0.9396,-0.15432 2.09299,-0.15601 2.71999,-0.87258c1.07466,-1.22819 -0.44702,-8.78342 -1.85855,-9.60307c-2.73829,-1.59007 -6.33279,-0.05882 -9.49928,-0.05717c-3.07591,0.00161 -6.14767,0.26169 -9.22354,0.27876c-0.58114,0.00322 -1.69524,-0.83044 -1.72543,-0.25007c-0.0611,1.17447 1.36905,1.99948 1.57417,3.1575c0.5707,3.22182 0.72115,5.71742 0.96502,8.02903z" fill="#000000" stroke="none" stroke-width="0.5"/><path d="M306.2528,229.32983c-0.56044,-2.24177 0.21645,-3.68112 1.18186,-4.57339c-1.80089,-2.62356 -3.13138,-5.59785 -3.47124,-8.67329c-0.28211,-2.55291 -0.73436,-5.31255 0.20624,-7.70256c3.90953,-9.93387 17.34955,-12.33342 25.39596,-5.82433c5.26293,4.25742 5.65059,8.65246 4.90287,14.87615c-0.29925,2.49082 -0.62516,5.17116 -2.03611,7.24552c-1.57417,2.31428 -3.97853,4.1043 -6.50429,5.31034c-3.7014,1.76738 -8.08493,1.42959 -12.06292,2.42938l-1.74073,0.43519c0,0 -4.69732,1.17433 -5.87165,-3.52299zM317.65031,222.11072c3.6097,-0.52356 6.75219,-1.54165 7.207,-5.86152c0.23435,-2.22585 0.95629,-4.49266 -1.18967,-6.01253c-0.70577,-0.49986 -1.61854,-0.68152 -2.47941,-0.76434c-2.20549,-0.21215 -4.49338,-0.63797 -6.64608,-0.11344c-4.57435,1.1146 1.08812,10.67138 2.44279,11.89142c0,0 0.31929,0.31929 0.66537,0.86038z" fill="#000000" stroke="none" stroke-width="0.5"/><path d="M346.13924,183.91063c4.84188,0 4.84188,3.99257 4.84188,3.99257v1.43538c0,12.86437 1.29354,25.57114 1.30554,38.39658c0,0 0,3.99257 -4.84188,3.99257c-4.84188,0 -4.84188,-3.99257 -4.84188,-3.99257c0.01296,-12.81821 -1.30554,-25.53537 -1.30554,-38.39658v-1.43538c0,0 0,-3.99257 4.84188,-3.99257z" fill="#000000" stroke="none" stroke-width="0.5"/><path d="M361.21352,210.92413c4.84188,0 4.84188,4.84188 4.84188,4.84188l-0.01673,1.27246c-0.29317,3.48294 -0.42113,6.98216 -0.41845,10.47744c0,0 0,4.84188 -4.84188,4.84188c-4.84188,0 -4.84188,-4.84188 -4.84188,-4.84188c0.00269,-3.76355 0.14224,-7.53082 0.4519,-11.28161l-0.01673,-0.46827c0,0 0,-4.84188 4.84188,-4.84188z" fill="#000000" stroke="none" stroke-width="0.5"/><path d="M356.15405,196.61804c0,-2.67409 2.16779,-4.84188 4.84188,-4.84188c2.67409,0 4.84188,2.16779 4.84188,4.84188c0,2.67409 -2.16779,4.84188 -4.84188,4.84188c-2.67409,0 -4.84188,-2.16779 -4.84188,-4.84188z" fill="#000000" stroke="none" stroke-width="0.5"/><path d="M400.65228,225.43967c0,4.84188 -4.84188,4.84188 -4.84188,4.84188h-5.22218c-2.40165,-0.04317 -4.87899,0.47015 -7.20497,-0.12953c-12.57492,-3.24202 -15.36039,-15.7038 -5.53268,-24.04424c5.68214,-4.82222 6.99376,-4.0078 13.67184,-4.64369c0,0 4.82762,-0.37135 5.19898,4.45625c0.37135,4.82762 -4.45625,5.19898 -4.45625,5.19898c-4.21542,0.21111 -4.80657,-0.47803 -8.08719,2.3192c-3.58711,3.05858 -4.10911,6.27186 1.43021,7.28879c1.6333,0.29985 3.32006,-0.08636 4.9801,-0.12953h5.22218c0,0 4.84188,0 4.84188,4.84188z" fill="#000000" stroke="none" stroke-width="0.5"/><path d="M431.9635,196.19031c4.82514,-0.40209 5.22725,4.42306 5.22725,4.42306c0.06781,2.38513 0.98947,4.9025 0.20344,7.1554c-1.72886,4.95526 -8.77997,10.22889 -14.24529,13.51058c3.95322,0.97759 8.68563,0.78646 11.18511,0.61275c1.53896,-0.10695 2.94227,-0.99595 4.1492,-2.07556c0.23404,-1.36998 1.15306,-4.05982 4.76191,-4.05982c4.84188,0 4.84188,4.84188 4.84188,4.84188l-1.41815,4.72928c-4.57184,4.33747 -4.23192,5.31226 -11.04948,6.1623c-4.5882,0.57208 -12.23837,0.13555 -16.7217,-1.57775c-4.43504,-1.69487 -9.20129,-5.09991 -11.06092,-9.72937c-4.87347,-12.13227 5.27447,-29.52356 19.49847,-25.51284c1.18804,0.335 2.20937,1.02805 3.18874,1.81111c0.4189,-0.14431 0.89606,-0.24572 1.43955,-0.291zM424.34057,203.87927c-5.07812,-2.32519 -7.68371,5.21759 -7.78628,10.07668c3.57127,-1.83025 8.23195,-4.75877 10.17885,-8.22962c-0.73941,-0.70922 -1.47387,-1.4264 -2.39257,-1.84706z" fill="#000000" stroke="none" stroke-width="0.5"/><path d="M197.43334,78.82681c0,-54.2094 43.9454,-98.1548 98.1548,-98.1548c54.2094,0 98.1548,43.9454 98.1548,98.1548c0,54.2094 -43.9454,98.1548 -98.1548,98.1548c-54.2094,0 -98.1548,-43.9454 -98.1548,-98.1548z" fill="url(#color-1)" stroke="#000000" stroke-width="0"/></g></g></svg>