<svg version="1.1" xmlns="http://www.w3.org/2000/svg" xmlns:xlink="http://www.w3.org/1999/xlink" width="985" height="1645" viewBox="0,0,985,1645"><g transform="translate(172.5,1182.5)"><g fill="none" stroke="#000000" stroke-linejoin="round" stroke-miterlimit="10"><path d="M32,-1062h384" stroke-width="10" stroke-linecap="square"/><path d="M-64,-954h192" stroke-width="10" stroke-linecap="square"/><path d="M512,-954h-96" stroke-width="10" stroke-linecap="square"/><path d="M800,-954h-96" stroke-width="10" stroke-linecap="square"/><path d="M224,-846h-192" stroke-width="10" stroke-linecap="square"/><path d="M704,-846h-192" stroke-width="10" stroke-linecap="square"/><path d="M-64,-738h96" stroke-width="10" stroke-linecap="square"/><path d="M224,-738h384" stroke-width="10" stroke-linecap="square"/><path d="M224,-630h192" stroke-width="10" stroke-linecap="square"/><path d="M128,-522h192" stroke-width="10" stroke-linecap="square"/><path d="M512,-522h288" stroke-width="10" stroke-linecap="square"/><path d="M32,-414h96" stroke-width="10" stroke-linecap="square"/><path d="M224,-414h288" stroke-width="10" stroke-linecap="square"/><path d="M608,-414h96" stroke-width="10" stroke-linecap="square"/><path d="M320,-306h-192" stroke-width="10" stroke-linecap="square"/><path d="M512,-306h96" stroke-width="10" stroke-linecap="square"/><path d="M800,-306h-96" stroke-width="10" stroke-linecap="square"/><path d="M-160,-198h96" stroke-width="10" stroke-linecap="square"/><path d="M32,-198h96" stroke-width="10" stroke-linecap="square"/><path d="M608,-198h96" stroke-width="10" stroke-linecap="square"/><path d="M32,-90h-96" stroke-width="10" stroke-linecap="square"/><path d="M224,-90h192" stroke-width="10" stroke-linecap="square"/><path d="M608,-90h96" stroke-width="10" stroke-linecap="square"/><path d="M-160,18h96" stroke-width="10" stroke-linecap="square"/><path d="M224,18h-192" stroke-width="10" stroke-linecap="square"/><path d="M608,18h-192" stroke-width="10" stroke-linecap="square"/><path d="M800,18h-96" stroke-width="10" stroke-linecap="square"/><path d="M320,126h-192" stroke-width="10" stroke-linecap="square"/><path d="M704,126h-192" stroke-width="10" stroke-linecap="square"/><path d="M128,234h288" stroke-width="10" stroke-linecap="square"/><path d="M512,234h96" stroke-width="10" stroke-linecap="square"/><path d="M704,234h96" stroke-width="10" stroke-linecap="square"/><path d="M-64,342h288" stroke-width="10" stroke-linecap="square"/><path d="M320,342h192" stroke-width="10" stroke-linecap="square"/><path d="M608,342h96" stroke-width="10" stroke-linecap="square"/><path d="M-160,450h955.97598" stroke-width="25" stroke-linecap="square"/><path d="M416,450h384" stroke-width="25" stroke-linecap="square"/><path d="M-160,450v-1620h384" stroke-width="25" stroke-linecap="round"/><path d="M320,-1170h480v1620" stroke-width="25" stroke-linecap="round"/></g></g></svg>