<svg version="1.1" xmlns="http://www.w3.org/2000/svg" xmlns:xlink="http://www.w3.org/1999/xlink" width="283.82964" height="167.18347" viewBox="0,0,283.82964,167.18347"><g transform="translate(-145.60984,-146.42717)"><g stroke="none" stroke-miterlimit="10"><path d="M367.07253,312.90965c-15.99656,-1.97651 -25.72019,-14.51648 -14.12595,-28.61922c-17.613,-0.21687 -35.28434,-1.33144 -52.89614,-1.25572c-7.30527,0 -14.61925,-0.46002 -21.92779,-1.02076c-0.08236,0.82134 -0.25113,1.63238 -0.5332,2.42259c-1.50669,4.2209 -4.55712,6.96202 -7.62984,10.03473c-6.64923,6.64923 -15.21527,13.52179 -24.98936,14.32472c-0.00363,0.14589 -0.02485,0.30381 -0.06755,0.47461c-0.42444,1.69775 -2.12219,1.27331 -2.12219,1.27331c-13.8493,-3.54062 -18.41729,-19.13531 -15.81577,-31.88982c-12.03798,-1.9579 -24.27251,-6.02005 -33.66834,-12.1852c-2.30232,-0.91645 -10.05115,-7.58941 -12.01357,-7.1994c-3.42612,0.68091 -10.86903,22.29546 -30.95078,18.01439c-6.38187,-4.79814 -5.25568,-33.19145 -2.66357,-40.92381c1.46701,-4.37614 4.98306,-8.24469 8.1695,-11.43569c11.12367,-11.12367 24.29859,-19.40889 36.4866,-29.20172c0.20743,-0.26701 0.52402,-0.49512 1.00724,-0.56941c0.32455,-0.08371 0.72158,-0.09516 1.12055,0.11849c0.41606,0.17807 0.65514,0.49526 0.79252,0.80098c0.24282,0.42195 0.26334,0.81017 0.18558,1.13806v1.38958c0,5.63646 -0.00551,11.47461 -1.80748,16.90303c-1.44608,4.35632 -4.56576,8.02902 -5.91369,12.34266c6.14594,-0.09753 12.14431,-0.8162 18.2802,-0.89195c17.58375,-2.18664 32.74036,-6.11932 48.35356,-13.90842c12.32958,-9.27468 23.54915,-21.92809 34.48045,-32.81783c8.09078,-10.7877 18.78146,-25.29971 29.55609,-33.41327c0,0 0.8407,-0.63052 1.70775,-0.26289c1.00672,-0.43945 1.87163,0.42545 1.87163,0.42545l0.8613,0.8613c10.45694,10.50424 15.06769,23.70923 16.87379,38.1644c0.00869,9.13634 0.67318,19.42569 -2.23474,28.20861c-0.95799,2.89345 -2.62609,5.55322 -4.05195,8.28256c4.14748,-2.9085 8.80881,-5.71034 13.40717,-7.44775c3.17922,-1.20121 6.51816,-2.1178 9.45036,-3.86679c13.6934,-2.61943 26.98681,-12.89727 41.11814,-16.4301c23.22227,-5.64322 45.74397,15.82165 21.84763,21.79574c-1.66792,1.30162 -3.36936,2.49838 -5.09985,3.60871c-0.45357,5.02814 -2.99144,9.39719 -4.3174,14.28144c-0.43227,1.59228 -0.58165,3.29262 -1.29895,4.77719l-0.38741,1.54965c-0.17685,0.77931 -0.8738,1.36108 -1.70663,1.36108c-0.64863,0 -1.21484,-0.35288 -1.51711,-0.87714l-1.27544,-2.12574l0.03731,-0.02239c-0.05231,-0.06846 -0.10351,-0.13786 -0.15349,-0.20828c-0.04928,-0.06943 -0.87025,-3.42488 -0.93495,-3.66221c-0.67346,-2.47058 -1.53821,-4.86728 -2.16054,-7.34924l-0.03387,-0.10021l-0.14831,1.31969c-2.59293,5.18586 -5.71476,9.55929 -9.22542,14.06984c-1.04935,1.34822 -2.36647,2.47379 -3.40894,3.82733c-0.4921,0.63895 -0.50643,1.71187 -1.21873,2.09008c-4.12541,2.19051 -3.93193,0.53418 -5.94423,-2.11428c-1.93063,-2.54099 -3.07481,-4.94984 -3.77982,-7.86689c-1.96823,3.5578 -4.16008,6.53673 -7.32666,9.39723c-1.00964,0.91205 -1.78741,2.32539 -3.11036,2.6432c-1.05145,0.25259 -2.10138,-0.60853 -3.02615,-1.16902c-2.00183,-1.21328 -1.46604,-1.78464 -2.60408,-3.49104c-0.39636,-0.59431 -0.76339,-1.13892 -1.10768,-1.66543c-0.92414,2.5406 -2.13069,5.24075 -3.33086,6.91084c-0.98515,1.37089 -1.79394,3.27449 -3.41728,3.73776c-1.09947,0.31377 -2.0096,-1.1481 -2.81564,-1.95901c-1.69033,-1.70054 -3.18657,-4.52133 -4.72429,-6.44347c0,0 -0.25529,-0.31911 -0.36493,-0.77229c-1.38008,0.31012 -2.74964,0.64854 -4.10014,1.038c0.65208,0.53719 1.28733,1.09895 1.90125,1.71011c3.45617,3.51281 8.07699,6.88027 13.18355,9.89966c-0.23702,-0.44903 -0.23702,-0.91057 -0.23702,-0.91057c0.01532,-2.76552 0.20623,-4.38284 2.02036,-6.5749c0.83248,-1.00591 1.3135,-3.08224 2.60928,-2.92155c1.7939,0.22246 2.96064,2.20949 3.93361,3.73294c0.4626,0.72432 0.00621,1.7218 0.09601,2.57654c0.22778,2.16813 1.2614,4.14506 1.69712,6.28895l0.00117,0.05613c1.48264,-3.50907 4.98244,-6.03042 7.13385,-9.25308l1.25934,-2.0989c0.30228,-0.52425 0.86849,-0.87714 1.51711,-0.87714c0.83283,0 1.52978,0.58177 1.70663,1.36108l0.42177,1.68708l-0.03106,0.00776c0.02498,0.06691 0.04843,0.13451 0.0702,0.20285c0.19285,0.60545 -0.10308,3.83303 0,4.73712c0.34919,3.06257 0.86301,6.14448 0.87441,9.25742v1.29194c0,0 0,0.98817 -0.74256,1.4794c0.2625,0.08456 0.5238,0.16747 0.78381,0.24872c2.70913,-3.66311 4.56936,-7.96237 7.09206,-11.7482c0.52673,-0.79046 1.94141,-3.49453 2.76739,-4.10468c0.0546,-0.04033 0.10957,-0.08007 0.1649,-0.11926l-0.01649,-0.01979l2.57506,-2.14589c0.30477,-0.25764 0.69882,-0.41297 1.12915,-0.41297c0.9665,0 1.75,0.7835 1.75,1.75v2.05967c0.65368,4.52706 1.30479,9.0438 2.1206,13.53788c0.59456,3.27527 1.68659,5.85851 1.7528,9.21317c0.01027,0.00599 0.02055,0.01197 0.03082,0.01796l0.10155,-0.2031c2.40183,-4.76318 5.99001,-8.56258 8.72597,-13.11329c17.20832,-22.90251 12.41469,13.67435 17.59487,22.03914c0,0 0.22862,0.38104 0.26345,0.87431c0.26486,0.01337 1.70853,0.15918 1.70853,1.74865c0,1.75 -1.75,1.75 -1.75,1.75c-4.59358,0 -10.47909,0 -15.07267,0c-4.73632,0 -9.40769,-0.45024 -14.04565,-1.10466c0.01557,1.93112 -0.14441,3.86962 -0.15143,5.59755c-1.18119,4.84292 -3.17188,7.13408 -6.52852,10.49786c-1.57289,1.57624 -3.09315,3.80797 -5.05453,4.98833c-4.27992,2.57565 -9.80536,3.24878 -14.70075,3.27589h-0.8613c0,0 -0.951,0 -1.45089,-0.70105zM393.55261,281.45535c1.06855,1.22943 1.65298,2.70001 1.95968,4.27482c4.73608,0.66571 9.5081,1.12555 14.35331,1.12555c0.15974,0 0.31948,0 0.47921,0c-11.35698,-3.0126 -16.29768,-10.24068 -27.60381,-12.91686c-0.81172,-0.20476 -1.63969,-0.42795 -2.48128,-0.66875c-0.42385,0.30934 -1.10176,0.55583 -1.94084,-0.00356c-0.36595,-0.24397 -0.57862,-0.51859 -0.69193,-0.79306c-12.99763,-4.14023 -28.44903,-12.05042 -37.47178,-20.95798c-1.09638,-1.10206 -2.28015,-2.01636 -3.50423,-2.93251c-0.53068,0.01893 -1.26602,-0.15429 -1.63403,-1.13564c-0.19458,-0.51889 -0.16323,-0.93508 -0.02953,-1.26158l-0.0819,-0.21418c0,0 0,-1.75 1.75,-1.75c0.51313,0 0.8758,0.15046 1.13213,0.36314c6.20368,-2.02697 12.85566,-2.82277 19.1887,-4.47144c-0.09206,-0.27467 -0.46584,-1.64301 0.99227,-2.22625c0.42539,-0.17016 0.78396,-0.18439 1.08154,-0.11269c0.33152,-0.08665 0.73562,-0.06607 1.21232,0.17228c0.49102,0.24551 0.75099,0.56803 0.87655,0.89509c5.19309,-1.8896 10.18699,-4.80805 15.45896,-6.16273c12.00433,-4.80173 23.51867,-8.45867 34.42737,-14.89839c0.20915,-0.31424 0.55255,-0.59509 1.11637,-0.67019c1.88003,-1.14778 3.74181,-2.38286 5.58475,-3.72559c22.29186,-5.57296 -4.74403,-19.05944 -19.49455,-15.23996c-14.09455,3.52364 -27.05069,13.45822 -40.70492,16.29913c-2.92335,1.76468 -6.30977,2.69922 -9.49814,3.88486c-5.21962,1.94099 -10.66173,5.47883 -15.06047,8.8023l-1.72259,1.29194c0,0 -0.06216,0.04662 -0.17012,0.10712c-0.00858,0.04262 -0.01696,0.08529 -0.02516,0.12802c0,0 -0.3432,1.71602 -2.05922,1.37281c-1.71602,-0.3432 -1.37281,-2.05922 -1.37281,-2.05922c1.10859,-5.36483 4.77561,-9.6727 6.51062,-14.83724c2.79832,-8.32965 2.06294,-18.23855 2.07173,-26.91429c-1.69562,-13.55818 -5.98515,-26.08763 -15.85543,-35.907l-0.34016,-0.34016c-10.40836,7.96381 -20.74346,22.15567 -28.53764,32.5479c-11.12761,11.16595 -22.66325,24.05759 -35.28448,33.50191c-16.13801,8.08673 -31.78271,12.19109 -49.95774,14.42318c-6.65877,0.07689 -13.16899,0.91085 -19.86592,0.91085h-0.59555c-0.16567,0.01606 -0.34952,0.01018 -0.55345,-0.02381c-0.52273,-0.08712 -0.86078,-0.30615 -1.07807,-0.56921c-0.22376,-0.25758 -0.38424,-0.62704 -0.38424,-1.15698c0,-0.22678 0.02939,-0.42417 0.08055,-0.59598c1.04231,-5.36055 4.73751,-9.43088 6.46406,-14.58446c1.49921,-4.475 1.6278,-9.27404 1.63729,-13.95719c-11.39917,8.7947 -23.36986,16.68254 -33.6172,26.92988c-2.79159,2.78733 -6.06143,6.25105 -7.33382,10.09669c-1.71773,5.19164 -2.81357,33.91061 0.78161,36.59277c17.86922,3.17988 23.51596,-17.0243 28.4786,-18.16002c4.10145,-0.93863 10.85764,5.90385 14.68658,7.44262c8.97065,6.08591 21.10928,10.04789 32.91703,11.90947c0.44976,-1.40548 0.99335,-2.7547 1.6275,-4.02442c10.02324,-15.45075 41.40222,-15.7869 47.71337,3.07936c0.3382,1.35588 0.66913,2.77983 0.85301,4.21697c7.33283,0.54303 14.67279,0.98202 22.0137,0.98202c18.8274,0.06895 37.72409,1.20878 56.54303,1.28765c8.90897,-5.46057 29.54381,-7.89876 36.95914,0.63299zM362.50093,261.81813c-0.44725,-2.27891 -1.5274,-4.30065 -1.74806,-6.63048c-0.09985,-1.05424 0.77133,-3.01421 -0.27686,-3.16477c-0.45703,-0.06565 0.195,0.95548 0.0254,1.38493c-0.59219,1.49949 -1.43572,3.00978 -1.42483,4.62194c0,0 0,1.75 -1.75,1.75c-0.02255,0 -0.04481,-0.00029 -0.06678,-0.00086c1.70088,0.9673 3.44708,1.8952 5.21471,2.77658zM375.48732,268.08586c-0.10094,-0.32062 -0.10094,-0.58187 -0.10094,-0.58187v-1.29194c0.0147,-3.41969 -0.70913,-6.77271 -0.84087,-10.17463c-0.65842,0.96922 -1.3608,1.95476 -1.77011,2.36846c-1.63336,1.65087 -3.31183,2.31706 -3.84616,4.78542c0,0 -0.42444,1.69775 -2.12219,1.27331c-0.57576,-0.14394 -0.90744,-0.43432 -1.09439,-0.75526c-0.0572,0.10321 -0.12728,0.20516 -0.21311,0.30006c3.35423,1.55332 6.73636,2.92792 9.98777,4.07645zM351.44238,249.27904c0.45481,0.64942 0.93953,1.30093 1.22176,2.04145c0.87603,-2.50522 2.18641,-4.89509 3.25916,-7.33444c-2.46806,0.57559 -4.97557,1.04718 -7.47318,1.54618c0.97204,1.21485 2.95639,3.6956 2.99226,3.74682zM364.34468,246.24031c0.36329,0.54161 0.77702,1.81839 1.31454,1.44908c0.56285,-0.38672 0.75024,-1.14603 1.19612,-1.66327c1.36357,-1.58181 3.30255,-2.85554 4.55489,-4.52293c0.93531,-1.24528 1.67221,-2.77696 2.37362,-4.27491c-3.99465,1.49708 -7.8992,3.59036 -11.90644,5.04795c0.74908,1.3492 1.58155,2.64361 2.46727,3.96409zM379.72386,236.64031c0.58211,3.58472 2.08418,6.97885 4.14955,9.88414c0.34928,0.49133 0.5324,-1.0885 0.88689,-1.57608c0.5135,-0.70631 1.25878,-1.21322 1.83829,-1.86646c3.86034,-4.35144 7.09711,-9.03861 9.79807,-14.17158c-5.69633,2.25746 -11.52627,4.27172 -17.36394,6.56118c0.56807,0.43043 0.69113,1.16881 0.69113,1.16881zM393.07557,268.7017c-0.77187,-4.23869 -1.40064,-8.49853 -2.00788,-12.76865c-0.97243,1.80469 -2.31377,3.36024 -3.39908,5.16997c-1.80537,3.0104 -3.2594,6.22901 -5.19744,9.15386c0.37703,0.09975 0.75004,0.19528 1.11871,0.2865c4.20094,1.09217 7.70447,2.77061 11.00183,4.59482c-0.34111,-2.16009 -1.09892,-4.14535 -1.51614,-6.43649zM403.81169,227.02932c0.47405,1.90232 1.82498,4.64654 2.46148,7.18713c0.06017,-0.27733 0.12497,-0.5529 0.19944,-0.82477c1.00749,-3.67787 2.97231,-7.21513 3.82165,-10.9361c-2.24424,1.2598 -4.5299,2.40233 -6.84788,3.46509zM416.28887,259.3293c-0.08028,0.20301 -0.20018,0.47686 -0.29214,0.59206c-1.79082,2.24343 -4.22956,3.64832 -5.97084,5.97522c-2.65102,4.428 -6.20403,8.08749 -8.49994,12.72557l-0.1918,0.3836c5.32358,2.97318 11.01062,5.51545 19.22389,5.68748c-2.10396,-6.94606 -5.15148,-22.20171 -4.26917,-25.36394z" fill="#000000" stroke-width="0.5"/><path d="M362.4966,262.60032c-1.76763,-0.88138 -3.57216,-1.81969 -5.27304,-2.78699c0.02197,0.00057 0.11625,-0.06851 0.1388,-0.06851c1.75,0 1.67748,-1.68116 1.67748,-1.68116c-0.01089,-1.61216 0.87728,-3.20574 1.46947,-4.70523c0.1696,-0.42945 -0.48471,-1.45089 -0.02768,-1.38524c1.04819,0.15056 0.19057,2.11404 0.29042,3.16828c0.22066,2.32983 1.30666,4.44102 1.75391,6.71993z" fill="#ffffff" stroke-width="0.25"/><path d="M351.42156,249.32451c-0.03587,-0.05122 -2.04289,-2.60211 -3.01493,-3.81696c2.49761,-0.499 5.08429,-0.98093 7.55235,-1.55652c-1.07275,2.43935 -2.41236,4.91382 -3.28839,7.41904c-0.28223,-0.74052 -0.79422,-1.39615 -1.24903,-2.04557z" fill="#ffffff" stroke-width="0.25"/><path d="M364.31063,246.27693c-0.88572,-1.32048 -1.73411,-2.65331 -2.48319,-4.00251c4.00724,-1.45759 7.99922,-3.58218 11.99387,-5.07926c-0.70141,1.49795 -1.42757,3.04944 -2.36288,4.29472c-1.25234,1.66739 -3.25282,3.00263 -4.61639,4.58444c-0.44588,0.51724 -0.63924,1.27449 -1.20209,1.66121c-0.53752,0.36931 -0.96603,-0.91699 -1.32932,-1.4586z" fill="#ffffff" stroke-width="0.25"/><path d="M403.40552,225.89185c2.31798,-1.06276 4.66966,-2.21968 6.9139,-3.47948c-0.84934,3.72097 -2.84324,7.35129 -3.85073,11.02916c-0.07447,0.27187 -0.1404,0.54734 -0.20057,0.82467c-0.6365,-2.54059 -2.02836,-5.3542 -2.50241,-7.25652z" fill="#ffffff" stroke-width="0.25"/><path d="M379.67434,236.63335c0,0 -0.12189,-0.74418 -0.68996,-1.17461c5.83767,-2.28946 11.75096,-4.32665 17.44729,-6.58411c-2.70096,5.13297 -5.98301,9.90477 -9.84335,14.25621c-0.57951,0.65324 -1.33354,1.15746 -1.84704,1.86377c-0.35449,0.48758 -0.53867,2.06696 -0.88795,1.57563c-2.06537,-2.90529 -3.59687,-6.35217 -4.17898,-9.93689z" fill="#ffffff" stroke-width="0.25"/><path d="M365.45297,264.02758c0.08583,-0.0949 0.24976,-0.23131 0.30696,-0.33452c0.18695,0.32094 0.51325,0.60031 1.08901,0.74425c1.69775,0.42444 2.03977,-1.21673 2.03977,-1.21673c0.53433,-2.46836 2.27981,-3.20624 3.91317,-4.85711c0.40931,-0.4137 1.11312,-1.39831 1.77154,-2.36753c0.13174,3.40192 0.86579,6.82877 0.85109,10.24846l-0.0047,1.29678c0,0 -0.00152,0.26256 0.09942,0.58318c-3.25141,-1.14853 -6.71203,-2.54346 -10.06626,-4.09678z" fill="#ffffff" stroke-width="0.25"/><path d="M393.11659,268.73029c0.41722,2.29114 1.16069,4.2901 1.5018,6.45019c-3.29736,-1.82421 -6.86269,-3.50934 -11.06363,-4.60151c-0.36867,-0.09122 -0.746,-0.19161 -1.12303,-0.29136c1.93804,-2.92485 3.42196,-6.22327 5.22733,-9.23367c1.08531,-1.80973 2.44897,-3.36454 3.4214,-5.16923c0.60724,4.27012 1.26427,8.60689 2.03614,12.84558z" fill="#ffffff" stroke-width="0.25"/><path d="M416.30828,259.28321c-0.88231,3.16223 2.176,18.50381 4.27996,25.44987c-8.21327,-0.17203 -13.97094,-2.72473 -19.29452,-5.69791l0.1913,-0.3843c2.29591,-4.63808 5.88241,-8.37574 8.53343,-12.80374c1.74128,-2.3269 4.20673,-3.72848 5.99755,-5.97191c0.09196,-0.1152 0.212,-0.38899 0.29228,-0.592z" fill="#ffffff" stroke-width="0.25"/><path d="M393.59553,281.48093c-7.41533,-8.53175 -28.05608,-6.08557 -36.96505,-0.625c-18.81894,-0.07887 -37.74283,-1.20327 -56.57023,-1.27222c-7.34091,0 -14.69871,-0.43866 -22.03154,-0.98169c-0.18388,-1.43714 -0.51612,-2.86132 -0.85432,-4.2172c-6.31115,-18.86626 -37.71786,-18.54566 -47.7411,-3.09491c-0.63415,1.26972 -1.17696,2.61978 -1.62672,4.02526c-11.80775,-1.86158 -23.95511,-5.83618 -32.92576,-11.92209c-3.82894,-1.53877 -10.49292,-8.4195 -14.59437,-7.48087c-4.96264,1.13572 -10.70286,21.37531 -28.57208,18.19543c-3.59518,-2.68216 -2.50259,-31.41316 -0.78486,-36.6048c1.27239,-3.84564 4.54187,-7.31281 7.33346,-10.10014c10.24734,-10.24734 22.21876,-18.14784 33.61793,-26.94254c-0.00949,4.68315 -0.03898,9.49343 -1.53819,13.96843c-1.72655,5.15358 -5.42197,9.2168 -6.46428,14.57735c-0.05116,0.17181 -0.08058,0.36892 -0.08058,0.5957c0,0.52994 0.16042,0.89883 0.38418,1.15641c0.21729,0.26306 0.5553,0.48176 1.07803,0.56888c0.20393,0.03399 0.38777,0.03983 0.55344,0.02377l0.59555,-0.00004c6.69693,0 13.10809,-0.82033 19.76686,-0.89722c18.17503,-2.23209 33.81934,-6.34752 49.95735,-14.43425c12.62123,-9.44432 24.21182,-22.38193 35.33943,-33.54788c7.79418,-10.39223 18.14548,-24.57959 28.55384,-32.5434l0.34043,0.34029c9.87028,9.81937 14.17988,22.36624 15.8755,35.92442c-0.00879,8.67574 0.73463,18.60667 -2.06369,26.93632c-1.73501,5.16454 -5.40309,9.48974 -6.51168,14.85457c0,0 -0.43995,1.69078 1.27607,2.03398c1.71602,0.34321 2.05869,-1.37076 2.05869,-1.37076c0.0082,-0.04273 0.01655,-0.08526 0.02513,-0.12788c0.10796,-0.0605 0.17008,-0.10696 0.17008,-0.10696l1.72222,-1.29019c4.39874,-3.32347 9.83994,-6.85177 15.05956,-8.79276c3.18837,-1.18564 6.57487,-2.11741 9.49822,-3.88209c13.65423,-2.84091 26.70947,-12.78736 40.80402,-16.311c14.75052,-3.81948 41.78719,9.67409 19.49533,15.24705c-1.84294,1.34273 -3.70469,2.57922 -5.58472,3.727c-0.56382,0.0751 -0.90722,0.35622 -1.11637,0.67046c-10.9087,6.43972 -22.42367,10.10485 -34.428,14.90658c-5.27197,1.35468 -10.26707,4.27861 -15.46016,6.16821c-0.12556,-0.32706 -0.48197,-0.67601 -0.97299,-0.92152c-0.4767,-0.23835 -0.78427,-0.23281 -1.11579,-0.14616c-0.29758,-0.0717 -0.65622,-0.05721 -1.08161,0.11295c-1.45811,0.58324 -1.0848,1.95317 -0.99274,2.22784c-6.33304,1.64867 -12.98843,2.45269 -19.19211,4.47966c-0.25633,-0.21268 -0.61909,-0.36298 -1.13222,-0.36298c-1.75,0 -1.75105,1.75189 -1.75105,1.75189l0.08183,0.21429c-0.1337,0.3265 -0.16555,0.74352 0.02903,1.26241c0.36801,0.98135 1.1033,1.15465 1.63398,1.13572c1.22408,0.91615 2.40757,1.8309 3.50395,2.93296c9.02275,8.90756 24.38904,16.76525 37.38667,20.90548c0.11331,0.27447 0.32606,0.54896 0.69201,0.79293c0.83908,0.55939 1.51675,0.3133 1.9406,0.00396c0.84159,0.2408 1.6694,0.46426 2.48112,0.66902c11.30613,2.67618 16.24634,9.90512 27.60332,12.91772c-0.15973,0 -0.2322,0.04883 -0.39194,0.04883c-4.84521,0 -9.61844,-0.45779 -14.35452,-1.1235c-0.3067,-1.57481 -0.97648,-3.09749 -2.04503,-4.32692z" fill="#00d2ff" stroke-width="0.25"/><path d="M406.39301,205.06008c0,-0.9665 0.7835,-1.75 1.75,-1.75c0.9665,0 1.75,0.7835 1.75,1.75c0,0.9665 -0.7835,1.75 -1.75,1.75c-0.9665,0 -1.75,-0.7835 -1.75,-1.75z" fill="#000000" stroke-width="0.5"/></g></g></svg>