<svg version="1.1" xmlns="http://www.w3.org/2000/svg" xmlns:xlink="http://www.w3.org/1999/xlink" width="283.78926" height="205.67186" viewBox="0,0,283.78926,205.67186"><g transform="translate(-143.09551,-102.87373)"><g stroke="none" stroke-miterlimit="10"><path d="M420.44545,234.43988c-3.69086,0 -7.3817,0.0116 -11.07241,-0.0226c-4.66403,-1.51791 -13.24403,-5.91742 -9.62803,0.40613c2.36601,4.1376 8.19949,12.82631 13.29336,14.17837c1.77253,0.47048 4.81638,-0.07509 6.68761,-0.07509c0,0 0.14675,0 0.35525,0.04249c0.04762,-1.91017 0.05829,-3.81648 0.06628,-5.70104c0.31626,-1.2849 1.47555,-5.01947 2.36737,-8.82827zM419.72598,252.4267c-17.79038,0 -39.203,-31.5983 -9.7923,-21.46422c3.50361,-0.04215 7.00793,-0.0226 10.51177,-0.0226h2.15842c0,0 0.27799,0 0.61239,0.1108c0.51912,-2.99462 0.63111,-5.55611 -0.28292,-6.3606c-1.07266,-0.94411 -37.65352,1.8356 -42.25361,1.8356c-8.78021,0 -22.77215,4.42017 -31.15102,1.40295c0,13.09865 0,26.1973 0,39.29595c0,1.83992 0,3.67984 0,5.51976c15.17465,-10.67702 33.5771,-10.66936 50.80247,-3.42405c3.83659,5.2973 6.16547,9.46593 7.30246,12.81425l0.02738,-0.02228c5.03562,-1.53986 6.2673,-7.88873 8.33449,-12.05918c2.68195,-5.41067 3.61638,-11.4925 3.95271,-17.64578c-0.13522,0.0194 -0.22224,0.0194 -0.22224,0.0194zM196.68942,247.48775c1.43895,0 3.59736,0 5.03631,0c25.54139,0.23666 16.04828,29.70264 -7.6587,15.48424c-1.27025,5.86647 -3.17971,11.62149 -3.49659,17.61151c7.89579,0 16.29944,0 24.1449,0c0.77899,-5.2394 2.74703,-10.69376 5.7664,-15.86209c2.71926,-2.73714 6.05755,-5.21603 9.74947,-7.2388c-0.03762,-0.19536 -0.03762,-0.33066 -0.03762,-0.33066c0,-6.37193 0,-14.13726 0,-20.55366c-10.94373,0 -23.6145,0 -34.63206,0v0.40842c0,3.59585 0.06957,7.22644 0.01629,10.84255c0.50006,-0.36151 1.1116,-0.36151 1.1116,-0.36151zM194.78225,259.29323c18.76157,12.9116 26.6646,-8.54276 6.94348,-8.30548c-1.43895,0 -2.87789,0 -4.31684,0h-0.71947c0,0 -0.66769,0 -1.17822,-0.41242c-0.09763,2.7656 -0.29601,5.51539 -0.68198,8.22717c-0.0226,0.15882 -0.04604,0.3175 -0.07027,0.47605c0.01527,0.00932 0.02331,0.01468 0.02331,0.01468zM233.69359,255.71301v0.05475c12.76393,-5.67656 28.47663,-5.77273 37.7092,6.74143c3.34052,4.52786 3.07083,8.84944 4.71709,13.78822c0.00201,0.21686 0.01593,1.11497 0.02118,2.10084c3.76409,-0.10528 7.76406,-0.46027 11.40905,0.03915c1.28755,0.17641 2.57479,0.40791 3.86669,0.55714c0.05432,-0.19674 0.11672,-0.32154 0.11672,-0.32154l0.53472,-0.65632c0,-0.71947 0,-1.43895 0,-2.15842c0,-13.89531 0.64339,-28.10142 0.71333,-42.18102c-3.03106,0.45424 -6.07303,0.79107 -9.13084,0.94836c-16.32081,3.17948 -33.33924,2.09117 -49.95715,1.98122c0,6.36874 0,12.73747 0,19.10621zM295.56824,275.85824c0,0.71947 0,1.43895 0,2.15842l-0.46014,1.1305c15.5552,0.06235 30.93471,1.22418 46.43321,1.41107c0.13258,-0.4283 0.27646,-0.86267 0.43191,-1.30317c1.32664,-1.37861 2.68947,-2.65486 4.0847,-3.83175c-0.02922,-0.17021 -0.02922,-0.28453 -0.02922,-0.28453c0,-2.15842 0,-5.75578 0,-7.9142c0,-13.80612 0,-27.61224 0,-41.41837c-1.96073,0 -4.11335,0 -5.44473,0c-14.9355,-0.1797 -29.50989,4.67665 -44.29987,7.2966c-0.05486,14.26517 -0.71586,28.67555 -0.71586,42.75544zM350.96765,224.0562c0,0.21613 -0.02669,0.40556 -0.07348,0.5716c9.79287,0.98584 19.96912,-1.60213 29.78556,-1.60213c6.14511,0 41.65252,-3.56249 44.47258,-1.04229c4.18257,3.73782 -0.37495,17.17321 -1.53101,21.71241c0.04643,9.43301 -0.25114,19.514 -4.48167,27.89501c-2.6879,5.32493 -4.12103,11.63609 -10.3718,13.84184l-0.03543,0.29671c0,0 -0.10066,0.10066 -0.27327,0.21585c0.77144,10.97468 -15.78688,10.64807 -28.77235,19.42857c-0.97092,0.63962 -1.88947,1.13481 -2.82178,1.55851c-0.08868,1.6133 -1.74631,1.6133 -1.74631,1.6133c-0.93344,0 -1.88276,-0.01724 -2.84254,-0.05325l-0.75483,0.05325c0,0 -0.29041,0 -0.63462,-0.1183c-15.64961,-0.87895 -33.34891,-6.85101 -30.20476,-24.38039c-15.63703,-0.22424 -31.15572,-1.40233 -46.86369,-1.40233c-2.24076,-0.00743 -4.46433,-0.41339 -6.68237,-0.73177c-3.568,-0.51216 -7.54574,-0.1141 -11.2402,-0.01057c-2.32549,6.39584 -9.41353,12.10836 -15.12378,14.95385c-1.3972,0.69624 -3.15087,2.48619 -4.57858,2.98075c-0.6289,0.21785 -1.37648,-0.30176 -1.99584,-0.05812c-0.54888,0.21591 -0.68126,1.00999 -1.18861,1.3108c-0.76775,0.4552 -1.67962,0.60486 -2.52505,0.89103c-3.52518,1.19322 -7.16681,1.66946 -10.79209,2.87789l-0.54338,0.18113c0.23436,0.00402 0.47084,0.00604 0.70946,0.00604c0,0 1.75,0 1.75,1.75c0,1.75 -1.75,1.75 -1.75,1.75c-18.42235,0 -26.10342,-11.11641 -25.48619,-24.46207c-8.2923,0 -16.5846,0 -24.8769,0h-0.71947c-0.60777,0 -1.00446,-0.21108 -1.26338,-0.48662c-0.27554,-0.25892 -0.48662,-0.65562 -0.48662,-1.26338c0,-0.00367 0.00001,-0.00733 0.00002,-0.01098c0.0186,-8.20613 3.14204,-15.88549 4.32965,-23.94322c1.02911,-6.9823 0.70663,-14.26472 0.70663,-21.37258v-2.15842c0,-0.60777 0.21108,-1.00446 0.48662,-1.26338c0.25892,-0.27554 0.65562,-0.48662 1.26338,-0.48662c11.75139,0 23.50278,0 35.25417,0h0.46827c1.00794,-16.27227 14.45527,-36.60154 25.51835,-47.56416c1.19743,-1.76078 2.54286,-3.37524 4.01336,-4.85446c-8.50171,-11.29495 -18.91042,-17.52058 -33.36715,-21.13476c-2.90897,-1.00317 -5.27018,-0.29624 -8.31611,-0.67049c-7.91918,-0.97304 -15.31435,-1.33741 -21.66883,4.59708l-1.49224,0.80723c-0.18002,0.13462 -0.41055,0.24645 -0.70484,0.32003c-0.49019,0.12255 -0.87424,0.06818 -1.17256,-0.07116c-0.29994,-0.13582 -0.59115,-0.39203 -0.81712,-0.84396c-0.11786,-0.23571 -0.18247,-0.45367 -0.2072,-0.65389c-1.49896,-5.86258 -3.97911,-11.38157 -6.63533,-16.74786c-1.38088,-2.78974 -1.65865,-5.81683 -2.61024,-8.74273l-0.48912,-0.94336c-0.32762,-0.40602 -0.37846,-0.83264 -0.32536,-1.19344c0.01237,-0.36648 0.14002,-0.77965 0.54015,-1.12161c9.71266,-12.17616 42.24656,-16.64384 56.34883,-11.92264c18.30794,3.71094 34.06887,12.00728 40.12976,30.18997c0,5.55093 1.52296,10.91186 2.02362,16.4294c9.24196,-2.65716 19.20118,-3.50963 27.90578,-3.50963c12.63194,0 32.62002,2.97756 38.3099,16.18923c2.24252,5.20704 2.01356,10.41507 3.70798,15.49831c0.05386,7.52756 0.0226,15.05621 0.0226,22.58398c0,0.73511 -0.25736,1.76458 -0.3893,2.68742c0.49954,0.17355 1.10877,0.59686 1.10877,1.62941zM274.82349,153.10872c-5.5359,-16.60769 -20.75724,-24.05264 -37.5733,-27.36786c-12.20993,-4.05455 -43.06117,-0.55105 -52.17542,10.04421l0.329,0.67576c0.61216,1.89772 0.91547,3.88271 1.45344,5.80279c0.55589,1.98405 1.88887,3.66297 2.78842,5.51669c1.85145,3.81533 3.37402,8.19363 4.53628,12.39035c7.08187,-5.86262 15.01945,-5.8649 23.73865,-4.75462c3.14055,0.39991 5.6718,-0.23052 8.75651,0.76845c15.07953,3.76988 26.03866,10.41089 34.97739,22.1315c4.3916,-3.64489 9.62477,-6.32206 15.22863,-8.2589c-0.38086,-5.70046 -2.05961,-11.23334 -2.05961,-16.94839z" fill="#000000" stroke-width="0.5"/><path d="M274.87343,153.11086c0,5.71505 1.67505,11.26476 2.05591,16.96522c-5.60386,1.93684 -10.84582,4.62813 -15.23742,8.27302c-8.93873,-11.72061 -19.96803,-18.3569 -35.04756,-22.12678c-3.08471,-0.99897 -5.63085,-0.39103 -8.7714,-0.79094c-8.7192,-1.11028 -16.65777,-1.1115 -23.73964,4.75112c-1.16226,-4.19672 -2.68608,-8.59098 -4.53753,-12.40631c-0.89955,-1.85372 -2.2317,-3.53844 -2.78759,-5.52249c-0.53797,-1.92008 -0.83985,-3.91053 -1.45201,-5.80825l-0.32882,-0.67629c9.11425,-10.59526 40.02484,-14.13139 52.23477,-10.07684c16.81606,3.31522 32.0754,10.81088 37.6113,27.41857z" fill="#ffea8e" stroke-width="0.5"/><path d="M195.53733,247.81992c0.05328,-3.61611 -0.00413,-7.25856 -0.00413,-10.85441l0.00036,-0.40867c11.01756,0 23.74974,0.00428 34.69347,0.00428c0,6.4164 0.01642,14.21527 0.01642,20.5872c0,0 0.00005,0.13614 0.03767,0.3315c-3.69192,2.02277 -7.03741,4.53043 -9.75667,7.26757c-3.01937,5.16833 -5.02051,10.64578 -5.7995,15.88518c-7.84546,0 -16.29222,-0.01193 -24.18801,-0.01193c0.31688,-5.99002 2.21153,-11.76922 3.48178,-17.63569c23.70698,14.2184 33.27917,-15.22113 7.73778,-15.45779c-1.43895,0 -3.58929,-0.00793 -5.02824,-0.00793c0,0 -0.69088,-0.06081 -1.19094,0.3007z" fill="#ff0000" stroke-width="0.25"/><path d="M233.64359,255.71197c0,-6.36874 0.00841,-12.76418 0.00841,-19.13292c16.61791,0.10995 33.71217,1.1896 50.03298,-1.98988c3.05781,-0.15729 6.1052,-0.48812 9.13626,-0.94236c-0.06994,14.0796 -0.7116,28.34417 -0.7116,42.23948c0,0.71947 -0.00144,1.44097 -0.00144,2.16044l-0.53544,0.65725c0,0 -0.06268,0.12515 -0.117,0.32189c-1.2919,-0.14923 -2.58111,-0.37843 -3.86866,-0.55484c-3.64499,-0.49942 -7.65671,-0.1349 -11.4208,-0.02962c-0.00525,-0.98587 -0.07152,-1.96915 -0.07353,-2.18601c-1.64626,-4.93878 -1.30957,-9.18819 -4.65009,-13.71605c-9.23257,-12.51416 -24.93516,-12.44718 -37.69909,-6.77062l-0.09998,-0.05677z" fill="#ff0000" stroke-width="0.25"/><path d="M419.9982,252.40594c-0.33633,6.15328 -1.27728,12.26119 -3.95923,17.67186c-2.06719,4.17045 -3.31279,10.53494 -8.34841,12.0748l-0.08642,-0.05843c-1.13699,-3.34832 -3.40377,-7.43867 -7.24036,-12.73597c-17.22537,-7.24531 -35.70469,-7.26766 -50.87934,3.40936c0,-1.83992 -0.00253,-3.68549 -0.00253,-5.52541c0,-13.09865 0.00556,-26.24314 0.00556,-39.34179c8.37887,3.01722 22.40131,-1.42352 31.18152,-1.42352c4.60009,0 41.23098,-2.7618 42.30364,-1.81769c0.91403,0.80449 0.80548,3.37095 0.28636,6.36557c-0.3344,-0.1108 -0.6976,-0.05846 -0.6976,-0.05846l-2.15766,0.00118c-3.50384,0 -7.00257,-0.01254 -10.50618,0.02961c-29.4107,-10.13408 -7.91197,21.42832 9.87841,21.42832c0,0 0.08702,-0.00002 0.22224,-0.01942z" fill="#ff0000" stroke-width="0.25"/><path d="M295.53119,275.89183c0,-14.07989 0.6595,-28.5557 0.71436,-42.82087c14.78998,-2.61995 29.43241,-7.48482 44.36791,-7.30512c1.33138,0 3.48854,0.00375 5.44927,0.00375c0,13.80613 0.00973,27.67303 0.00973,41.47915c0,2.15842 -0.00592,5.76429 -0.00592,7.92271c0,0 -0.00019,0.11454 0.02903,0.28475c-1.39523,1.17689 -2.76401,2.45891 -4.09065,3.83752c-0.15545,0.4405 -0.30065,0.87592 -0.43323,1.30422c-15.4985,-0.18689 -30.94342,-1.35273 -46.49862,-1.41508l0.45967,-1.13096c0,-0.71947 -0.00156,-1.4406 -0.00156,-2.16007z" fill="#ff0000" stroke-width="0.25"/><path d="M422.55959,234.4175c-0.89182,3.8088 -2.04805,7.58048 -2.36431,8.86538c-0.00799,1.88456 -0.02961,3.80995 -0.07723,5.72012c-0.2085,-0.04249 -0.35582,-0.04188 -0.35582,-0.04188c-1.87123,0 -4.93827,0.5594 -6.7108,0.08892c-5.09387,-1.35206 -10.98505,-10.11156 -13.35106,-14.24916c-3.616,-6.32355 4.99775,-1.95031 9.66178,-0.4324c3.69071,0.0342 7.43519,0.04547 11.12605,0.04547z" fill="#ffd000" stroke-width="0.25"/><path d="M194.7104,259.29053c0.02423,-0.15855 0.04715,-0.31956 0.06976,-0.47838c0.38597,-2.71177 0.59358,-5.50143 0.69121,-8.26703c0.51053,0.41242 1.17948,0.41083 1.17948,0.41083l0.72116,-0.00194c1.43895,0 2.89721,-0.01306 4.33616,-0.01306c19.72112,-0.23728 11.78714,21.27597 -6.97443,8.36437c0,0 -0.00806,-0.00546 -0.02334,-0.01478z" fill="#ff0000" stroke-width="0.5"/><path d="M339.55345,255.71301c0,-0.9665 0.7835,-1.75 1.75,-1.75c0.9665,0 1.75,0.7835 1.75,1.75c0,0.9665 -0.7835,1.75 -1.75,1.75c-0.9665,0 -1.75,-0.7835 -1.75,-1.75z" fill="#000000" stroke-width="0.5"/><path d="M284.87352,257.87142c0,-0.9665 0.7835,-1.75 1.75,-1.75c0.9665,0 1.75,0.7835 1.75,1.75c0,0.9665 -0.7835,1.75 -1.75,1.75c-0.9665,0 -1.75,-0.7835 -1.75,-1.75z" fill="#000000" stroke-width="0.5"/><path d="M165.52396,130.6532c8.99996,-7.0652 14.59617,-16.97063 22.5868,-24.95002l1.35173,-2.02759c0.31159,-0.48248 0.85407,-0.80186 1.47114,-0.80186c0.78722,0 1.45303,0.51979 1.67296,1.23488l0.70671,2.12014l-1.19832,0.39944c1.03274,9.42666 -1.9034,30.1844 -0.45171,31.54913c1.76538,1.65962 21.28061,0.67005 24.97665,0.67005c1.24417,0.22434 3.08812,-0.41465 3.73251,0.67303c0.80894,1.36544 0.03092,3.24715 -0.53063,4.73155c-0.49977,1.3211 -3.8758,4.53332 -4.82664,5.64153c-2.56807,2.99312 -5.93587,7.23763 -9.70358,8.85216c-2.25392,0.96585 -5.42171,0.04087 -7.43313,1.12256c-1.07589,0.57859 0.50967,2.40113 0.959,3.53709c0.76432,1.93228 1.90376,3.71659 2.52576,5.69927c0.96312,3.07004 1.25138,6.67025 2.03878,9.83915l0.69048,2.07145c0.06649,0.18494 0.10272,0.38431 0.10272,0.59215c0,0.9665 -0.7835,1.75 -1.75,1.75c-0.40034,0 -0.76928,-0.13443 -1.06414,-0.36061l-2.78586,-2.08939l0.23876,-0.31834c-5.45465,-3.3365 -10.07111,-7.68592 -15.70146,-10.94122c-0.82059,-0.47444 -1.8983,-0.46742 -2.63922,-1.0586c-0.60175,-0.48014 -0.47864,-1.66388 -1.17748,-1.98679c-0.81163,-0.37502 -1.78095,0.16955 -2.67425,0.20707c-2.75094,0.11554 -5.0917,0.37428 -7.79774,0.70636c-3.72215,0.45678 -7.87403,0.01311 -11.62802,0.01311h-2.25578c-0.9665,0 -1.75,-0.7835 -1.75,-1.75c0,-0.48325 0.19588,-0.92075 0.51256,-1.23744l2.15842,-2.15842l0.358,0.358c2.37859,-2.39323 4.96011,-3.59048 8.63474,-5.67046c2.12564,-1.20319 3.02433,-2.67662 5.39672,-3.32121c0.13362,-0.0363 0.52887,-0.11978 0.39166,-0.13836c-8.08502,-1.09442 -18.45702,-11.94745 -24.13026,-17.52802c-0.80454,-0.82661 -1.89267,-1.45066 -2.41362,-2.47982c-1.9778,-3.90722 -1.08257,-4.45569 2.64727,-5.52532c2.4529,-0.70344 5.33533,0.36526 7.68887,0.70999c1.44569,0.21175 2.94198,-0.23002 4.38333,0.00949c0.18477,0.0307 4.26594,1.39816 4.58992,1.50615l0.88555,-0.0898c0,0 0.69661,0 1.21082,0.43951z" fill="#ffd000" stroke-width="0.5"/></g></g></svg>