<svg version="1.1" xmlns="http://www.w3.org/2000/svg" xmlns:xlink="http://www.w3.org/1999/xlink" width="81.4412" height="68.63458" viewBox="0,0,81.4412,68.63458"><g transform="translate(-275.20266,-122.33916)"><g stroke="none" stroke-width="0.5" stroke-miterlimit="10"><path d="M302.55451,145.47943c0.15915,-0.7314 0.61383,-1.25021 0.61383,-1.25021c2.38172,-2.7176 18.71452,-22.16044 20.70368,-21.88721c4.50704,0.61909 7.01218,19.24992 8.68463,22.44394c0.60223,1.15013 9.70364,-0.69452 11.17887,-0.69646c2.50312,0.22756 5.23716,-0.13712 7.69612,0.23408c16.07768,2.42703 -10.12994,21.05578 -10.58163,23.18557c-0.09143,0.43109 9.28806,17.06112 9.97973,20.42247c-1.57157,0.69745 -3.0246,1.77641 -4.7147,2.09236c-1.64929,0.30832 -5.97744,-1.3222 -7.33838,-1.79254c-4.52526,-1.56393 -8.91151,-3.90464 -13.00609,-6.36995c-1.68639,-1.01536 -3.30798,-2.16608 -4.75997,-3.49522c-0.40352,-0.36938 -0.63943,-1.04044 -1.17657,-1.14419c-1.27065,-0.24543 -2.22228,1.35719 -3.17901,2.22866c-3.59732,3.27675 -6.68895,6.76866 -10.65096,9.65454l-0.05365,0.01144l0.01151,0.01727l-2.1014,1.40093c-0.40239,0.27681 -0.88987,0.43883 -1.41519,0.43883c-1.38071,0 -2.5,-1.11929 -2.5,-2.5c0,-0.52532 0.16203,-1.0128 0.43883,-1.41519l1.40093,-2.1014l0.16505,0.11004c0.87484,-3.25333 1.70645,-6.47508 1.5474,-9.97097c-0.05059,-1.11186 1.38106,-3.4457 0.27432,-3.32773c-9.74692,1.03893 -36.45536,-11.83138 -26.30575,-23.99512c3.04564,-1.07836 6.36277,-2.57537 9.6458,-2.73279c5.01508,-0.24047 10.23443,0.28734 15.2549,0.435zM306.36546,147.99592c-0.00008,0.02059 -0.00033,0.04135 -0.00076,0.06228c-0.05138,2.49947 -2.55085,2.44809 -2.55085,2.44809l-1.59402,-0.03286c-4.8611,-0.14297 -9.87358,-0.62647 -14.73213,-0.44698c-2.49022,0.092 -5.03513,1.28671 -7.39291,2.00019c-1.26916,0.40685 5.7969,8.52257 7.94718,10.03726c5.01335,3.53147 18.40426,5.44348 18.7564,5.72462c1.8887,1.50786 2.35387,7.69367 1.61098,12.62263c1.60713,-1.57148 3.18173,-3.17787 4.91107,-4.68604c1.91619,-1.67112 4.36039,-3.79219 7.23354,-3.45092c2.06216,0.24494 4.03277,2.83744 5.61635,4.00883c4.10498,3.03649 9.44193,5.55896 14.25143,7.22681c0.89594,0.3107 3.10559,0.67838 4.60957,1.31179c-3.45329,-3.45352 -9.7082,-15.90967 -9.04941,-18.45331c0.27066,-1.04504 10.93441,-12.50203 12.82585,-15.6132c0.23497,-0.38649 0.61296,-0.93992 1.02989,-1.45733c-0.37551,0.02198 -0.73324,0.02593 -1.00914,0.0258c-1.77498,-0.00086 -3.55187,-0.07852 -5.31956,-0.23922c-4.38575,-0.00689 -11.39432,2.90112 -14.8525,-1.16976c-1.42183,-1.67375 -1.81135,-6.84392 -2.55144,-9.05646c-0.23147,-0.69201 -2.18404,-6.81368 -2.85927,-9.86325c-3.97023,6.6338 -11.22969,12.72496 -16.31712,18.52985c0,0 -0.20903,0.23851 -0.56315,0.47118z" fill="#000000"/><path d="M306.89626,147.48661c5.08743,-5.80488 12.39358,-11.90582 16.3638,-18.53962c0.67524,3.04956 2.63985,9.17667 2.87132,9.86868c0.74009,2.21254 1.14508,7.39783 2.56691,9.07158c3.45819,4.07089 10.47312,1.17703 14.85887,1.18392c1.76769,0.1607 3.54515,0.24064 5.32013,0.2415c0.2759,0.00013 0.63368,-0.00355 1.0092,-0.02553c-0.41692,0.51741 -0.79458,1.07256 -1.02954,1.45905c-1.89145,3.11117 -12.55877,14.59755 -12.82943,15.64258c-0.65879,2.54363 5.58718,15.0133 9.04048,18.46682c-1.50398,-0.63342 -3.7157,-0.999 -4.61164,-1.30969c-4.8095,-1.66784 -10.15591,-4.18318 -14.26089,-7.21967c-1.58357,-1.17138 -3.56206,-3.76018 -5.62421,-4.00512c-2.87315,-0.34127 -5.3388,1.7827 -7.25499,3.45383c-1.72934,1.50817 -3.31308,3.11293 -4.9202,4.68442c0.74289,-4.92895 0.26118,-11.12285 -1.62753,-12.63071c-0.35214,-0.28114 -13.76231,-2.22384 -18.77567,-5.75531c-2.15028,-1.51469 -9.21676,-9.64679 -7.9476,-10.05363c2.35778,-0.71348 4.90371,-1.91342 7.39394,-2.00542c4.85856,-0.1795 9.87495,0.29354 14.73605,0.43651l1.59531,0.03048c0,0 2.50807,0.04039 2.55945,-2.45908c0.00043,-0.02093 0.00081,-0.04181 0.00089,-0.0624c0.35411,-0.23267 0.56536,-0.47318 0.56536,-0.47318z" fill="#35ff00"/><path d="M318.40414,144.78648c1.24973,-0.02604 1.27576,1.22369 1.27576,1.22369c0.07242,3.47603 0.15381,7.38298 0.23586,11.32133c4.9795,-0.09576 9.959,-0.19152 14.9385,-0.28728l0.39586,-0.00761c0,0 1.24977,-0.02403 1.2738,1.22573c0.02403,1.24977 -1.22573,1.2738 -1.22573,1.2738c-5.05722,0.09725 -10.18885,0.19594 -15.33036,0.29481c0.0775,3.71997 0.15401,7.39244 0.22249,10.67956c0,0 0.02604,1.24973 -1.22369,1.27576c-1.24973,0.02604 -1.27576,-1.22369 -1.27576,-1.22369c-0.07419,-3.56119 -0.14838,-7.12237 -0.22257,-10.68356c-5.88615,0.1132 -11.77155,0.22638 -17.55949,0.33768c0,0 -1.24977,0.02403 -1.2738,-1.22573c-0.02403,-1.24977 1.22573,-1.2738 1.22573,-1.2738c5.85183,-0.11254 11.70366,-0.22507 17.55549,-0.33761c-0.06467,-3.10403 -0.12933,-6.20807 -0.194,-9.3121l-0.04178,-2.00523c0,0 -0.02604,-1.24973 1.22369,-1.27576z" fill="#125800"/></g></g></svg>