<svg version="1.1" xmlns="http://www.w3.org/2000/svg" xmlns:xlink="http://www.w3.org/1999/xlink" width="404.89569" height="23.82568" viewBox="0,0,404.89569,23.82568"><defs><linearGradient x1="317.56557" y1="179.2613" x2="402.96034" y2="179.2613" gradientUnits="userSpaceOnUse" id="color-1"><stop offset="0" stop-color="#ee35ff"/><stop offset="1" stop-color="#00bfff"/></linearGradient><linearGradient x1="355.89986" y1="179.09463" x2="355.89986" y2="189.664" gradientUnits="userSpaceOnUse" id="color-2"><stop offset="0" stop-color="#ffffff" stop-opacity="0.32157"/><stop offset="1" stop-color="#ffffff" stop-opacity="0"/></linearGradient><linearGradient x1="297.50003" y1="184.37932" x2="414.29966" y2="184.37932" gradientUnits="userSpaceOnUse" id="color-3"><stop offset="0" stop-color="#89209f"/><stop offset="1" stop-color="#301ba8"/></linearGradient><linearGradient x1="368.97751" y1="171.75305" x2="368.97751" y2="168.39906" gradientUnits="userSpaceOnUse" id="color-4"><stop offset="0" stop-color="#ffffff" stop-opacity="0"/><stop offset="1" stop-color="#ffffff"/></linearGradient><linearGradient x1="420.55307" y1="170.07603" x2="317.40191" y2="170.07603" gradientUnits="userSpaceOnUse" id="color-5"><stop offset="0" stop-color="#89209f"/><stop offset="1" stop-color="#301ba8"/></linearGradient><linearGradient x1="297.50003" y1="179.09463" x2="424.02588" y2="179.09463" gradientUnits="userSpaceOnUse" id="color-6"><stop offset="0" stop-color="#89209f"/><stop offset="1" stop-color="#301ba8"/></linearGradient></defs><g transform="translate(-20.96356,-167.77526)"><g stroke-miterlimit="10"><path d="" fill="#ee35ff" stroke="#0b6088" stroke-width="0"/><path d="M424.02588,168.52526l-19.37319,21.13873h-292.31935l3.37318,-21.13872l201.16667,-0.00001z" fill="#e693ff" stroke="#0b6088" stroke-width="0"/><path d="M317.56557,188.27988v0h-212.53065l-67.46935,-18.03714h280h101.92544l-16.53065,18.03714z" fill="url(#color-1)" stroke="#0b6088" stroke-width="0"/><path d="M110.00003,189.66399l-48.03415,-10.56937c0,0 193.99845,0 227.50584,0c38.64599,0 124.82791,0 124.82791,0l-9.44728,10.56937c0,0 -69.2468,-0.5 -98.88064,-0.5c-21.26996,0 -195.97169,0.5 -195.97169,0.5z" fill="url(#color-2)" stroke="url(#color-3)" stroke-width="0"/><path d="M425.85925,170.4622l-19.37319,21.13874h-291.31935l-75.46015,-21.13873l279,-0.00001z" fill-opacity="0.32157" fill="#5d00ff" stroke="#0b6088" stroke-width="0"/><path d="M424.304,168.39906l-3.75095,3.35402c0,0 -67.88022,0 -107.08132,0c-47.7445,0 -292.50817,0 -292.50817,0l81.7717,-3.35402z" fill="url(#color-4)" stroke="url(#color-5)" stroke-width="0"/><path d="M424.02588,168.52526l-19.37319,21.13873c0,0 -75.95014,0 -103.84765,0c-0.97585,0 -180.97169,0 -180.97169,0l-26.96015,-21.13873z" fill="none" stroke="url(#color-6)" stroke-width="1.5"/></g></g></svg>