<svg version="1.1" xmlns="http://www.w3.org/2000/svg" xmlns:xlink="http://www.w3.org/1999/xlink" width="988.00299" height="565.57907" viewBox="0,0,988.00299,565.57907"><g transform="translate(175.50299,103.07907)"><g fill="none" stroke="#000000" stroke-miterlimit="10"><path d="M-160,-90h384" stroke-width="15.5" stroke-linecap="square"/><path d="M-154.06418,450c-4.93677,0 -8.93881,-3.37568 -8.93881,-7.53981v-525.49945c0,-4.16412 4.00204,-7.53981 8.93881,-7.53981h945.12537c4.93677,0 8.93881,3.37568 8.93881,7.53981v525.49945c0,4.16412 -4.00204,7.53981 -8.93881,7.53981z" stroke-width="25" stroke-linecap="butt"/><path d="M-160,-90h384" stroke-width="7.5" stroke-linecap="square"/><path d="M320,-90h480" stroke-width="7.5" stroke-linecap="square"/><path d="M-64,86.75456h192" stroke-width="10" stroke-linecap="round"/><path d="M224,86.75456h288" stroke-width="10" stroke-linecap="round"/><path d="M704,86.75456h96" stroke-width="10" stroke-linecap="round"/><path d="M-160,263.50912h96" stroke-width="10" stroke-linecap="round"/><path d="M704,316.65079h-192" stroke-width="10" stroke-linecap="round"/><path d="M-160,440.26368h480" stroke-width="7.5" stroke-linecap="square"/><path d="M800,440.26368h-384" stroke-width="7.5" stroke-linecap="square"/><path d="M-160,-90v530.26368" stroke-width="7.5" stroke-linecap="square"/><path d="M32,263.50912v176.75456" stroke-width="10" stroke-linecap="round"/><path d="M135.91418,-90.57907v450" stroke-width="10" stroke-linecap="round"/><path d="M220.99894,86.75456v273.24544" stroke-width="10" stroke-linecap="round"/><path d="M320,86.75456v-176.75456" stroke-width="10" stroke-linecap="round"/><path d="M318.2902,440.26368v-231.7287" stroke-width="10" stroke-linecap="round"/><path d="M412.99894,360v-273.24544" stroke-width="10" stroke-linecap="round"/><path d="M608,-90v353.50912" stroke-width="10" stroke-linecap="round"/><path d="M800,-90v530.26368" stroke-width="7.5" stroke-linecap="square"/></g></g></svg>