<svg version="1.1" xmlns="http://www.w3.org/2000/svg" xmlns:xlink="http://www.w3.org/1999/xlink" width="271.30803" height="206.1097" viewBox="0,0,271.30803,206.1097"><g transform="translate(-150.83102,-102.43588)"><g stroke="none" stroke-miterlimit="10"><path d="M191.78622,134.07271c0.88689,2.61999 1.8326,5.47001 2.90624,7.9751c0.69151,1.61347 2.0112,3.01062 2.28542,4.74449c0.38531,2.43624 0.72963,4.50088 1.27726,6.60612c0.21318,-0.40022 0.46645,-0.77094 0.79421,-1.08799c0.83374,-0.80649 7.00179,-3.04753 8.0301,-3.34364c0.65779,-0.18942 1.40393,0.24462 2.05336,0.02827c1.8259,-0.60826 3.42223,-1.96394 5.32961,-2.2204c4.92198,-0.66178 11.13928,-0.30428 15.99638,0.36458c16.5132,5.48901 23.86918,21.73807 34.82753,34.19439c3.46675,-3.6871 7.39022,-6.51857 11.69298,-8.58247l0.00261,-0.2167c-1.65739,-4.79059 -1.52019,-10.74267 -4.24699,-14.9038c-3.69411,-17.76223 -12.08073,-33.98962 -32.15766,-33.98962c-17.87448,0 -34.60172,-1.09994 -49.64453,9.1361zM198.7783,160.20902c-0.41227,0.16491 -0.76177,0.18337 -1.05382,0.11908c-0.4433,0.10565 -0.99816,0.04838 -1.55302,-0.50648c-0.84096,-0.84096 -0.53889,-1.68192 -0.25899,-2.13448c-1.26425,-3.47787 -1.91782,-6.52408 -2.38939,-10.3342c-0.26202,-2.117 -1.12453,-1.77308 -2.03142,-3.88919c-1.05227,-2.45537 -2.00696,-5.2818 -2.84954,-7.8533l-0.77973,-1.15314c-0.39197,-0.02788 -0.8227,-0.21223 -1.20664,-0.72414c-1.05,-1.4 0.35,-2.45 0.35,-2.45c16.20281,-12.15211 34.16278,-11.14209 53.57151,-11.14209c21.30845,0 31.74219,16.97017 35.40665,36.18805c2.6482,4.30959 2.79905,10.07431 4.2622,15.02803c5.47373,-2.06084 11.4836,-3.01133 17.88897,-3.01141c16.09683,0 46.9084,-3.19477 52.04331,17.08912c1.20717,3.72761 0.34525,7.15035 0.77696,10.97689c1.03258,9.1524 1.60147,18.81192 -0.74992,27.77573c12.28045,0.19566 25.37816,0.05133 31.10818,-1.85868c6.56361,-0.06082 37.36233,-1.71362 40.4852,1.3374c1.4006,1.36838 -1.92851,17.71742 -2.65919,19.86517c-6.23924,8.85707 -4.95536,40.85402 -6.0904,42.19799c-0.90047,1.06624 -6.2746,0.51256 -7.71269,0.51256c-1.36247,-0.00975 -2.95238,-0.01833 -4.71822,-0.0296c-1.48698,3.53171 -3.98343,6.73131 -7.37007,8.43612c-1.59026,0.80053 -3.53778,0.69086 -5.12967,1.48815c-0.85525,0.42834 -1.5123,1.2406 -2.42016,1.5418c-1.89718,0.62943 -4.16977,0.08876 -6.06235,1.25267c-2.10956,1.29735 -3.62814,2.21803 -6.12241,3.04945l-0.97621,0.044c-0.16724,1.48475 -1.73561,1.48475 -1.73561,1.48475c-12.69515,0 -21.97663,-9.21063 -23.29117,-20.12918c-17.46995,0.25859 -34.7661,1.97544 -52.02635,2.13192c-0.07223,0.00685 -0.14788,0.01044 -0.22712,0.01044c-0.06464,0 -0.1269,-0.00239 -0.18685,-0.00699c-0.44984,0.00342 -0.89966,0.00577 -1.34946,0.00699c-7.98508,0 -15.9853,0.13477 -23.97715,0.28765c-5.56986,9.29345 -17.0263,15.66572 -27.52697,18.87675c-0.56309,0.52237 -1.12619,1.04473 -1.68928,1.5671l-0.4189,0.01973c0.03856,0.15388 0.06026,0.32704 0.06026,0.5219c0,1.75 -1.75,1.75 -1.75,1.75c-9.72674,0 -21.79252,-11.93966 -22.59151,-22.96617c-8.3359,-0.37768 -16.63356,-0.77643 -24.8937,-0.77643c0,0 -1.75,0 -1.75,-1.75c0,-1.07742 0.66334,-1.49151 1.17322,-1.65065c-0.45375,-0.51566 -0.45375,-1.22724 -0.45375,-1.22724v-0.71947c0,-5.85837 0.71947,-11.51756 0.71947,-17.26735c0,-3.34934 -0.71728,-26.62809 -0.20691,-27.13846c1.59303,-1.59303 22.37254,-1.23204 25.69951,-1.23204c3.49193,0 7.12033,0.16552 10.7917,0.33669c8.94252,-6.68441 20.57488,-27.25299 26.70648,-36.38929c2.9006,-2.78009 4.83795,-7.29451 7.1311,-10.70958c0.72661,-1.08211 1.48167,-2.11245 2.26411,-3.09226c-10.35924,-11.97848 -17.92221,-28.25794 -33.34309,-33.41517c-4.53585,-0.61106 -10.18439,-0.81802 -14.77542,-0.29971c-1.71765,0.19391 -3.10324,1.54956 -4.74301,2.09644c-0.71579,0.23872 -1.5375,-0.17741 -2.26347,0.02827c-1.70725,0.4837 -3.17742,1.63283 -4.88498,2.11543c-0.48242,0.13634 -1.13182,-0.0693 -1.47438,0.29671c-0.39476,0.42179 -0.13532,1.16882 -0.38486,1.68985c-0.33521,0.6999 -0.82151,1.31438 -1.27221,1.94898c0.06184,0.53248 -0.0355,1.36354 -1.08885,1.78488zM296.49463,229.61048c0,0 -0.3777,0.3777 -0.92444,0.50709c0.05888,15.64188 1.437,30.76594 1.437,46.46015c0,1.43895 0,2.87789 0,4.31684v1.1153c16.62588,-0.17332 33.29639,-1.94014 50.13396,-2.12007c-0.39297,-0.50711 -0.39297,-1.15364 -0.39297,-1.15364c0,-2.39824 0,-6.9549 0,-9.35315c0,-13.90124 -0.69674,-27.75748 -0.71893,-41.76856c-7.06771,-0.14094 -13.44979,-0.35755 -17.39599,-0.39188c-9.86032,3.28677 -21.06677,2.42022 -32.07039,2.30408zM411.81178,240.19566c-3.67054,0 -7.55598,-0.5605 -11.18776,-1.5485c0.0545,3.03214 0.31415,5.49447 1.33639,8.59825c0.53499,1.62438 1.2327,3.86277 2.8475,4.81459c1.89279,1.11568 4.64621,0.50826 6.78377,0.46629c1.1481,-4.06286 2.64363,-7.76968 4.40383,-10.53266c0.27357,-0.84194 0.48918,-1.67183 0.66378,-2.49458c-1.45223,0.86199 -3.27128,0.69661 -4.84751,0.69661zM397.20107,235.73384c0.00882,-0.02647 0.01793,-0.05238 0.02731,-0.07774c0.09574,-0.28017 0.26977,-0.59658 0.58606,-0.82126c0.31317,-0.22902 0.66838,-0.29405 0.96444,-0.29628c0.02702,-0.00088 0.05448,-0.00132 0.08239,-0.00132c0.36823,0 0.65898,0.07748 0.88855,0.19984c3.83698,1.24064 8.07481,1.95858 12.06196,1.95858c2.16072,0 2.92487,0.56096 3.37611,-1.68129l2.23017,-1.12143c0.15438,-1.66296 0.29997,-3.34275 0.58052,-5.08075c0.16598,-1.02824 2.04781,-2.50972 1.09353,-2.92704c-6.52685,-2.85426 -28.71513,0.00075 -37.21786,-0.10155c-5.74504,1.91501 -19.65912,2.0842 -32.3449,1.89255c0.02413,13.99141 0.71883,27.82309 0.71883,41.70684c0,0.06031 0,0.12061 0,0.18092c0.36686,-0.67491 0.7704,-1.34469 1.21165,-2.00762c13.57999,-13.58384 35.54418,-9.47761 48.20483,3.84237c0.23982,0.9593 0.27762,1.99328 0.71947,2.87789c0.33344,0.66757 1.27173,0.93245 1.53288,1.63147c0.1047,0.28025 0.19349,4.68104 0.1201,5.20035c-0.07715,0.5459 -0.17899,1.09683 -0.30512,1.64869c1.35226,-0.00058 2.5644,-0.0061 3.60454,-0.01514c1.75428,0 4.64053,2.16203 5.23782,0.51256c0.59167,-1.63395 -0.96518,-6.08534 -1.20944,-7.83539c-0.74238,-5.31888 -0.18176,-12.59136 1.3378,-19.37307c-2.61555,0.09027 -5.36975,0.36676 -7.71546,-0.99684c-5.70597,-3.317 -5.87598,-12.42988 -5.87598,-18.04246v-0.35749c-0.04551,-0.2585 -0.02804,-0.56184 0.0898,-0.91538zM194.531,252.52406c2.63807,0 6.71508,0 9.35315,0c24.14374,0 19.82055,22.29343 -9.69635,16.41653c0,0 -0.127,-0.0254 -0.305,-0.09693c-0.20927,3.50582 -0.47969,7.01474 -0.47969,10.61195v0.71947c0,0 0,0.63178 -0.37961,1.13614c7.62001,0.0592 15.26938,0.42701 22.95116,0.77483c0.42638,-2.57567 1.59223,-5.01831 3.68819,-7.14784c1.46205,-4.38616 6.04298,-8.03795 11.96968,-10.67101c0,-8.21985 0,-18.22305 0,-26.44526c-1.21897,-0.04518 -2.43746,-0.09651 -3.65265,-0.14872c-0.03399,0.02354 -0.06795,0.0469 -0.10188,0.0701c0,0 -1.22172,0.81448 -2.17304,-0.16776c-3.25162,-0.13768 -6.46655,-0.2578 -9.58977,-0.2578c-6.7488,0 -13.51775,0.70029 -20.14524,0.71947c-1.04058,0.00301 -2.34359,-1.24837 -3.0794,-0.51256c-0.68561,0.68561 0.35893,1.90622 0.49945,2.86558c0.58942,4.02408 0.74818,8.09327 0.77392,12.17874c0.21477,-0.04494 0.36709,-0.04494 0.36709,-0.04494zM194.8742,265.50855c23.15631,4.65087 29.00229,-9.48449 9.00994,-9.48449c-2.63807,0 -5.27613,0 -7.9142,0h-1.43895c0,0 -0.15373,0 -0.37006,-0.04556c-0.01275,2.06905 -0.03836,4.14022 -0.03836,6.20976c0,1.1187 -0.02707,2.23233 -0.07071,3.34359c0.4399,-0.09978 0.82233,-0.0233 0.82233,-0.0233zM293.50719,276.57772c0,-15.88792 -1.41263,-31.19053 -1.43858,-47.04417c-6.90565,0.11409 -13.64555,0.79626 -19.82788,3.28689c-7.56351,0.47724 -14.62974,3.44183 -22.03,4.47473c-4.84421,0.67613 -9.94127,0.75542 -15.07819,0.63496c0,8.31755 0,16.6351 0,24.95265c12.91556,-4.53363 29.97939,-4.66176 36.43175,1.98281c2.30288,6.52603 1.98693,12.34015 -0.05645,17.41109c7.33386,-0.13724 14.67321,-0.25202 21.99936,-0.25421c0,-1.87242 0,-4.40701 0,-5.44476z" fill="#000000" stroke-width="0.5"/><path d="M190.88727,132.75633c15.04281,-10.23604 31.8267,-9.16402 49.70118,-9.16402c20.07693,0 28.50192,16.28272 32.19603,34.04495c2.7268,4.16113 2.58535,10.12775 4.24274,14.91834l-0.0027,0.21689c-4.30276,2.0639 -8.23468,4.90793 -11.70143,8.59503c-10.95835,-12.45632 -18.32367,-28.69746 -34.83687,-34.18647c-4.8571,-0.66886 -11.05384,-1.05414 -15.97582,-0.39236c-1.90738,0.25646 -3.50219,1.60505 -5.32809,2.21331c-0.64943,0.21635 -1.39551,-0.21816 -2.0533,-0.02874c-1.02831,0.29611 -7.19594,2.53092 -8.02968,3.33741c-0.32776,0.31705 -0.68101,0.68884 -0.89419,1.08906c-0.54763,-2.10524 -0.89139,-4.17877 -1.2767,-6.61501c-0.27422,-1.73387 -1.59282,-3.13626 -2.28433,-4.74973c-1.07364,-2.50509 -2.01685,-5.36228 -2.90374,-7.98227z" fill="#ffea8e" stroke-width="0.5"/><path d="M416.69887,239.4685c-0.1746,0.82275 -0.38511,1.66075 -0.65868,2.50269c-1.7602,2.76298 -3.2806,6.53816 -4.4287,10.60102c-2.13756,0.04197 -4.93656,0.64632 -6.82935,-0.46936c-1.6148,-0.95182 -2.33543,-3.2217 -2.87042,-4.84608c-1.02224,-3.10378 -1.27077,-5.61045 -1.32527,-8.64259c3.63178,0.988 7.57978,1.53819 11.25032,1.53819c1.57623,0 3.40986,0.17813 4.86209,-0.68386z" fill="#ffd000" stroke-width="0.5"/><path d="M194.82813,265.52801c0,0 -0.38291,-0.07765 -0.82281,0.02213c0.04364,-1.11126 0.06744,-2.23873 0.06744,-3.35743c0,-2.06954 0.03035,-4.16683 0.0431,-6.23588c0.21633,0.04556 0.37028,0.0451 0.37028,0.0451l1.44038,-0.00269c2.63807,0 5.30864,-0.02397 7.94671,-0.02397c19.99235,0 14.11121,14.20361 -9.0451,9.55274z" fill="#ff0000" stroke-width="0.25"/><path d="M194.11743,252.55059c-0.02574,-4.08547 -0.17286,-8.17211 -0.76228,-12.19619c-0.14052,-0.95936 -1.183,-2.18186 -0.4974,-2.86747c0.73581,-0.73581 2.04168,0.51326 3.08227,0.51025c6.62749,-0.01918 13.4351,-0.72865 20.1839,-0.72865c3.12322,0 6.35555,0.12673 9.60718,0.26441c0.95132,0.98224 2.17604,0.16975 2.17604,0.16975c0.03393,-0.02319 0.06796,-0.04652 0.10195,-0.07005c1.21518,0.05221 2.43775,0.1068 3.65672,0.15198c0,8.22221 0.01541,18.27417 0.01541,26.49402c-5.92669,2.63306 -10.53419,6.31827 -11.99624,10.70442c-2.09596,2.12953 -3.27549,4.57661 -3.70187,7.15227c-7.68178,-0.34783 -15.3727,-0.72747 -22.99271,-0.78666c0.37961,-0.50435 0.37898,-1.1367 0.37898,-1.1367l-0.00065,-0.72008c0,-3.59722 0.26013,-7.12001 0.4694,-10.62583c0.17799,0.07153 0.39414,0.05163 0.39414,0.05163c29.5169,5.8769 33.83341,-16.36087 9.68967,-16.36087c-2.63807,0 -6.70654,-0.01392 -9.3446,-0.01392c0,0 -0.24512,-0.03725 -0.45989,0.00769z" fill="#ff0000" stroke-width="0.5"/><path d="M293.54445,282.05582c-7.32615,0.0022 -14.68962,0.13187 -22.02347,0.26911c2.04338,-5.07094 2.37762,-10.89442 0.07474,-17.42045c-6.45236,-6.64457 -23.59626,-6.5437 -36.51182,-2.01007c0,-8.31755 0.00606,-16.67294 0.00606,-24.99049c5.13692,0.12045 10.24635,0.02754 15.09056,-0.64859c7.40025,-1.03289 14.51293,-4.00494 22.07643,-4.48218c6.18234,-2.49063 12.94225,-3.15995 19.8479,-3.27405c0.02595,15.85364 1.44314,31.21959 1.44314,47.10751c0,1.03775 -0.00354,3.57678 -0.00354,5.4492z" fill="#ff0000" stroke-width="0.5"/><path d="M397.14048,236.60864l0.00039,0.35778c0,5.61258 0.19035,14.76793 5.89632,18.08492c2.34571,1.36361 5.09983,1.08837 7.71539,0.9981c-1.51956,6.78171 -2.09197,14.08314 -1.34958,19.40202c0.24426,1.75005 1.79646,6.20622 1.2048,7.84017c-0.59729,1.64947 -3.48744,-0.50939 -5.24172,-0.50939c-1.04014,0.00905 -2.25592,0.01699 -3.60818,0.01758c0.12612,-0.55186 0.17466,-1.18737 0.2518,-1.73327c0.07339,-0.51931 -0.01939,-4.91719 -0.1241,-5.19744c-0.26115,-0.69902 -1.19919,-0.96411 -1.53263,-1.63168c-0.44185,-0.88461 -0.41533,-1.84207 -0.65516,-2.80136c-12.66064,-13.31998 -34.70439,-17.4449 -48.28437,-3.86106c-0.44125,0.66293 -0.75279,1.29356 -1.11965,1.96847c0,-0.06031 -0.09135,-0.07993 -0.09135,-0.14024c0,-13.88375 -0.68877,-27.76594 -0.7129,-41.75735c12.68578,0.19165 26.63515,0.00295 32.38019,-1.91207c8.50274,0.1023 30.73421,-2.73458 37.26105,0.11968c0.95429,0.41732 -0.92639,1.90027 -1.09237,2.9285c-0.28055,1.738 -0.42344,3.42173 -0.57782,5.08469l-2.23032,1.12117c-0.45125,2.24225 -1.29987,1.73479 -3.46059,1.73479c-3.98715,0 -8.21375,-0.70559 -12.05073,-1.94623c-0.22957,-0.12236 -0.51898,-0.19882 -0.88721,-0.19882c-0.0279,0 -0.05526,0.00052 -0.08228,0.0014c-0.29607,0.00223 -0.65023,0.06801 -0.96339,0.29702c-0.31629,0.22467 -0.43362,0.45872 -0.52936,0.73888c-0.00938,0.02536 -0.01844,0.0513 -0.02727,0.07777c-0.11785,0.35354 -0.13447,0.65747 -0.08896,0.91597z" fill="#ff0000" stroke-width="0.5"/><path d="M296.52772,229.49107c11.00362,0.11614 22.25805,0.96994 32.11838,-2.31684c3.9462,0.03433 10.34917,0.26235 17.41688,0.40329c0.02219,14.01108 0.72843,27.92937 0.72843,41.83061c0,2.39824 -0.00697,6.9642 -0.00697,9.36245c0,0 -0.00054,0.64709 0.39243,1.1542c-16.83757,0.17993 -33.577,1.94912 -50.20288,2.12245l-0.00077,-1.11599c0,-1.43895 -0.00315,-2.88108 -0.00315,-4.32002c0,-15.69421 -1.37724,-30.88619 -1.43612,-46.52807c0.54674,-0.12939 0.92544,-0.50811 0.92544,-0.50811z" fill="#ff0000" stroke-width="0.5"/><path d="M178.58865,128.06775c1.57716,-5.82762 11.35538,-30.24118 17.68506,-24.8637c1.28106,1.08834 0.72676,25.97096 0.72676,29.41967c-0.00752,0.74384 -0.01504,1.48769 -0.02256,2.23153c4.68507,-3.84096 22.2841,-8.16582 26.28222,-5.9473c7.04919,3.91153 -10.25428,21.87965 -13.70455,25.74787c-2.03191,2.67629 -1.96959,3.23651 -4.89311,4.77627c-1.35145,0.71179 -3.36992,0.31986 -4.326,1.51106c-0.88038,1.09688 0.7398,2.75161 1.4639,3.95738c2.18176,3.63311 4.03045,7.57668 7.03448,10.56098l0.04571,0.17677l0.05703,-0.03802l1.42567,2.13851c0.19376,0.28167 0.30718,0.62291 0.30718,0.99063c0,0.9665 -0.7835,1.75 -1.75,1.75c-0.48325,0 -0.92075,-0.19588 -1.23744,-0.51256l-2.47487,-2.47487l0.37934,-0.37934c-0.10622,-0.11648 -0.20971,-0.23303 -0.31069,-0.34969c-6.02063,-5.03403 -11.84623,-12.78609 -15.78182,-18.62134c-0.53169,-0.78833 -1.0258,-2.56786 -1.87838,-2.14686c-9.10437,4.49566 -15.11336,10.79417 -25.50747,12.87299c-9.19648,1.82459 -15.25395,-0.51764 -8.19949,-10.72101c2.98449,-4.31669 6.66488,-6.67738 10.49263,-10.02363c1.55506,-1.35944 7.03887,-1.91132 5.35829,-3.11213c-5.5326,-3.95315 -11.48057,-8.60244 -16.28919,-13.5662c-0.64822,-1.86467 -2.70567,-3.45725 -2.41126,-5.40931c0.64946,-4.30623 6.20819,-3.0165 8.93621,-3.0165c3.81344,0 7.31936,-0.12895 10.84148,1.61689c1.95153,0.96733 4.16996,2.82119 6.21351,3.4945c0.48327,0.15923 1.02255,-0.02466 1.53735,-0.06261z" fill="#ff0000" stroke-width="0.5"/><path d="M280.55668,247.07933c0,-0.9665 0.7835,-1.75 1.75,-1.75c0.9665,0 1.75,0.7835 1.75,1.75c0,0.9665 -0.7835,1.75 -1.75,1.75c-0.9665,0 -1.75,-0.7835 -1.75,-1.75z" fill="#000000" stroke-width="0.5"/><path d="M336.67556,250.6767c0,-0.9665 0.7835,-1.75 1.75,-1.75c0.9665,0 1.75,0.7835 1.75,1.75c0,0.9665 -0.7835,1.75 -1.75,1.75c-0.9665,0 -1.75,-0.7835 -1.75,-1.75z" fill="#000000" stroke-width="0.5"/></g></g></svg>