<svg version="1.1" xmlns="http://www.w3.org/2000/svg" xmlns:xlink="http://www.w3.org/1999/xlink" width="339" height="339" viewBox="0,0,339,339"><g transform="translate(-150.5,-10.5)"><g stroke-miterlimit="10"><path d="" fill="#000000" stroke="none" stroke-width="0.5" stroke-linecap="butt" stroke-linejoin="miter"/><path d="" fill="#ffde00" stroke="none" stroke-width="0.5" stroke-linecap="butt" stroke-linejoin="miter"/><path d="M295.87808,171.97975c4.40156,-20.05686 26.50898,-21.3365 26.50898,-21.3365c0,0 0.41729,0.80144 1.39292,2.4197c0.20186,0.3348 -0.52136,1.06165 -0.19448,1.87793c0.38575,0.96328 1.82141,2.05107 1.99837,2.76601c0.47315,1.91158 -0.48125,3.79858 -0.48125,3.79858c0,0 -4.61743,1.12859 -10.13326,3.74155c-4.15029,1.96606 -7.71182,6.21547 -7.71182,6.21547" fill="#ffcca6" stroke="none" stroke-width="1" stroke-linecap="round" stroke-linejoin="round"/><path d="M322.21572,147.70545c1.15716,-0.06734 2.24601,0.551 2.78097,1.57927c0,0 0.35808,0.69083 1.30347,2.25892c0.69458,1.15201 0.44609,2.17337 0.33161,2.60039c-0.00841,0.02757 -0.00672,0.01731 -0.01345,0.0427c0.1015,0.13887 0.04991,0.05954 0.23969,0.27252c0.42689,0.47907 1.13187,0.72048 1.58256,2.54129c0.80331,3.24552 -0.71248,5.83117 -0.71248,5.83117c-0.38806,0.76708 -1.0922,1.32607 -1.92732,1.53001c0,0 -4.33289,1.06139 -9.57086,3.54271c-3.25659,1.54271 -6.71766,5.44701 -6.71766,5.44701c-1.04373,1.24452 -2.89858,1.40767 -4.14354,0.36445c-1.24454,-1.04373 -1.40768,-2.8986 -0.36445,-4.14355c0,0 3.6601,-4.59419 8.70406,-6.9836c4.16395,-1.97254 7.15735,-2.90771 8.91091,-3.41137c0.03866,-0.20134 0.06237,-0.27073 0.06573,-0.46295c-0.06818,-0.11991 -0.10063,-0.20749 -0.21998,-0.34147c-0.43161,-0.48436 -1.09307,-1.04162 -1.61212,-2.33771c-0.3737,-0.93337 -0.12524,-1.51408 0.00336,-2.15385c-0.01278,-0.02219 -0.01446,-0.02421 -0.02622,-0.04589c-1.73453,0.22454 -4.76815,0.74504 -8.80585,2.62336c-5.5355,2.57509 -11.28862,7.11665 -13.27116,16.15062c-0.1673,0.76256 -0.63085,1.42735 -1.28855,1.84797c-0.65771,0.42062 -1.45563,0.56255 -2.21804,0.39454c-1.58646,-0.34845 -2.59031,-1.91671 -2.2425,-3.50331c2.41901,-11.02286 9.91948,-17.14628 16.53806,-20.22522c6.61857,-3.07892 12.67359,-3.41793 12.67359,-3.41793z" fill="#310000" stroke="none" stroke-width="1" stroke-linecap="round" stroke-linejoin="round"/><path d="M291.22284,193.3828c0,0 -4.64945,-14.09494 -2.1983,-17.0692c2.08362,-2.30569 20.16944,-6.92767 23.79341,-2.45693c2.48195,3.06186 -0.12931,12.28466 -0.12931,12.28466" fill="#cecece" stroke="#000000" stroke-width="0" stroke-linecap="round" stroke-linejoin="miter"/><path d="M289.31553,198.93672c0,0 -1.6041,-17.75245 -0.75844,-21.4985c0.71887,-2.90399 6.95864,-8.72536 8.20894,-3.09447c0.8563,3.8564 -0.04462,15.47243 -0.04462,15.47243" fill="#d9d9d9" stroke="#000000" stroke-width="0" stroke-linecap="round" stroke-linejoin="miter" style="mix-blend-mode: multiply"/><path d="M303.13787,187.11449c0,0 -0.37143,-8.57978 -0.2263,-11.24752c0.12336,-2.06807 1.19411,-6.21373 1.40866,-2.20371c0.14694,2.74631 0.13243,12.83978 0.13243,12.83978" fill="#ffffff" stroke="#000000" stroke-width="0" stroke-linecap="round" stroke-linejoin="miter"/><path d="M306.836,187.14401c0,0 -0.82414,-9.56041 -0.50215,-12.22814c0.27371,-2.06807 2.64953,-5.2331 3.12559,-1.2231c0.32604,2.74631 -0.017,11.01862 -0.017,11.01862" fill="#ffffff" stroke="#000000" stroke-width="0" stroke-linecap="round" stroke-linejoin="miter"/><path d="M308.07435,169.09626c2.60349,0.1854 5.2137,0.66884 7.02958,2.90902c2.46865,3.04544 1.87234,6.57097 1.4972,9.51505c-0.37514,2.94407 -1.08349,5.42074 -1.08349,5.42074c-0.21186,0.75116 -0.71356,1.38734 -1.39461,1.76852c-0.68106,0.38118 -1.48568,0.47609 -2.23675,0.26386c-0.7513,-0.21254 -1.38729,-0.71502 -1.76788,-1.39676c-0.38059,-0.68174 -0.47456,-1.48681 -0.2612,-2.23787c0,0 0.59948,-2.13103 0.90947,-4.5638c0.31,-2.43279 -0.21966,-5.04936 -0.23311,-5.06617c0.0039,0.00481 -1.00751,-0.61201 -2.87947,-0.74531c-1.87196,-0.13331 -4.35994,0.06692 -6.81944,0.48265c-2.4595,0.41574 -4.9127,1.04111 -6.78661,1.67121c-0.93695,0.31506 -1.73053,0.63172 -2.27205,0.89306c-0.45962,0.22136 -0.5788,0.34963 -0.48265,0.23313c0.33693,-0.3893 -0.0975,0.41904 -0.02303,1.83866c0.07681,1.46524 0.3997,3.39328 0.8077,5.25001c0.81597,3.71347 1.93715,7.12809 1.93715,7.12809c0.24486,0.74104 0.18524,1.54901 -0.16575,2.24606c-0.35099,0.69707 -0.96459,1.22608 -1.70574,1.47064c-1.54217,0.50778 -3.20415,-0.32981 -3.71344,-1.87149c0,0 -1.20206,-3.63166 -2.09803,-7.70921c-0.44798,-2.03879 -0.83017,-4.19141 -0.93574,-6.20547c-0.10559,-2.01406 -0.26905,-3.97351 1.35929,-5.94936l0.0427,-0.04925l0.0427,-0.05245c0.80627,-0.8922 1.51662,-1.20996 2.37712,-1.62525c0.86052,-0.41527 1.84676,-0.80277 2.955,-1.17541c2.21644,-0.7453 4.90427,-1.42535 7.67967,-1.89448c2.77539,-0.46913 5.61794,-0.73371 8.22141,-0.54831z" fill="#272727" stroke="none" stroke-width="1" stroke-linecap="round" stroke-linejoin="miter"/><path d="M332.23904,214.5415c-0.28845,11.08245 -4.68006,24.31058 -19.12203,25.34517c-14.44196,1.03459 -30.84274,-8.08612 -33.17861,-22.40074c-2.33586,-14.31462 11.27657,-24.82563 26.05027,-29.56655c15.89636,-5.10118 26.52033,16.25002 26.25036,26.62213z" fill="#ff6e00" stroke="#000000" stroke-width="0" stroke-linecap="round" stroke-linejoin="miter"/><path d="M312.86265,213.1914c5.02987,9.87724 7.54559,24.22377 4.37742,26.82049c-3.27783,2.68662 -8.0566,1.26394 -12.84802,0.46997c-6.40617,-1.06154 -13.00044,-2.81969 -17.65043,-9.62227c-8.12786,-11.8905 -9.69864,-20.48713 -3.02775,-29.40433c7.17778,-9.59484 24.23118,2.49198 28.93864,11.73612z" fill="#ffc294" stroke="#000000" stroke-width="0" stroke-linecap="round" stroke-linejoin="miter" style="mix-blend-mode: multiply"/><path d="M318.0392,185.78542c3.80697,1.70624 6.9447,4.56622 9.46908,7.85042c5.04874,6.56838 7.83549,14.74171 7.6731,20.98366c-0.15353,5.89898 -1.35481,12.43054 -4.68529,17.89406c-3.33046,5.46352 -9.07736,9.7267 -17.16845,10.30633c-7.9147,0.56699 -16.17226,-1.60506 -22.91753,-5.89355c-6.74529,-4.28849 -12.04804,-10.82833 -13.37622,-18.9677c-1.33266,-8.16673 2.00343,-15.43789 7.42357,-20.91472c5.42015,-5.47683 12.89352,-9.44159 20.63235,-11.925c2.3167,-0.7434 4.60139,-1.00581 6.78333,-0.86679c2.18193,0.13899 4.26257,0.68019 6.16607,1.53329zM306.88905,190.72024c-7.03485,2.25751 -13.75641,5.91809 -18.25194,10.46065c-4.49552,4.54254 -6.79826,9.68427 -5.79504,15.83215c1.00766,6.17521 5.07375,11.35379 10.7233,14.94564c5.64956,3.59186 12.81477,5.46152 19.34201,4.99392c6.35085,-0.45496 10.01732,-3.32258 12.56525,-7.50237c2.54793,-4.17978 3.69024,-9.80157 3.82506,-14.98504c0.1075,-4.13016 -2.28516,-11.81903 -6.45499,-17.24397c-2.08491,-2.71247 -4.56274,-4.88103 -7.21017,-6.06757c-1.3237,-0.59326 -2.68317,-0.96772 -4.12384,-1.06051c-1.44067,-0.09276 -2.96222,0.09527 -4.61963,0.62712z" fill="#380000" stroke="none" stroke-width="1" stroke-linecap="round" stroke-linejoin="miter"/><path d="M321.953,198.48994c5.00395,6.10225 9.65319,13.38246 5.29605,16.24167c-2.73705,2.24441 -10.26443,-0.73491 -15.51518,-8.92394c-4.25961,-6.64325 -5.93069,-8.74439 -3.19364,-10.9888c2.73705,-2.24441 8.4088,-2.43118 13.41275,3.67108z" fill="#ffffff" stroke="#000000" stroke-width="0" stroke-linecap="butt" stroke-linejoin="miter" style="mix-blend-mode: overlay"/><g fill="#ffb800" stroke="none" stroke-width="0.5" stroke-linecap="butt" stroke-linejoin="miter"><path d="M320.04312,146.66326l2.0151,-5.3666l0.25306,-0.3666l0.18046,-0.40726l1.51474,-1.94335l0.02247,-0.01756l0.01204,-0.02585l2.04829,-2.52803l0.1691,-0.12717l0.11558,-0.17723l0.96377,-0.89416l0.21526,-0.11844l0.16622,-0.18093l1.6692,-1.10029l0.37183,-0.13063l0.33381,-0.20951l0.84735,-0.27661l1.22644,-0.44689l0.09736,-0.01021l0.08452,-0.04943l0.70543,-0.20613l1.51393,-0.05956l0.0741,0.07147l0.05577,-0.01346l0.98411,1.01648l1.01833,0.98221l-0.01335,0.05579l0.07162,0.07397l-0.05673,1.51403l-0.51461,1.77335l-0.53521,2.23698l-0.01723,0.03308l-0.00054,0.03728l-0.75818,2.85545l-0.01208,0.02188l-0.00077,0.02498l-0.96183,3.39522l-0.84544,3.07224l-0.53997,2.25684l-0.0331,0.0636l-0.00267,0.07164l-0.46251,1.59382l2.46523,0.81903l3.62367,0.9034l0.05073,0.02701l0.05742,0.00217l3.68107,1.06819l0.0996,0.05801l0.11452,0.01316l3.44013,1.29173l0.29784,0.20559l0.33881,0.12721l0.49876,0.34428l0.01105,0.01254l0.05344,0.00497l0.45407,0.57176l0.48235,0.54813l-0.00455,0.05348l0.01038,0.01307l0.2578,0.5678l0.10451,0.57045l0.14351,0.17302l-0.04304,0.37526l0.06808,0.37153l-0.13161,0.18224l-0.0661,0.57617l-0.31003,0.82564l-0.00948,0.01374l0.00814,0.05307l-0.44457,0.57919l-0.41478,0.60086l-0.05299,0.00855l-0.01017,0.01325l-1.34232,1.06604l-0.20928,0.09503l-0.1663,0.15866l-1.99608,1.13456l-0.28755,0.08017l-0.25283,0.1587l-2.68411,0.87622l-0.19995,0.01413l-0.18254,0.08288l-2.52909,0.4634l-0.06989,-0.00446l-0.06503,0.02596l-2.15054,0.29153l-0.40321,-0.04463l-0.40347,0.04228l-1.25498,-0.17753l-0.81108,-0.06576l-0.08685,0.06533l-0.11558,0.17723l-1.1414,1.05895l-1.46443,1.52821l-1.04295,1.14289l-0.10393,0.06901l-0.06815,0.10449l-0.72719,0.67469l-0.16096,0.23318l-0.01254,0.01105l-0.00497,0.05344l-0.57176,0.45407l-0.54813,0.48235l-0.05348,-0.00455l-0.01307,0.01038l-0.5678,0.2578l-0.85364,0.15642l-0.14664,0.09869l-0.1086,-0.05193l-0.38139,0.06989l-1.03313,-0.7461l-1.14974,-0.54964l-0.12129,-0.36826l-0.09757,-0.07048l0.01643,-0.176l-0.27152,-0.82431l-0.14774,-2.0145l-0.31477,-2.39356l0.02232,-0.19456l-0.04741,-0.19l0.00108,-2.51171l0.02652,-0.10597l-0.01867,-0.10763l0.19036,-2.59763l0.01938,-0.0588l-0.00806,-0.06139l0.25985,-2.26508l0.02652,-1.63916l-0.09749,-0.03425l-0.1293,0.00849l-1.61699,-0.29315l-0.05215,-0.02358l-0.05721,0.00159l-2.02981,-0.44815l-0.06905,-0.0344l-0.07713,-0.00183l-1.56532,-0.43076l-0.11838,-0.06677l-0.13503,-0.01549l-1.10083,-0.41336l-0.17414,-0.12019l-0.20471,-0.05359l-0.91156,-0.49928l-0.34702,-0.32076l-0.39583,-0.25813l-0.36391,-0.39227l-0.49435,-0.45112l-0.17009,-0.25617l-0.23474,-0.19861l-0.2026,-0.28163l-0.32261,-0.34771l-0.22778,-0.41403l-0.2939,-0.37006l-0.17188,-0.37855l-0.02692,-0.1469l-0.00986,-0.01792l0.00414,-0.01323l-0.24044,-1.31223l0.20046,-0.27757l-0.07765,-0.33343l0.66071,-1.01314l0.00549,-0.05891l0.0683,-0.05424l0.09311,-0.1428l0.24094,-0.22355l0.41403,-0.22778l0.37006,-0.2939l0.58246,-0.26444l0.01745,-0.02804l0.08262,-0.0174l0.07459,-0.03386l0.6644,-0.12174l0.66099,-0.13917l0.08185,0.00306l0.08305,-0.01521l0.02677,0.01934l1.41271,0.05294l1.89913,-0.25744l0.08571,0.0095l0.08179,-0.02733l2.42575,-0.18819l0.0622,0.01051l0.06061,-0.01745l0.5914,-0.02104c0.01475,-0.04596 0.03067,-0.09178 0.04784,-0.13748z"/><path d="M322.71342,161.0426c-1.39958,-1.50854 0.10895,-2.90812 0.10895,-2.90812l0.60062,-0.47515c-0.05014,-0.65815 0.23747,-1.21557 0.23747,-1.21557c0.0716,-0.13839 0.14351,-0.27954 0.21591,-0.42299c-0.54354,0.09714 -1.21867,-0.00866 -1.83441,-0.75103c-1.31376,-1.58386 0.2701,-2.89761 0.2701,-2.89761l1.33276,-1.09914c2.50662,-1.79982 6.38833,-4.67192 9.5919,-4.80471c1.84974,-0.07666 4.18509,-0.66933 5.52002,0.61341c1.00651,0.96715 -0.25339,2.78851 -0.56316,4.14959c-0.74444,3.27081 -2.48259,6.61163 -3.6649,9.76032c0,0 -0.72337,1.92647 -2.64984,1.20311c-1.92647,-0.72337 -1.20311,-2.64984 -1.20311,-2.64984c0.02175,-0.05792 0.04351,-0.11586 0.06526,-0.1738c-1.23247,0.50425 -2.68855,0.86131 -3.5665,0.2244l-1.55291,1.5561c0,0 -1.50854,1.39958 -2.90812,-0.10895z"/></g><path d="M150.5,349.5v-339h339v339z" fill="none" stroke="#131b00" stroke-width="0" stroke-linecap="butt" stroke-linejoin="miter"/></g></g></svg>