<svg version="1.1" xmlns="http://www.w3.org/2000/svg" xmlns:xlink="http://www.w3.org/1999/xlink" width="86.51881" height="95.95835" viewBox="0,0,86.51881,95.95835"><g transform="translate(-276.7406,-132.02082)"><g stroke="none" stroke-width="0.5" stroke-miterlimit="10"><path d="M296.1097,165.23573l0.69176,-0.00037l0.21256,-0.05317l0.21837,0.01733l0.57241,-0.09555l2.09555,-0.00095l0.5904,0.31423l0.52425,0.13067l0.13763,-0.00005l0.12743,0.05179l0.91753,0.13057l0.1877,-0.01944l0.18305,0.04563l3.44099,-0.00065l2.00255,0.35271l0.14938,-0.01049l0.14273,0.04523l1.85804,0.11613l1.6203,0.4047l1.73831,0.81027l0.05522,0.01072l0.04513,0.03355l1.54501,0.64328l1.03095,0.45793l0.77866,0.44461l1.28735,0.77189l0.27624,0.08415l0.24367,0.15497l0.45347,0.15127l0.36278,0.24173l0.79777,0.68322l0.0781,0.03906l0.05511,0.06772l0.95004,0.71221l1.30483,1.1855l1.0817,1.08111l0.99804,1.12217l0.11721,0.0801l0.0788,0.11807l1.25786,1.14368l0.63736,0.84947l0.01836,0.01493l0.00957,0.02163l0.79376,1.02039l0.55766,1.00312l0.01932,0.02065l0.00792,0.02715l0.79926,1.36975l0.44437,1.22059l0.05832,0.08643l0.0189,0.10252l0.63075,1.38728l0.44645,1.11583l0.3542,1.29763l0.08372,0.14936l0.02561,0.16929l0.65534,1.57367l0.05505,0.07408l0.02004,0.09011l0.72939,1.46047l0.56768,1.47771l0.49183,1.72364l0.00886,0.01538l0.00083,0.01773l0.34512,1.15237l0.19891,1.19574l-0.00194,7.00588l-0.12082,1.32353l0.00155,0.01003l-0.00326,0.00961l-0.11171,1.3331l-0.32151,1.17785l-0.38411,1.27918l-0.01196,0.2535l-0.08582,0.23891l-0.10262,1.01973l-0.30112,0.90233l-0.00795,0.10245l-0.04839,0.0907l-0.17479,0.69764l-0.26398,0.46186l-0.68852,0.91818l-0.02893,0.06865l-0.0551,0.05012l-0.49475,0.74198l-0.95579,1.31394l-0.60789,0.70917l-1.18453,1.06634l-0.0963,0.14279l-0.14044,0.09972l-0.58665,0.68415l-1.19329,0.86811l-0.06862,0.0819l-0.09555,0.04782l-0.91769,0.78646l-0.05953,0.08379l-0.08814,0.0529l-0.4858,0.48553l-0.14379,0.07194l-0.1258,0.10779l-0.15598,0.05578l-0.78654,0.52433l-0.17572,0.19312l-0.22392,0.13435l-0.27312,0.2729l-0.3441,0.0862l-0.25476,0.13589l-0.28179,0.06276l-0.95114,0.47562l-1.18311,0.47339l-0.93935,0.35234l-0.98474,0.29557l-1.05982,0.10641l-0.32094,0.11518l-0.33874,0.03883l-0.85026,0.31872l-1.03164,0.20642l-1.76322,0.25208l-0.069,0.02808l-0.07442,-0.00351l-1.31094,0.26205l-0.08341,0.03946l-0.09226,0.00198l-1.1033,0.30054l-1.22197,0.00013l-0.10793,0.02694l-0.1098,-0.01789l-1.4644,0.12183l-4.46485,-0.00075l-0.71052,-0.07904l-0.74263,-0.27827l-0.15077,-0.01726l-0.13392,-0.07135l-1.0487,-0.26218l-0.08731,-0.00004l-0.07956,-0.03597l-1.39181,-0.25334l-0.95046,-0.2114l-0.74759,-0.28036l-1.86296,-0.93127l-0.94315,-0.58925l-0.05046,-0.01638l-0.03832,-0.03669l-0.61278,-0.35012l-0.66957,-0.66898l-0.07653,-0.04592l-0.05093,-0.07324l-1.04892,-0.91732l-0.08976,-0.04605l-0.06365,-0.07825l-0.84416,-0.63305l-0.99677,-1.10681l-0.90582,-1.03468l-0.07329,-0.05092l-0.04595,-0.07649l-1.12542,-1.12533l-0.99082,-1.11456l-0.68942,-0.78793l-0.50539,-1.00984l-0.21859,-0.25509l-0.15337,-0.29887l-0.65605,-0.75005l-0.36334,-0.81687l-0.00698,-0.00894l-0.00206,-0.01115l-0.5988,-1.31665l-0.28498,-0.85404l-0.22906,-1.36997l-0.097,-0.22307l-0.02533,-0.24188l-0.46616,-1.28158l-0.19462,-0.87475l-0.11585,-1.03896l-0.11377,-0.30641l-0.03722,-0.32471l-0.22626,-0.60368l-0.0002,-0.44222l-0.04019,-0.16075l0.01983,-0.16446l-0.12905,-1.03104l-0.1132,-1.01779l-0.00034,-6.84891l0.20923,-1.25601l0.36775,-1.47181l0.00002,-0.06393l0.02734,-0.05779l0.39353,-1.96667l-0.00349,-0.07441l0.0281,-0.06901l0.24074,-1.68113l0.4847,-1.81592l0.00035,-0.02107l0.00991,-0.01859l0.47175,-1.88391l0.82992,-1.89587l0.02028,-0.11948l0.06508,-0.10227l0.59737,-1.78918l1.35965,-2.71668l0.03334,-0.14946l0.08574,-0.12695l0.45396,-1.24586l0.54716,-0.98376l0.99677,-1.7422l0.43412,-0.6505l0.34974,-0.46589l0.09259,-0.21946l0.15512,-0.18084l0.20317,-0.40568l2.21858,-2.21707l0.23868,-0.19084l0.22313,-0.08931l1.09606,-0.36567l0.36091,-0.00023l0.40875,-0.10233l0.42005,-0.03254l0.59127,-0.1972l0.58348,-0.09748l0.35913,-0.15613l0.11626,-0.02587l0.05089,0.01384l0.06671,-0.04l0.14839,-0.03301z" fill="#ff6e00"/><path d="" fill="#000000"/><path d="" fill="#ffde00"/><path d="M314.73909,164.57888l-2.34415,-0.58068l-0.30761,0.00115l-0.29289,-0.09215l-2.4845,-0.14399l-2.66564,-0.45434l-0.29704,0.0217l-0.28879,-0.07048l-3.46641,-0.00888l-0.24225,-0.41887l-1.67595,-0.42853l-4.78077,-0.01713c-0.58402,-3.84566 -2.99618,-8.95712 -0.04655,-8.98034c3.38045,-0.02662 14.6331,-1.09848 19.26794,0.61518c2.28057,0.8432 0.42045,6.07842 -0.37539,10.55736z" fill="#ff8383"/><path d="M342.50613,147.53559c-0.74536,2.23607 -1.67705,2.70192 -3.91312,1.95656c-5.37162,-1.79054 -3.05024,-11.07195 -17.41127,-10.34631c-8.65631,0.43739 -9.4452,5.30491 -12.19478,10.06872c3.87231,0.20472 7.35853,0.81676 8.36734,2.25948c1.15872,1.65711 1.72141,9.3158 0.37562,13.6535l0.15099,0.0671l0.10128,0.07912l0.12372,0.0348l0.875,0.5l0.01974,0.01892l0.02615,0.00796l1.01468,0.60881l0.48965,0.16322l0.28172,0.17927l0.31447,0.11231l0.75,0.5l0.10312,0.11343l0.13711,0.06856l0.81317,0.697l0.93485,0.70114l0.07579,0.09328l0.10589,0.05687l1.375,1.25l0.03381,0.05072l0.05227,0.03136l1.125,1.125l0.03868,0.06446l0.06208,0.0424l0.91161,1.02556l1.27655,1.1605l0.13268,0.19902l0.18564,0.15083l0.73684,0.98246l0.86154,1.10769l0.07881,0.17835l0.13321,0.14239l0.61227,1.10208l0.86179,1.47735l0.06328,0.21754l0.12675,0.18778l0.46672,1.28349l0.58471,1.28636l0.01068,0.05812l0.0346,0.04791l0.5,1.25l0.01963,0.14396l0.07109,0.12672l0.33267,1.21977l0.53,1.272l0.71149,1.42299l0.02666,0.11999l0.07063,0.1006l0.625,1.625l0.01381,0.11248l0.05663,0.09816l0.49548,1.73419l0.37027,1.23425l0.00745,0.16025l0.06397,0.14712l0.25,1.5l-0.01666,0.20829l0.05068,0.20271v7l-0.02803,0.11213l0.01777,0.11421l-0.12415,1.36564l-0.12422,1.49063l-0.07453,0.21895l-0.00492,0.23123l-0.375,1.375l-0.01584,0.02824l-0.0015,0.03234l-0.3059,1.01967l-0.10107,1.01072l-0.09445,0.2631l-0.02144,0.27871l-0.34464,1.03391l-0.22671,0.90685l-0.16171,0.30321l-0.09304,0.3308l-0.5,0.875l-0.1093,0.11406l-0.0613,0.1456l-0.70837,0.94449l-0.46151,0.69226l-0.0387,0.03518l-0.01959,0.0485l-1,1.375l-0.07813,0.06541l-0.04557,0.09114l-0.75,0.875l-0.13394,0.09506l-0.09179,0.1362l-1.12965,1.01668l-0.64462,0.75206l-0.23932,0.16984l-0.18839,0.22502l-1.29426,0.94128l-0.7263,0.62254l-0.68211,0.68211l-0.34461,0.20676l-0.30513,0.26154l-0.36079,0.18039l-0.41452,0.27635l-0.57496,0.57496l-0.01218,0.00731l-0.01236,0.04394l-0.54787,0.2922l-0.53244,0.31946l-0.04404,-0.01201l-0.01254,0.00669l-0.73376,0.18344l-0.75454,0.37727l-0.10356,0.02301l-0.086,0.06211l-1.25,0.5l-0.02767,0.00377l-0.02299,0.01586l-1,0.375l-0.08548,0.00977l-0.07395,0.04397l-1.25,0.375l-0.24179,0.01125l-0.22782,0.08178l-0.92591,0.09259l-0.69504,0.26064l-0.20293,0.02319l-0.18459,0.08744l-1.25,0.25l-0.07095,-0.00338l-0.06578,0.0268l-1.68131,0.24019l-1.09752,0.2195l-1.29193,0.35234l-0.33384,0.0071l-0.32395,0.08099h-1.39601l-1.39637,0.11636l-0.1047,-0.01709l-0.10292,0.02573h-4.5l-0.13657,-0.03414l-0.13951,0.01885l-1.125,-0.125l-0.29212,-0.1085l-0.30961,-0.03538l-0.86667,-0.325l-0.78285,-0.19571l-1.29488,-0.23543l-0.04535,-0.02052l-0.04976,0.00131l-1.125,-0.25l-0.15894,-0.07947l-0.17655,-0.02018l-1,-0.375l-0.1099,-0.07579l-0.13032,-0.02896l-2,-1l-0.09187,-0.07874l-0.1151,-0.03733l-0.95817,-0.59886l-0.83218,-0.47553l-0.24109,-0.23104l-0.28633,-0.1718l-0.81614,-0.81614l-0.86646,-0.75815l-0.92464,-0.69348l-0.15474,-0.19045l-0.20349,-0.13714l-1.125,-1.25l-0.00843,-0.01589l-0.01477,-0.01026l-0.82019,-0.93735l-1.06614,-1.06614l-0.03868,-0.06446l-0.06208,-0.0424l-1,-1.125l-0.00466,-0.00891l-0.00826,-0.00574l-0.875,-1l-0.14617,-0.28502l-0.20846,-0.2432l-0.48157,-0.96314l-0.6638,-0.75863l-0.17159,-0.3346l-0.2315,-0.29632l-0.49573,-1.1154l-0.62065,-1.36544l-0.02412,-0.13131l-0.07167,-0.11263l-0.375,-1.125l-0.01521,-0.19772l-0.07907,-0.18186l-0.21216,-1.27296l-0.42134,-1.15868l-0.01711,-0.16429l-0.07387,-0.14774l-0.25,-1.125l0.00362,-0.1374l-0.04786,-0.12885l-0.09057,-0.81516l-0.26554,-0.70811l-0.05076,-0.44413l-0.10842,-0.43368v-0.71936l-0.10569,-0.84556l0.00212,-0.01749l-0.00613,-0.01652l-0.125,-1.125l0.01885,-0.13951l-0.03414,-0.13657v-6.875l0.05068,-0.20271l-0.01666,-0.20829l0.25,-1.5l0.04063,-0.09345v-0.1019l0.36057,-1.44229l0.34972,-1.74862l0.24019,-1.68131l0.05693,-0.13973l0.00236,-0.15087l0.49497,-1.85613l0.49526,-1.98105l0.09967,-0.18688l0.0353,-0.20883l0.82955,-1.89611l0.58914,-1.76742l0.09661,-0.15181l0.03903,-0.17566l1.31071,-2.62142l0.45087,-1.2399l0.11215,-0.16614l0.05194,-0.19361l0.625,-1.125l0.01059,-0.01132l0.0042,-0.01492l1,-1.75l0.06089,-0.06353l0.0296,-0.08287l0.5,-0.75l0.05256,-0.04778l0.02757,-0.06547l0.23975,-0.31966l0.27419,-0.54837l0.26154,-0.30513l0.20676,-0.34461l2.5,-2.5l0.12071,-0.07243l0.08532,-0.11198l0.625,-0.5l0.33474,-0.15342l0.29852,-0.2156l0.625,-0.25l0.07449,-0.01016l0.06342,-0.04036l1.5,-0.5l0.40069,-0.03082l0.38988,-0.09747h0.34431l0.03789,-0.01263c0.08222,-0.24211 0.20052,-0.46756 0.34851,-0.66992c-1.06154,-3.95025 -1.31208,-9.56972 0.77607,-11.2198c0.37589,-0.29703 1.08525,-0.65823 1.63689,-0.73134c0.64495,-0.08547 3.30882,-0.32327 6.55407,-0.42238c4.39098,-25.11692 43.19252,-11.76151 39.81785,-1.63751zM313.01171,155.10543c-3.4842,-1.28821 -11.85493,-0.47961 -14.39615,-0.4596c-2.21736,0.01746 -0.40071,3.8174 0.03832,6.70833h3.58668l1.25,0.3125l0.17857,0.3125h2.57143l0.21421,0.05355l0.22026,-0.01551l1.98667,0.35059l1.85981,0.11624l0.21979,0.06978h0.2306l1.75988,0.43997c0.59827,-3.36699 1.99433,-7.25448 0.27993,-7.88835zM296.35859,166.59024l-0.14152,0.03145l-0.06361,0.03816l-0.04855,-0.01324l-0.11089,0.02464l-0.34248,0.1489l-0.55652,0.09275l-0.56391,0.18797l-0.40069,0.03082l-0.38988,0.09747h-0.34431l-1.04543,0.34848l-0.21282,0.08513l-0.22759,0.18207l-2.11522,2.11522l-0.19357,0.38714l-0.14789,0.17253l-0.08818,0.20943l-0.33337,0.44449l-0.41375,0.62062l-0.94981,1.66216l-0.52137,0.93847l-0.43222,1.18862l-0.08173,0.12108l-0.03169,0.1426l-1.29554,2.59109l-0.56882,1.70645l-0.06205,0.09751l-0.01926,0.11397l-0.79092,1.80781l-0.44912,1.79648l-0.00946,0.01773l-0.00031,0.02009l-0.46172,1.73146l-0.22899,1.60294l-0.0268,0.06578l0.00338,0.07095l-0.375,1.875l-0.0261,0.05509v0.06096l-0.35079,1.40314l-0.19957,1.19743v6.52963l0.10782,0.97037l0.12288,0.98301l-0.01901,0.15683l0.03831,0.15326v0.42166l0.21582,0.57553l0.03538,0.30961l0.1085,0.29212l0.11008,0.99068l0.18535,0.83409l0.44434,1.22195l0.02403,0.23067l0.09247,0.21269l0.21775,1.30652l0.27148,0.81443l0.5707,1.25554l0.00195,0.01064l0.00666,0.00852l0.34623,0.77902l0.62568,0.71507l0.14617,0.28502l0.20846,0.2432l0.48157,0.96314l0.65737,0.75128l0.9447,1.06279l1.07305,1.07305l0.04378,0.07297l0.06989,0.04854l0.86349,0.98684l0.95017,1.05574l0.8049,0.60368l0.06066,0.07466l0.0856,0.0439l1,0.875l0.04854,0.06989l0.07297,0.04378l0.63826,0.63826l0.58432,0.3339l0.03653,0.035l0.04812,0.01561l0.89928,0.56205l1.7764,0.8882l0.71289,0.26733l0.90639,0.20142l1.32726,0.24132l0.07586,0.03432h0.08326l1,0.25l0.12769,0.0681l0.14378,0.01643l0.70811,0.26554l0.67755,0.07528h4.25755l1.39637,-0.11636l0.1047,0.01709l0.10292,-0.02573h1.1652l1.052,-0.28691l0.08798,-0.00187l0.07953,-0.03767l1.25,-0.25l0.07095,0.00338l0.06578,-0.0268l1.68131,-0.24019l0.98372,-0.19674l0.81071,-0.30402l0.32303,-0.03692l0.30602,-0.10985l1.01072,-0.10107l0.93904,-0.28171l0.89574,-0.3359l1.12822,-0.45129l0.90699,-0.4535l0.26876,-0.05973l0.24293,-0.12956l0.32822,-0.08205l0.26036,-0.26036l0.21352,-0.12811l0.1675,-0.18425l0.75,-0.5l0.14877,-0.05313l0.11994,-0.10281l0.13714,-0.06857l0.46313,-0.46313l0.08406,-0.05043l0.05673,-0.07994l0.875,-0.75l0.09114,-0.04557l0.06541,-0.07813l1.138,-0.82764l0.55929,-0.6525l0.13394,-0.09506l0.09179,-0.1362l1.12965,-1.01668l0.57965,-0.67626l0.91128,-1.25301l0.47171,-0.70757l0.05256,-0.04778l0.02757,-0.06547l0.65661,-0.87548l0.25167,-0.44043l0.16636,-0.66542l0.04613,-0.08649l0.00752,-0.09774l0.28685,-0.86056l0.09726,-0.97263l0.08178,-0.22782l0.01125,-0.24179l0.36595,-1.21982l0.30632,-1.12316l0.10594,-1.27126l0.00312,-0.00916l-0.00149,-0.00956l0.11473,-1.26206v-6.67969l-0.18999,-1.13996l-0.32957,-1.09857l-0.00079,-0.01691l-0.00846,-0.01466l-0.46946,-1.64311l-0.54177,-1.4086l-0.69603,-1.39206l-0.01909,-0.0859l-0.05254,-0.07059l-0.625,-1.5l-0.02436,-0.16139l-0.07986,-0.14235l-0.33738,-1.23706l-0.42549,-1.06371l-0.60114,-1.32251l-0.01796,-0.09776l-0.05561,-0.08239l-0.4232,-1.1638l-0.76176,-1.30588l-0.00753,-0.02588l-0.01842,-0.01969l-0.53136,-0.95645l-0.75663,-0.9728l-0.00912,-0.02063l-0.0175,-0.01422l-0.60746,-0.80995l-1.19922,-1.0902l-0.07507,-0.11261l-0.11177,-0.07633l-0.95119,-1.07009l-1.03099,-1.03099l-1.24368,-1.13062l-0.90562,-0.67921l-0.05251,-0.06462l-0.07447,-0.03724l-0.76038,-0.65175l-0.34583,-0.23055l-0.43239,-0.14413l-0.23228,-0.14781l-0.26339,-0.08016l-1.2272,-0.73632l-0.74229,-0.42416l-0.98285,-0.43682l-1.47296,-0.61373l-0.04303,-0.03202l-0.05265,-0.01022l-1.65725,-0.77338l-1.54487,-0.38622l-1.77161,-0.11073l-0.13609,-0.0432l-0.14243,0.01003l-1.90943,-0.33696h-3.2811l-0.17457,-0.04364l-0.17899,0.01852l-0.875,-0.125l-0.12154,-0.04952h-0.13124l-0.5,-0.125l-0.56317,-0.30036h-1.99859l-0.54591,0.09098l-0.20829,-0.01666l-0.20271,0.05068h-0.65983z" fill="#000000"/><path d="M336.36556,148.02083v-4.875l0.09188,-0.36751l0.02192,-0.37818l0.625,-2l0.01263,-0.0207l0.00186,-0.02418l0.875,-2.625l0.09661,-0.15181l0.03903,-0.17566l0.5,-1l0.13598,-0.15865l0.07824,-0.19375l1,-1.375l0.25698,-0.21515l0.20312,-0.26659l0.59192,-0.47354l0.84284,-0.72243l0.07447,-0.03724l0.05251,-0.06462l0.5,-0.375l1.1875,-0.5l0.08037,0.03475l0.04039,-0.02739l1.08738,0.51507l1.10436,0.47756l0.00605,0.04842l0.07913,0.03748l0.40745,1.22235l0.12044,1.56569l0.24262,1.94097l-0.00382,0.03148l0.01071,0.02985l0.25,2.5l-0.00308,0.02103l0.00685,0.02012l0.24922,2.99063l0.24534,2.69869l0.24478,1.9582l-0.00734,0.06052l0.01928,0.05783l0.10824,1.40717l2.20752,-0.0849l3.15504,-0.36404l0.04846,0.00634l0.04636,-0.01545l3.25,-0.25l0.09664,0.01641l0.0951,-0.02377h3.125l0.29857,0.07464h0.30776l0.5,0.125l0.01254,0.00669l0.04404,-0.01201l0.53244,0.31946l0.54787,0.2922l0.01236,0.04394l0.01218,0.00731l0.375,0.375l0.25375,0.42292l0.16598,0.09485l0.07791,0.31164l0.16527,0.27545l-0.0503,0.18443l0.11962,0.47848v0.75l-0.00345,0.01378l0.02233,0.03981l-0.18079,0.59402l-0.1506,0.60238l-0.03963,0.02265l-0.00414,0.01359l-0.75,1.25l-0.13821,0.13821l-0.08497,0.17602l-1.25,1.5l-0.20496,0.14978l-0.15385,0.20193l-1.875,1.5l-0.15496,0.07102l-0.12054,0.12054l-1.875,1.125l-0.05697,0.01734l-0.04402,0.04011l-1.625,0.875l-0.33435,0.08501l-0.30857,0.15428l-1.05222,0.23383l-0.66539,0.19011l-0.04962,0.07797l-0.03903,0.17566l-0.59215,1.18429l-0.70905,1.65446l-0.48868,1.2217l-0.06211,0.086l-0.02301,0.10356l-0.37727,0.75454l-0.05844,0.23376l-0.00669,0.01254l0.01201,0.04404l-0.31946,0.53244l-0.2922,0.54787l-0.04394,0.01236l-0.00731,0.01218l-0.375,0.375l-0.63287,0.37972l-0.08725,0.12241l-0.10198,-0.00887l-0.28275,0.16965l-1.04557,-0.28516l-1.07968,-0.09389l-0.20667,-0.25694l-0.09876,-0.02694l-0.03955,-0.14502l-0.46258,-0.5751l-0.71985,-1.55967l-0.96614,-1.81151l-0.04039,-0.16157l-0.09455,-0.1371l-0.75,-2l-0.01055,-0.09229l-0.04704,-0.0801l-0.625,-2.125l-0.00216,-0.05261l-0.02478,-0.04646l-0.47025,-1.88101l-0.46891,-1.31295l-0.08786,0.00187l-0.1004,0.04542l-1.375,0.25l-0.04858,-0.00317l-0.04508,0.01837l-1.75,0.25l-0.06526,-0.00675l-0.06195,0.02161l-1.375,0.125l-0.11421,-0.01777l-0.11213,0.02803h-1l-0.17457,-0.04364l-0.17899,0.01852l-0.875,-0.125l-0.37217,-0.15163l-0.39231,-0.08718l-0.40699,-0.2035l-0.52845,-0.21138l-0.212,-0.15311l-0.24627,-0.08795l-0.2455,-0.16366l-0.36079,-0.18039l-0.30513,-0.26154l-0.34461,-0.20676l-0.25,-0.25l-0.06535,-0.10891l-0.0132,-0.01132l-0.00065,-0.01178l-0.58371,-0.97285l0.07661,-0.2809l-0.16151,-0.24226l0.22314,-1.00412l-0.01324,-0.04855l0.03816,-0.06361l0.03145,-0.14152l0.125,-0.25l0.26154,-0.30513l0.20676,-0.34461l0.38466,-0.38466l0.00551,-0.02754l0.06058,-0.03855l0.04926,-0.04926l0.49257,-0.29554l0.48463,-0.3084l0.06609,-0.02203l0.06157,-0.03694l0.02709,0.00739l1.14055,-0.38018l1.43502,-0.7727l0.07108,-0.01807l0.05695,-0.04621l1.875,-0.875l0.05265,-0.01022l0.04303,-0.03202l0.46455,-0.19356c-0.002,-0.041 -0.00301,-0.08225 -0.00301,-0.12375z" fill="#ffb800"/><path d="M345.87244,154.16484c-1.56525,-0.78262 -0.78262,-2.34787 -0.78262,-2.34787l0.33614,-0.55783c-0.23666,-0.50898 -0.17433,-1.03876 -0.17433,-1.03876c0.01564,-0.13158 0.03069,-0.26546 0.04545,-0.40131c-0.4037,0.23982 -0.97282,0.35742 -1.68499,-0.04954c-1.51943,-0.86824 -0.65118,-2.38767 -0.65118,-2.38767l0.73249,-1.2735c1.45759,-2.18226 3.68941,-5.6293 6.20022,-6.6927c1.44975,-0.61401 3.13186,-1.78399 4.57812,-1.16182c1.09046,0.4691 0.63189,2.29582 0.79214,3.47204c0.38511,2.82659 0,6.00598 0,8.86626c0,0 0,1.75 -1.75,1.75c-1.75,0 -1.75,-1.75 -1.75,-1.75c0,-0.05263 0,-0.10525 0,-0.15788c-0.83048,0.7699 -1.883,1.48946 -2.77238,1.24485l-0.77117,1.70311c0,0 -0.78262,1.56525 -2.34787,0.78262z" fill="#ffb800"/></g></g></svg>