<svg version="1.1" xmlns="http://www.w3.org/2000/svg" xmlns:xlink="http://www.w3.org/1999/xlink" width="126.7274" height="190.82876" viewBox="0,0,126.7274,190.82876"><g transform="translate(-248.1264,-90.03611)"><g stroke-miterlimit="10"><path d="M311.17501,216.87516l2.1,-39.8c0,0 7.31032,1.84925 10.97939,1.66029c4.05829,-0.20901 12.32061,-2.86029 12.32061,-2.86029l2.2,43c0,0 -6.402,1.9 -10.225,1.9c-4.88209,0 -17.375,-3.9 -17.375,-3.9z" fill="#ffde00" stroke="#000000" stroke-width="0"/><path d="M313.31671,269.9668l-0.3,-52.4l24.06464,2.18047l0.80489,33.15192c0,0 10.13244,2.42493 13.36964,4.62747c2.65805,1.80849 4.66083,7.64014 4.66083,7.64014c0,0 -8.84209,4.95575 -25.00006,-5.5975c-4.73338,-3.09151 -6.19994,-27.2025 -6.19994,-27.2025l-3.79279,26.51897c0,0 26.15957,21.29119 0.18092,19.37023c-3.97924,-0.29424 -7.78813,-8.28919 -7.78813,-8.28919z" fill="#9a3b00" stroke="#000000" stroke-width="0"/><path d="M305.21565,140.45326c-0.68304,-0.45435 -0.8329,-1.0159 -0.79937,-1.4843c-0.61043,-0.40616 -0.76373,-1.16855 -0.76373,-1.16855l0.24635,0.28796c-1.24572,-1.59915 -2.54494,-3.10691 -3.70654,-4.77101c-6.09496,-11.02884 -4.36399,-24.69541 2.94835,-34.30973c0,0 1.06103,-1.39166 2.45269,-0.33063c0.3201,0.24406 0.51044,0.50558 0.61377,0.76365l0.90342,0.92919c0.414,0.53116 0.82799,1.0623 1.24199,1.59346c8.90674,9.10712 9.64488,24.78771 1.48186,34.68927c0,0 -0.05715,0.06924 -0.16126,0.16342c-0.35634,0.66746 -0.76165,1.30858 -1.21205,1.91136l-0.81917,1.23805c0,0 -0.96922,1.45709 -2.42632,0.48785zM307.29104,133.58157c0,0 0.35689,-1.02713 1.31768,-1.18078c5.51833,-8.64081 4.23461,-20.80514 -2.89347,-28.13651c-0.35002,-0.44906 -0.70002,-0.89811 -1.05004,-1.34719c-5.36562,8.27953 -6.53309,19.47523 -1.50281,28.54857c1.00251,1.43564 2.13085,2.74521 3.21602,4.11386c0.37497,-0.63138 0.6817,-1.3059 0.91261,-1.99796z" fill="#000000" stroke="none" stroke-width="0.5"/><path d="M307.29553,133.63157c-0.2309,0.69208 -0.54098,1.36677 -0.91595,1.99815c-1.08518,-1.36865 -2.22604,-2.67951 -3.22856,-4.11517c-5.03028,-9.07335 -3.85549,-20.36756 1.51012,-28.64709c0.35002,0.44906 0.70314,0.89795 1.05315,1.34702c7.12808,7.33137 8.42251,19.59473 2.90419,28.23554c-0.96078,0.15365 -1.32294,1.18154 -1.32294,1.18154z" fill="#04ff00" stroke="none" stroke-width="0.5"/><path d="M248.47038,92.07429c-0.14533,-1.74396 1.59863,-1.88928 1.59863,-1.88928l1.85962,-0.1489c1.35498,0.00073 2.71085,0.04743 4.06238,0.14397c15.50086,0.07351 27.67733,7.03378 37.84325,18.33074c8.4539,10.55982 10.42989,18.96405 7.47033,31.79676c0.05595,0.17769 0.08833,0.38334 0.08833,0.62138c0,1.55891 -1.38868,1.72913 -1.69196,1.74772c-0.14875,0.02238 -0.31261,0.02512 -0.49291,0.00228h-1.56513c-12.78499,-0.00647 -33.02378,-1.64125 -41.01895,-13.33797c-7.62622,-11.02834 -9.11335,-23.55918 -8.29907,-36.66405c0,0 0.01709,-0.27346 0.14595,-0.59721c-0.00015,-0.00181 -0.00031,-0.00363 -0.00046,-0.00544zM291.1658,110.77567c-9.46235,-10.51218 -20.81482,-17.17651 -35.2996,-17.09783c-1.31005,-0.09358 -2.62423,-0.1425 -3.93762,-0.14174l-0.14974,0.01306c-0.68834,12.08607 0.67786,23.63617 7.74012,33.82491c6.8614,10.64434 26.93883,11.81091 38.12391,11.80489h0.33902c2.67853,-11.54216 0.8516,-18.81157 -6.81608,-28.40328z" fill="#000000" stroke="none" stroke-width="0.5"/><path d="M291.21299,110.75901c7.66768,9.59171 9.48265,16.91332 6.80412,28.45548l-0.33929,0.00026c-11.18508,0.00602 -31.33849,-1.16782 -38.19989,-11.81216c-7.06226,-10.18874 -8.42335,-21.80211 -7.73501,-33.88818l0.14986,-0.01318c1.31339,-0.00076 2.63079,0.04513 3.94084,0.13871c14.48478,-0.07868 25.917,6.60688 35.37935,17.11906z" fill="#04ff00" stroke="none" stroke-width="0.5"/><path d="M309.07426,172.99253c-9.69875,-5.65679 -16.26132,-18.61716 -16.20213,-29.86438c0.98857,-13.37068 23.75434,-16.07721 33.59569,-10.67516c11.39803,4.33715 23.77409,18.55109 19.17622,31.69312c-4.68164,14.31731 -20.52482,16.43171 -33.15075,11.16126c-0.83606,-0.3478 -1.67243,-0.71241 -2.49385,-1.09374c-0.17689,-0.78481 -0.92516,-1.22111 -0.92516,-1.22111z" fill="#ff6e00" stroke="none" stroke-width="0.25"/><path d="M255.61029,109.85952c0,-1.48023 1.48023,-1.48023 1.48023,-1.48023l1.45233,0.04421c2.81866,0.72061 4.78981,1.02895 7.72519,1.04817c-2.25206,-2.16439 -5.075,-3.66798 -7.30864,-5.85428l-0.7289,-0.7289c0,0 -1.04667,-1.04667 0,-2.09333c1.04667,-1.04667 2.09333,0 2.09333,0l0.7289,0.7289c2.27313,2.34049 5.30699,3.8879 7.65325,6.1955c2.43949,2.45051 5.24241,4.80069 8.04186,7.21153c0,-2.78384 0,-5.56768 0,-8.35151v-0.36445c0,0 0,-1.48023 1.48023,-1.48023c1.48023,0 1.48023,1.48023 1.48023,1.48023c0,3.64907 0,7.64034 0,11.31066c4.01357,3.60971 7.74282,7.46992 10.04804,12.08042c0,0 0.66199,1.32393 -0.66199,1.98591c-0.51564,0.25782 -1.75529,0.15626 -1.75529,0.15626c-4.34478,0 -8.36364,-0.7665 -12.63432,-1.4779l-1.16775,-0.77783c0,0 -1.04667,-1.04667 0,-2.09333c1.04667,-1.04667 2.09333,0 2.09333,0l-0.4389,-0.04897c3.59177,0.59895 6.99162,1.2489 10.58035,1.40336c-1.57205,-2.13979 -3.52389,-3.73547 -5.38201,-5.89779c-3.66979,-4.27059 -11.15713,-10.36725 -11.15713,-10.36725c-3.27039,0 -8.31303,-0.44103 -11.4078,-1.19307l-0.73432,0.04421c0,0 -1.48023,0 -1.48023,-1.48023z" fill="#039a00" stroke="none" stroke-width="0.5"/><path d="M324.71742,225.85166c1.56525,-0.78262 2.34787,0.78262 2.34787,0.78262l0.35142,1.11596c-0.00512,6.5258 0.95356,13.32802 1.97903,19.72988c0.49167,3.06942 -0.016,6.46358 1.08227,9.33873c0,0 0.05336,0.14672 0.08436,0.36844c7.10721,7.99793 30.26078,12.58962 20.14621,2.40363c-3.33038,-2.32577 -7.60636,-4.63532 -11.68721,-4.93004l-1.94774,-0.16231c-0.59425,-0.02185 -0.97537,-0.2529 -1.2198,-0.54029c-0.26619,-0.26755 -0.46485,-0.66674 -0.43709,-1.26111c0.00448,-3.92556 0.5047,-7.76369 0.66815,-11.68631c0.279,-6.69565 -0.33485,-13.4006 -0.33485,-20.09394v-0.5c0,0 0,-1.75 1.75,-1.75v-0.00001c1.75,0 1.75,1.75 1.75,1.75v0.5c0,6.74211 0.61285,13.49434 0.33182,20.2394c-0.13972,3.35359 -0.53274,6.64778 -0.63861,9.98592l0.36878,0.03073c4.86914,0.44756 9.6694,2.94797 13.64612,5.73664c14.10755,14.02792 -13.40371,15.81461 -25.10846,2.49304c0,0 -0.36646,-0.41881 -0.4499,-0.99074c-0.14607,-0.21821 -0.21106,-0.39695 -0.21106,-0.39695c-1.93511,-5.52317 -1.20014,-12.25109 -1.92558,-18.05089c-0.07587,-0.60653 -0.15828,-1.20628 -0.2437,-1.8015c-0.36399,2.40993 -0.6677,4.82074 -0.94732,7.11903c-0.32508,2.67186 0.26807,5.40165 -0.17892,8.0878c-0.29897,1.79662 -0.95286,3.31656 -1.22304,5.06182c4.34452,2.94412 8.68618,6.34882 10.75445,11.25743c5.77442,11.90937 -22.05773,20.39151 -22.33911,-7.51051c-0.44218,-0.5992 -0.31167,-1.38224 -0.31167,-1.38224c1.99922,-11.93996 -0.3484,-23.73052 -0.35714,-35.7123c0,-2 0,-4 0,-6v-0.66667c0,0 0,-1.75 1.75,-1.75h0.00001c1.75,0 1.75,1.75 1.75,1.75c0,2 0,4.66667 0,6.66667c-0.00941,11.999 2.25393,23.74554 0.40265,35.70687c0.26401,0.46386 0.26401,0.9598 0.26401,0.9598c0,22.67386 19.08627,15.99173 15.65874,9.39495c-1.86702,-4.53814 -6.21741,-7.6141 -10.2128,-10.2722l-0.41051,-0.4739c-0.08032,-0.07453 -0.14864,-0.15505 -0.20674,-0.23865l-0.31203,-0.3602c0,0 -0.97663,-1.30218 0.20976,-2.33671c0.32155,-1.57592 0.85546,-3.0192 1.13043,-4.66579c0.43673,-2.61532 -0.15559,-5.29829 0.1544,-7.9122c0.62586,-5.27734 1.43611,-11.08336 2.70768,-16.22642l0.12793,-1.12596c0,0 0.09587,-0.76692 0.66985,-1.21771c0.14642,-0.1699 0.34682,-0.32855 0.61735,-0.46381z" fill="#000000" stroke="none" stroke-width="0.5"/><path d="M339.97858,189.39009c3.92674,0 6.77208,0.32875 10.44632,1.73652c13.63303,9.81431 -3.26942,23.28933 0.60763,27.22423c0.53488,0.54286 1.48076,-0.50273 2.05307,-1.00596c2.90851,-2.55746 4.80196,-4.63215 8.5736,-2.33304c2.02183,1.00348 3.89277,1.94776 6.06405,2.6401c3.04572,0.97118 3.96775,-5.20551 1.92674,-6.66926c-1.91428,-1.37286 -4.29066,1.87616 -6.98959,0.06015c-3.32245,-2.23555 -1.47882,-13.30097 -2.29475,-16.87609c-3.0655,-12.367 -7.72068,-21.42577 -22.2676,-14.78424c-0.07994,3.42044 0.0938,6.81862 0.38112,10.20681zM363.77202,193.3626c0.49993,2.29979 -0.3101,14.10819 1.20469,15.05635c1.12195,0.70227 4.34761,-1.8214 6.57077,-0.37728c7.3313,4.76225 2.05131,16.88516 -11.6936,9.96863c-3.24583,-3.14977 -8.88998,10.33117 -12.58901,0.08075c-2.80601,-7.77575 12.09185,-16.42347 1.51435,-23.87548c-3.13776,-1.14419 -5.44216,-1.32549 -8.80064,-1.32549l-1.16928,0.18323c0.65992,6.40106 1.55439,12.78144 1.73417,19.22428c0.07194,0.6407 0.14389,1.28143 0.21583,1.92213l0.31642,1.04581c0,0 0.08525,0.30462 0.05375,0.69108c0.06081,0.08279 0.1191,0.17517 0.1742,0.27809l-0.00001,-0.00004c0.82597,1.54281 -0.71683,2.36879 -0.71683,2.36879l0.03414,-0.08255c-6.35775,5.74299 -16.10727,4.34075 -23.63933,2.17498c-2.77056,-0.79665 -5.08031,-1.29556 -7.37118,-3.14372c0,0 -1.10286,-0.91196 -0.48926,-2.08382c-0.01457,-0.52213 -0.03013,-1.07965 -0.04334,-1.55308c-0.11797,-4.34122 -0.07987,-8.73846 0.09388,-13.14501c-4.24019,2.42826 -10.03091,5.13659 -12.29815,9.56333h0.00002c-0.57553,1.12372 -0.81454,2.39455 -1.33872,3.54313c-1.33861,5.28268 5.75077,10.01102 2.68556,14.55605c-6.73053,9.97989 -11.1335,-4.54573 -14.23252,-6.29706c-1.34777,-0.76166 -2.22209,2.18223 -3.50994,3.04133c-1.55188,1.03523 -3.19351,1.15929 -4.9827,1.53544c-13.7364,-1.24174 -10.80256,-13.77526 0.58605,-15.14933c2.57211,-0.31033 3.35756,1.47443 5.29634,1.63727c0.27183,0.02283 -0.32529,-0.49075 -0.29801,-0.76216c0.39529,-3.93294 2.96764,-9.34345 4.4156,-13.01671c6.65353,-11.15047 11.13715,-19.88163 23.22346,-23.37397c-0.21032,-0.10491 -0.42004,-0.21097 -0.62919,-0.31806l-1.49991,-1.46795c0,0 -0.14912,-0.14912 -0.29206,-0.39558c-9.24165,-6.49211 -15.03151,-18.86287 -15.07635,-30.05187c1.2085,-15.2405 24.8848,-19.45897 36.62627,-13.09257c12.66775,4.92037 24.50687,19.88495 19.92549,34.1417c-1.34578,3.97519 -3.45823,7.12405 -6.09052,9.50985c13.01393,-3.43084 18.82959,6.07159 22.08956,18.98951zM288.63075,200.97684c-1.06098,2.59571 -2.73962,14.11329 -5.57346,15.29427c-4.04542,1.6859 -7.07708,-2.74283 -11.75439,0.71534c-2.21483,1.63753 -1.97549,5.6093 0.83663,6.08089c1.0403,0.17446 2.1126,0.0334 3.16089,0.1506c3.15797,-0.69499 6.65431,-5.40912 9.81268,-4.39642c1.54628,0.4958 6.55039,13.34051 10.17457,7.70112c0.13944,-0.21697 -4.16124,-9.3403 -3.05728,-13.79924c0.58824,-1.29914 0.85843,-2.73772 1.53271,-3.99436c2.92026,-5.44241 9.45424,-8.45111 14.47361,-11.46616l1.13859,-0.65102c0.34414,-5.90103 0.91992,-11.79238 1.67839,-17.56192c-12.13432,2.92218 -15.95512,11.21285 -22.42293,21.92691zM310.86534,173.2355c0.77558,0.36005 1.5597,0.70203 2.3491,1.03042c11.92131,4.97632 26.81779,3.00886 31.23816,-10.50944c4.34128,-12.40861 -7.31257,-25.76319 -18.07451,-29.8583c-9.29213,-5.10058 -30.72604,-2.57422 -31.65944,10.05028c-0.05588,10.61955 6.11843,22.79441 15.27592,28.13551c0,0 0.70375,0.41052 0.87077,1.15153zM312.57651,213.81766c0.01509,0.54083 0.03018,1.08166 0.04527,1.62249c1.61849,1.05622 3.40553,1.33886 5.34341,1.8968c5.90309,1.69958 14.586,3.43794 19.80241,-0.95705c-0.04354,-0.10386 -0.06237,-0.1711 -0.06237,-0.1711l-0.42436,-1.60124c-0.07632,-0.68901 -0.15263,-1.37801 -0.22894,-2.06702c-0.31682,-11.35426 -2.77706,-22.50607 -2.42917,-33.92181c-6.06667,2.25189 -13.23532,2.08959 -19.96885,-0.09296c-1.57935,11.54045 -2.41178,23.63589 -2.0774,35.29188z" fill="#000000" stroke="none" stroke-width="0.5"/><path d="M338.43475,189.56635c-0.28732,-3.38819 -0.44977,-6.80087 -0.36983,-10.22131c14.54692,-6.64153 19.27784,2.42854 22.34334,14.79554c0.81593,3.57512 -1.09679,14.62427 2.22566,16.85982c2.69893,1.81601 5.13962,-1.35791 7.0539,0.01495c2.04101,1.46375 1.10901,7.64927 -1.93671,6.67809c-2.17128,-0.69234 -4.05066,-1.63206 -6.07249,-2.63554c-3.77164,-2.29911 -5.6879,-0.22061 -8.59641,2.33685c-0.57231,0.50323 -1.52292,1.54827 -2.0578,1.00541c-3.87705,-3.9349 13.00794,-17.50222 -0.62509,-27.31653c-3.67424,-1.40777 -6.45083,-1.66833 -10.37757,-1.66833z" fill="#ffde00" stroke="none" stroke-width="0.5"/><path d="M288.60168,200.93615c6.46781,-10.71406 10.34991,-19.00227 22.48423,-21.92445c-0.75847,5.76954 -1.31949,11.68202 -1.66363,17.58305l-1.13839,0.65158c-5.01937,3.01505 -11.57368,6.08246 -14.49394,11.52487c-0.67428,1.25664 -0.96177,2.70212 -1.55001,4.00126c-1.10396,4.45894 3.19748,13.58212 3.05804,13.79909c-3.62418,5.63939 -8.65501,-7.20701 -10.20129,-7.70281c-3.15837,-1.0127 -6.66875,3.69386 -9.82672,4.38885c-1.04829,-0.1172 -2.12429,0.02072 -3.16459,-0.15374c-2.81212,-0.47159 -2.97645,-4.50869 -0.76162,-6.14622c4.67731,-3.45817 7.69311,0.95607 11.73853,-0.72983c2.83384,-1.18098 4.4584,-12.69595 5.51938,-15.29166z" fill="#ffde00" stroke="none" stroke-width="0.5"/><path d="M321.60649,158.86363c-1.75,0 -1.75,-1.75 -1.75,-1.75v-1.74972c0,-4.20574 0.04345,-8.53345 -0.42673,-12.71095c0,0 -0.19326,-1.7393 1.54604,-1.93255c1.7393,-0.19325 1.93255,1.54604 1.93255,1.54604c0.47313,4.30875 0.44814,8.76157 0.44814,13.09747v1.74972c0,0 0,1.75 -1.75,1.75z" fill="#000000" stroke="none" stroke-width="0.5"/><path d="M337.3403,155.8861c1.56525,0.78262 0.78262,2.34788 0.78262,2.34788l-0.98221,1.9351c-0.75412,0.88902 -2.42647,2.97779 -3.38117,3.58265c-8.64538,5.47739 -17.99431,0.51495 -23.90156,-6.25507c0,0 -1.13889,-1.3287 0.18982,-2.46759c1.3287,-1.13888 2.46758,0.18982 2.46758,0.18982c5.63274,6.72635 15.06019,10.66564 21.70953,3.01417l0.76751,-1.56434c0,0 0.78262,-1.56525 2.34787,-0.78263z" fill="#000000" stroke="none" stroke-width="0.5"/><path d="M329.26151,157.1139c-1.75,0 -1.75,-1.75 -1.75,-1.75v-2.18715c0,-4.1498 0.16496,-8.14869 0.66966,-12.24641c0,0 0.21706,-1.73649 1.95355,-1.51943c1.73649,0.21706 1.51943,1.95355 1.51943,1.95355c-0.50284,3.95696 -0.64263,7.80589 -0.64263,11.81229v2.18715c0,0 0,1.75 -1.75,1.75z" fill="#000000" stroke="none" stroke-width="0.5"/></g></g></svg>